<?xml version="1.0" standalone="no"?>
<!DOCTYPE svg PUBLIC "-//W3C//DTD SVG 20010904//EN"
 "http://www.w3.org/TR/2001/REC-SVG-20010904/DTD/svg10.dtd">
<svg version="1.0" xmlns="http://www.w3.org/2000/svg"
 width="1588.000000pt" height="561.000000pt" viewBox="0 0 1588.000000 561.000000"
 preserveAspectRatio="xMidYMid meet">

<g transform="translate(0.000000,561.000000) scale(0.100000,-0.100000)"
fill="#000000" stroke="none">
<path d="M5697 5225 c-4 -137 -10 -312 -14 -387 l-6 -138 -29 0 c-16 0 -31 -6
-34 -15 -5 -13 -43 -15 -251 -15 -219 0 -245 -2 -239 -16 3 -9 6 -47 6 -85 l0
-69 40 0 c45 0 44 1 28 -51 -11 -39 -11 -39 -65 -39 l-53 0 0 -1661 0 -1660
-37 3 -38 3 -3 1188 -2 1187 -90 0 c-65 0 -90 -3 -90 -12 0 -7 -2 -526 -3
-1153 -2 -1076 -3 -1140 -19 -1143 -17 -3 -18 53 -18 1072 l0 1076 -315 0
-315 0 0 -1075 c0 -1068 0 -1075 -20 -1075 -20 0 -20 7 -20 1155 l0 1155 -92
0 -93 0 0 -1187 0 -1188 -37 -3 -38 -3 0 670 0 671 -310 0 -310 0 0 -80 0 -80
-35 0 c-19 0 -35 -4 -35 -10 0 -5 -9 -10 -20 -10 -20 0 -20 -7 -20 -580 l0
-580 -35 0 -35 0 0 70 0 69 -542 0 -543 0 0 -67 0 -67 -37 -3 -38 -3 0 373 0
373 -135 0 -135 0 0 -372 0 -373 -35 0 -35 0 0 234 c0 147 4 237 10 241 6 4 5
12 -4 21 -11 11 -46 14 -155 14 l-141 0 -3 -168 -3 -167 -2 180 c0 99 -1 188
-2 198 0 16 -25 17 -387 17 l-388 0 1 -197 c0 -186 0 -188 -3 -30 l-3 167
-151 0 c-98 0 -148 -4 -144 -10 3 -5 2 -10 -4 -10 -7 0 -7 -9 0 -28 5 -15 8
-122 7 -242 l-3 -215 -88 -3 -87 -3 0 -84 0 -85 7940 0 7940 0 0 85 0 85 -45
0 -45 0 0 170 0 170 -645 0 -645 0 -2 -167 -3 -168 -32 -3 -33 -3 0 419 c0
468 6 432 -71 432 -22 0 -72 14 -111 30 -97 41 -177 41 -278 0 -40 -16 -75
-28 -79 -26 -4 3 -28 0 -54 -6 l-47 -10 0 -419 0 -419 -40 0 -40 0 0 720 c0
713 0 720 -20 720 -11 0 -20 5 -20 10 0 6 -25 10 -55 10 l-55 0 0 45 c0 42 -1
44 -37 54 -21 6 -59 11 -84 11 l-46 0 -6 68 c-3 37 -9 90 -13 117 -5 35 -3 47
4 40 12 -12 32 -113 32 -167 0 -37 1 -38 34 -38 19 0 57 -5 85 -12 l51 -11 0
-46 0 -46 45 3 c39 4 45 7 45 27 0 13 -7 25 -15 29 -11 4 -15 20 -15 56 l0 50
-39 0 c-37 0 -39 2 -46 37 -15 81 -60 140 -130 169 -22 9 -43 21 -47 28 -4 6
-8 50 -8 99 0 51 -4 87 -10 87 -6 0 -10 -34 -10 -83 0 -70 -3 -87 -20 -105
-12 -12 -26 -22 -32 -22 -49 0 -138 -117 -138 -182 0 -27 -2 -28 -45 -28 l-45
0 0 -50 c0 -36 -4 -52 -15 -56 -8 -4 -15 -17 -15 -30 0 -22 4 -24 48 -24 l47
0 0 42 c0 41 1 42 45 56 25 7 62 11 83 10 l37 -4 0 48 c0 26 5 50 10 53 6 4
10 14 9 23 -4 31 13 94 23 84 11 -11 -1 -122 -13 -122 -5 0 -9 -22 -9 -50 l0
-50 -47 0 c-27 0 -64 -5 -84 -10 -33 -9 -36 -13 -37 -52 -1 -23 -3 -43 -5 -44
-1 -2 -23 -5 -47 -7 -25 -2 -55 -8 -67 -12 l-23 -7 0 -720 0 -719 -32 3 -33 3
-12 225 c-7 124 -21 376 -31 560 -17 323 -19 336 -42 367 l-23 33 -23 -33
c-20 -31 -23 -54 -38 -318 -9 -156 -23 -396 -31 -534 -8 -137 -15 -262 -15
-277 0 -25 -4 -28 -35 -28 l-35 0 0 1085 0 1085 -25 0 -25 0 0 -1020 c0 -673
-3 -1020 -10 -1020 -7 0 -10 347 -10 1020 l0 1020 -25 0 c-24 0 -25 3 -25 55
l0 55 -270 0 -270 0 0 -55 0 -55 -60 0 -60 0 0 -1085 0 -1085 -30 0 -30 0 0
1285 0 1285 -25 0 -25 0 -2 -1225 c-2 -808 -6 -1225 -13 -1225 -7 0 -11 416
-13 1224 l-2 1225 -33 3 c-30 3 -32 6 -35 46 l-3 42 -164 0 -164 0 -3 -42 -3
-43 -72 -3 -73 -3 -2 -1282 -3 -1282 -37 -3 -38 -3 0 1519 0 1519 -117 12
c-217 21 -678 61 -710 61 l-33 0 -2 -1472 c-3 -1302 -5 -1473 -18 -1473 -13 0
-15 171 -18 1473 -1 809 -5 1472 -9 1472 -4 0 -27 -7 -50 -16 l-43 -17 0
-1388 c0 -919 -3 -1389 -10 -1389 -7 0 -10 468 -10 1385 0 762 -2 1385 -4
1385 -2 0 -20 -7 -40 -15 l-36 -15 -2 -1312 -3 -1311 -65 55 c-36 30 -166 138
-290 239 -124 102 -380 313 -570 469 l-345 285 -65 6 c-36 3 -77 2 -92 -2 -20
-5 -754 -601 -1159 -941 -25 -21 -48 -38 -52 -38 -4 0 -7 354 -7 786 1 433 -2
789 -5 792 -3 3 -5 100 -5 216 l0 211 -52 15 -53 16 3 101 3 101 -58 17 c-38
11 -99 45 -179 100 l-122 83 -120 -82 c-79 -55 -141 -89 -182 -101 l-61 -19 7
-101 6 -101 -52 -15 c-50 -13 -53 -16 -54 -47 -1 -17 1 -32 4 -32 3 1 129 11
280 24 151 14 278 21 283 17 4 -4 6 -425 5 -936 -3 -876 -4 -930 -20 -933 -17
-3 -18 46 -18 919 l0 922 -67 -6 c-38 -4 -151 -14 -253 -22 -102 -9 -191 -17
-198 -18 -19 -3 -21 -118 -27 -1360 l-5 -1037 -40 0 -40 0 0 1660 0 1659 -56
3 -57 3 -12 43 -13 42 39 0 39 0 1 60 c2 74 2 77 12 86 4 4 7 11 7 16 0 4
-112 8 -250 8 -216 0 -250 2 -250 15 0 10 -10 15 -34 15 l-33 0 -7 61 c-3 34
-7 139 -7 233 -1 94 -4 241 -8 326 l-6 155 -8 -250z m473 -762 c0 -10 -100
-13 -465 -13 -410 0 -479 3 -461 21 2 2 212 4 465 4 362 0 461 -3 461 -12z
m70 -173 c0 -7 -185 -10 -535 -10 -350 0 -535 3 -535 10 0 7 185 10 535 10
350 0 535 -3 535 -10z m0 -55 c0 -13 -65 -15 -529 -15 -292 0 -532 4 -535 9
-3 4 -3 11 1 15 3 3 244 6 535 6 463 0 528 -2 528 -15z m0 -55 c0 -7 -183 -10
-529 -10 -343 0 -532 4 -536 10 -4 7 175 10 529 10 351 0 536 -3 536 -10z m0
-50 c0 -7 -185 -10 -535 -10 -350 0 -535 3 -535 10 0 7 185 10 535 10 350 0
535 -3 535 -10z m4470 -50 c151 -12 285 -23 298 -26 19 -4 22 -11 22 -55 l0
-50 -42 6 c-41 5 -630 55 -655 55 -9 0 -13 17 -13 51 l0 52 58 -6 c31 -4 181
-16 332 -27z m-4470 0 c0 -7 -185 -10 -536 -10 -354 0 -533 3 -529 10 4 6 193
10 536 10 346 0 529 -3 529 -10z m0 -60 c0 -7 -183 -10 -529 -10 -343 0 -532
4 -536 10 -4 7 175 10 529 10 351 0 536 -3 536 -10z m0 -50 c0 -7 -185 -10
-535 -10 -350 0 -535 3 -535 10 0 7 185 10 535 10 350 0 535 -3 535 -10z m0
-50 c0 -7 -185 -10 -536 -10 -354 0 -533 3 -529 10 4 6 193 10 536 10 346 0
529 -3 529 -10z m0 -140 l0 -30 -532 2 -533 3 -3 28 -3 27 535 0 536 0 0 -30z
m718 -70 c-4 -78 -28 -80 -28 -2 0 32 3 62 7 66 15 14 24 -14 21 -64z m82 4
c0 -48 -3 -65 -12 -62 -8 3 -14 28 -16 66 -2 51 0 62 13 62 12 0 15 -13 15
-66z m-250 -15 c0 -46 -3 -59 -15 -59 -12 0 -15 13 -15 58 0 32 3 62 6 65 15
15 24 -8 24 -64z m80 11 c0 -47 -3 -60 -15 -60 -12 0 -15 13 -15 60 0 47 3 60
15 60 12 0 15 -13 15 -60z m260 -11 c0 -46 -3 -59 -15 -59 -12 0 -15 14 -15
65 0 53 3 63 15 59 11 -5 15 -22 15 -65z m-430 1 c0 -47 -3 -60 -15 -60 -12 0
-15 13 -15 60 0 47 3 60 15 60 12 0 15 -13 15 -60z m-80 -10 c0 -47 -3 -60
-15 -60 -12 0 -15 13 -15 60 0 47 3 60 15 60 12 0 15 -13 15 -60z m590 0 c0
-47 -3 -60 -15 -60 -12 0 -15 13 -15 60 0 47 3 60 15 60 12 0 15 -13 15 -60z
m-970 -85 c0 -13 -65 -15 -529 -15 -292 0 -532 4 -535 9 -3 4 -3 11 1 15 3 3
244 6 535 6 463 0 528 -2 528 -15z m5080 -30 c0 -20 -5 -25 -24 -25 -17 0 -25
7 -28 25 -5 22 -2 25 23 25 24 0 29 -4 29 -25z m70 0 c0 -21 -5 -25 -30 -25
-25 0 -30 4 -30 25 0 21 5 25 30 25 25 0 30 -4 30 -25z m70 0 c0 -21 -5 -25
-30 -25 -25 0 -30 4 -30 25 0 21 5 25 30 25 25 0 30 -4 30 -25z m70 0 c0 -21
-5 -25 -30 -25 -25 0 -30 4 -30 25 0 21 5 25 30 25 25 0 30 -4 30 -25z m70 0
c0 -21 -5 -25 -30 -25 -25 0 -30 4 -30 25 0 21 5 25 30 25 25 0 30 -4 30 -25z
m70 0 c0 -21 -5 -25 -30 -25 -25 0 -30 4 -30 25 0 21 5 25 30 25 25 0 30 -4
30 -25z m-5430 -25 c0 -7 -183 -10 -529 -10 -343 0 -532 4 -536 10 -4 7 175
10 529 10 351 0 536 -3 536 -10z m0 -50 c0 -7 -185 -10 -535 -10 -350 0 -535
3 -535 10 0 7 185 10 535 10 350 0 535 -3 535 -10z m675 -75 c0 -58 -1 -60
-27 -63 -28 -3 -28 -3 -28 56 0 65 5 74 35 70 18 -3 20 -10 20 -63z m4405 35
c0 -25 -4 -30 -24 -30 -17 0 -25 7 -28 25 -6 30 -2 35 29 35 19 0 23 -5 23
-30z m70 0 c0 -25 -4 -30 -25 -30 -14 0 -28 7 -31 15 -10 25 4 45 31 45 21 0
25 -5 25 -30z m70 0 c0 -27 -3 -30 -30 -30 -25 0 -30 4 -30 23 0 30 7 37 37
37 19 0 23 -5 23 -30z m70 0 c0 -27 -3 -30 -30 -30 -27 0 -30 3 -30 30 0 27 3
30 30 30 27 0 30 -3 30 -30z m70 0 c0 -27 -3 -30 -30 -30 -27 0 -30 3 -30 30
0 27 3 30 30 30 27 0 30 -3 30 -30z m70 0 c0 -25 -4 -30 -25 -30 -14 0 -28 7
-31 15 -10 25 4 45 31 45 21 0 25 -5 25 -30z m-4840 -40 c0 -45 -4 -60 -14
-60 -8 0 -21 -3 -30 -6 -14 -5 -16 4 -16 60 l0 66 30 0 30 0 0 -60z m-190 -15
c0 -63 -1 -65 -25 -65 -24 0 -25 2 -25 65 0 63 1 65 25 65 24 0 25 -2 25 -65z
m90 5 c0 -57 -1 -60 -25 -60 -24 0 -25 3 -25 60 0 57 1 60 25 60 24 0 25 -3
25 -60z m358 21 c4 -43 -4 -62 -23 -55 -10 4 -15 20 -15 51 0 37 3 44 18 41
11 -2 18 -14 20 -37z m-848 19 c0 -7 -185 -10 -536 -10 -354 0 -533 3 -529 10
4 6 193 10 536 10 346 0 529 -3 529 -10z m308 -52 c-3 -60 -4 -63 -30 -66 -28
-3 -28 -3 -28 56 0 66 3 72 37 72 23 0 24 -2 21 -62z m592 17 c0 -33 -4 -45
-15 -45 -11 0 -15 12 -15 45 0 33 4 45 15 45 11 0 15 -12 15 -45z m60 -12 c0
-37 -3 -44 -17 -41 -12 2 -19 14 -21 37 -4 43 4 62 23 55 10 -4 15 -20 15 -51z
m53 33 c10 -27 -4 -85 -19 -79 -19 7 -19 93 0 93 8 0 16 -6 19 -14z m57 -41
c0 -57 -26 -63 -33 -7 -5 42 -2 52 19 52 10 0 14 -12 14 -45z m-1070 -5 c0 -7
-183 -10 -529 -10 -343 0 -532 4 -536 10 -4 7 175 10 529 10 351 0 536 -3 536
-10z m5080 -50 c0 -25 -4 -30 -25 -30 -21 0 -25 5 -25 30 0 25 4 30 25 30 21
0 25 -5 25 -30z m70 -1 c0 -27 -3 -30 -27 -27 -22 2 -29 9 -31 31 -3 24 0 27
27 27 28 0 31 -3 31 -31z m70 0 c0 -27 -3 -30 -27 -27 -22 2 -29 9 -31 31 -3
24 0 27 27 27 28 0 31 -3 31 -31z m70 0 c0 -27 -3 -30 -27 -27 -22 2 -29 9
-31 31 -3 24 0 27 27 27 28 0 31 -3 31 -31z m70 0 c0 -27 -3 -30 -27 -27 -22
2 -29 9 -31 31 -3 24 0 27 27 27 28 0 31 -3 31 -31z m70 0 c0 -27 -3 -30 -27
-27 -22 2 -29 9 -31 31 -3 24 0 27 27 27 28 0 31 -3 31 -31z m-5430 1 c0 -7
-185 -10 -535 -10 -350 0 -535 3 -535 10 0 7 185 10 535 10 350 0 535 -3 535
-10z m850 -35 c0 -38 -3 -45 -20 -45 -17 0 -20 7 -20 45 0 38 3 45 20 45 17 0
20 -7 20 -45z m50 -11 c0 -32 -4 -44 -15 -44 -11 0 -15 12 -15 50 0 40 3 48
15 44 10 -4 15 -20 15 -50z m58 -8 c3 -41 1 -47 -15 -44 -19 3 -30 55 -19 85
12 29 31 6 34 -41z m-280 -18 c-3 -60 -4 -63 -30 -66 -28 -3 -28 -3 -28 56 0
66 3 72 37 72 23 0 24 -2 21 -62z m333 52 c3 -41 1 -80 -4 -80 -4 0 -11 0 -17
0 -5 0 -10 20 -10 45 0 33 4 45 15 45 8 0 15 -4 16 -10z m-423 -62 c2 -46 0
-58 -12 -58 -8 0 -21 -3 -30 -6 -14 -5 -16 4 -16 61 l0 66 28 -3 c26 -3 27 -6
30 -60z m482 16 c0 -37 -3 -45 -17 -42 -9 2 -16 6 -15 11 1 4 2 23 2 42 0 24
5 35 15 35 11 0 15 -12 15 -46z m-670 -29 c0 -63 -1 -65 -25 -65 -24 0 -25 3
-25 58 0 64 4 72 32 72 16 0 18 -9 18 -65z m90 5 c0 -57 -1 -60 -25 -60 -24 0
-25 3 -25 60 0 57 1 60 25 60 24 0 25 -3 25 -60z m-490 40 c0 -7 -185 -10
-536 -10 -354 0 -533 3 -529 10 4 6 193 10 536 10 346 0 529 -3 529 -10z m310
-49 c0 -44 -4 -60 -16 -65 -38 -15 -44 -8 -44 52 0 65 3 72 37 72 21 0 23 -4
23 -59z m4770 -11 c0 -25 -4 -30 -25 -30 -21 0 -25 5 -25 30 0 25 4 30 25 30
21 0 25 -5 25 -30z m70 0 c0 -27 -3 -30 -30 -30 -25 0 -30 4 -30 23 0 30 7 37
37 37 19 0 23 -5 23 -30z m70 0 c0 -27 -3 -30 -30 -30 -25 0 -30 4 -30 23 0
30 7 37 37 37 19 0 23 -5 23 -30z m70 0 c0 -27 -3 -30 -30 -30 -25 0 -30 4
-30 23 0 30 7 37 37 37 19 0 23 -5 23 -30z m70 0 c0 -27 -3 -30 -30 -30 -25 0
-30 4 -30 23 0 30 7 37 37 37 19 0 23 -5 23 -30z m70 0 c0 -25 -4 -30 -25 -30
-14 0 -28 7 -31 15 -10 25 4 45 31 45 21 0 25 -5 25 -30z m-5430 0 c0 -7 -183
-10 -529 -10 -343 0 -532 4 -536 10 -4 7 175 10 529 10 351 0 536 -3 536 -10z
m850 -46 c0 -38 -3 -45 -17 -42 -13 2 -19 15 -21 46 -3 37 -1 42 17 42 18 0
21 -6 21 -46z m48 -7 c2 -37 0 -47 -12 -47 -12 0 -16 12 -16 51 0 66 24 62 28
-4z m62 0 c0 -48 -5 -58 -26 -50 -9 3 -14 21 -14 49 0 37 3 44 20 44 17 0 20
-7 20 -43z m52 -12 c3 -38 0 -45 -14 -45 -15 0 -18 9 -18 45 0 32 4 45 14 45
9 0 15 -15 18 -45z m58 -11 c0 -32 -4 -44 -15 -44 -11 0 -15 12 -15 50 0 40 3
48 15 44 10 -4 15 -20 15 -50z m-392 -46 c-3 -60 -4 -63 -30 -66 -28 -3 -28
-3 -28 56 0 66 3 72 37 72 23 0 24 -2 21 -62z m-89 -8 c1 -33 -2 -60 -6 -60
-4 0 -18 -3 -30 -6 -22 -6 -23 -4 -23 60 0 66 0 66 29 66 27 0 28 -1 30 -60z
m-189 -15 c0 -63 -1 -65 -25 -65 -24 0 -25 3 -25 58 0 64 4 72 32 72 16 0 18
-9 18 -65z m90 5 c0 -57 -1 -60 -25 -60 -24 0 -25 3 -25 60 0 57 1 60 25 60
24 0 25 -3 25 -60z m-180 -10 c0 -33 -3 -60 -7 -60 -5 0 -18 -3 -30 -6 -22 -6
-23 -4 -23 53 0 67 3 73 37 73 22 0 23 -4 23 -60z m4770 30 c0 -25 -4 -30 -25
-30 -21 0 -25 5 -25 30 0 25 4 30 25 30 21 0 25 -5 25 -30z m70 -1 c0 -27 -3
-30 -27 -27 -22 2 -29 9 -31 31 -3 24 0 27 27 27 28 0 31 -3 31 -31z m70 0 c0
-27 -3 -30 -27 -27 -22 2 -29 9 -31 31 -3 24 0 27 27 27 28 0 31 -3 31 -31z
m70 0 c0 -27 -3 -30 -27 -27 -22 2 -29 9 -31 31 -3 24 0 27 27 27 28 0 31 -3
31 -31z m70 0 c0 -27 -3 -30 -27 -27 -22 2 -29 9 -31 31 -3 24 0 27 27 27 28
0 31 -3 31 -31z m70 0 c0 -27 -3 -30 -27 -27 -22 2 -29 9 -31 31 -3 24 0 27
27 27 28 0 31 -3 31 -31z m390 6 c0 -22 -4 -25 -35 -25 -31 0 -35 3 -35 25 0
22 4 25 35 25 31 0 35 -3 35 -25z m90 0 c0 -22 -4 -25 -35 -25 -31 0 -35 3
-35 25 0 22 4 25 35 25 31 0 35 -3 35 -25z m90 0 c0 -22 -4 -25 -35 -25 -31 0
-35 3 -35 25 0 22 4 25 35 25 31 0 35 -3 35 -25z m90 0 c0 -22 -4 -25 -35 -25
-31 0 -35 3 -35 25 0 22 4 25 35 25 31 0 35 -3 35 -25z m95 0 c0 -16 -8 -21
-37 -23 -35 -3 -38 -1 -38 23 0 24 3 26 38 23 29 -2 37 -7 37 -23z m95 -1 c0
-23 -3 -25 -37 -22 -31 2 -39 7 -41 26 -3 20 1 22 37 22 37 0 41 -2 41 -26z
m-5446 0 c11 -4 16 -19 16 -51 0 -37 -3 -44 -17 -41 -14 2 -19 15 -21 51 -3
50 -3 51 22 41z m66 -54 c0 -40 -3 -48 -15 -44 -10 4 -15 20 -15 50 0 32 4 44
15 44 11 0 15 -12 15 -50z m60 -6 c0 -38 -3 -45 -17 -42 -13 2 -19 15 -21 46
-3 37 -1 42 17 42 18 0 21 -6 21 -46z m48 -7 c2 -37 0 -47 -12 -47 -12 0 -16
12 -16 51 0 66 24 62 28 -4z m62 -8 c0 -66 -24 -62 -28 4 -2 37 0 47 12 47 12
0 16 -12 16 -51z m-2569 26 c3 -2 3 -20 1 -40 l-4 -35 -277 2 -276 3 -3 23
c-8 53 -13 52 281 52 151 0 276 -2 278 -5z m1499 -35 l0 -30 -535 0 -535 0 0
30 0 30 535 0 535 0 0 -30z m5820 -15 c0 -22 -4 -25 -35 -25 -31 0 -35 3 -35
25 0 22 4 25 35 25 31 0 35 -3 35 -25z m90 0 c0 -22 -4 -25 -35 -25 -31 0 -35
3 -35 25 0 22 4 25 35 25 31 0 35 -3 35 -25z m90 0 c0 -22 -4 -25 -35 -25 -31
0 -35 3 -35 25 0 22 4 25 35 25 31 0 35 -3 35 -25z m90 0 c0 -22 -4 -25 -35
-25 -31 0 -35 3 -35 25 0 22 4 25 35 25 31 0 35 -3 35 -25z m93 6 c6 -26 0
-31 -40 -31 -29 0 -33 3 -33 25 0 22 4 25 34 25 25 0 35 -5 39 -19z m97 -6 c0
-22 -4 -25 -40 -25 -36 0 -40 3 -40 25 0 23 4 25 40 25 36 0 40 -2 40 -25z
m-1200 -15 c0 -25 -4 -30 -25 -30 -21 0 -25 5 -25 30 0 25 4 30 25 30 21 0 25
-5 25 -30z m70 0 c0 -25 -4 -30 -24 -30 -30 0 -40 13 -31 40 4 13 15 20 31 20
20 0 24 -5 24 -30z m70 0 c0 -27 -3 -30 -30 -30 -25 0 -30 4 -30 23 0 30 7 37
37 37 19 0 23 -5 23 -30z m70 0 c0 -27 -3 -30 -30 -30 -25 0 -30 4 -30 23 0
30 7 37 37 37 19 0 23 -5 23 -30z m70 0 c0 -27 -3 -30 -30 -30 -25 0 -30 4
-30 23 0 30 7 37 37 37 19 0 23 -5 23 -30z m70 0 c0 -25 -4 -30 -25 -30 -14 0
-28 7 -31 15 -10 25 4 45 31 45 21 0 25 -5 25 -30z m-4752 -52 c-3 -60 -4 -63
-30 -66 -28 -3 -28 -3 -28 56 0 66 3 72 37 72 23 0 24 -2 21 -62z m-188 -13
c0 -63 -1 -65 -25 -65 -24 0 -25 3 -25 59 0 59 3 64 43 70 4 0 7 -28 7 -64z
m96 8 c-1 -41 -5 -60 -16 -65 -35 -16 -40 -9 -40 57 0 65 0 65 29 65 28 0 28
-1 27 -57z m262 18 c4 -43 -4 -62 -23 -55 -10 4 -15 20 -15 51 0 37 3 44 18
41 11 -2 18 -14 20 -37z m-448 -36 c0 -63 -1 -65 -25 -65 -24 0 -25 2 -25 65
0 63 1 65 25 65 24 0 25 -2 25 -65z m500 20 c0 -33 -4 -45 -15 -45 -11 0 -15
12 -15 45 0 33 4 45 15 45 11 0 15 -12 15 -45z m60 -12 c0 -37 -3 -44 -17 -41
-12 2 -19 14 -21 37 -4 43 4 62 23 55 10 -4 15 -20 15 -51z m-650 -12 c0 -44
-4 -60 -16 -65 -38 -15 -44 -8 -44 52 0 65 3 72 37 72 21 0 23 -4 23 -59z
m700 8 c0 -66 -24 -62 -28 4 -2 37 0 47 12 47 12 0 16 -12 16 -51z m60 -4 c0
-33 -4 -45 -15 -45 -11 0 -15 12 -15 45 0 33 4 45 15 45 11 0 15 -12 15 -45z
m4750 -10 c0 -22 -4 -25 -35 -25 -31 0 -35 3 -35 25 0 22 4 25 35 25 31 0 35
-3 35 -25z m90 0 c0 -22 -4 -25 -35 -25 -31 0 -35 3 -35 25 0 22 4 25 35 25
31 0 35 -3 35 -25z m90 0 c0 -22 -4 -25 -35 -25 -31 0 -35 3 -35 25 0 22 4 25
35 25 31 0 35 -3 35 -25z m90 0 c0 -22 -4 -25 -35 -25 -31 0 -35 3 -35 25 0
22 4 25 35 25 31 0 35 -3 35 -25z m92 19 c3 -3 4 -14 1 -25 -4 -14 -14 -19
-39 -19 -30 0 -34 3 -34 25 0 22 4 25 33 25 19 0 36 -3 39 -6z m98 -19 c0 -22
-4 -25 -40 -25 -36 0 -40 3 -40 25 0 23 4 25 40 25 36 0 40 -2 40 -25z m-7780
-10 c0 -13 -38 -15 -280 -15 -242 0 -280 2 -280 15 0 13 38 15 280 15 242 0
280 -2 280 -15z m6580 -26 c0 -27 -3 -30 -27 -27 -27 3 -29 8 -24 48 0 6 12
10 26 10 21 0 25 -5 25 -31z m70 1 c0 -25 -4 -30 -25 -30 -14 0 -28 7 -31 15
-10 25 4 45 31 45 21 0 25 -5 25 -30z m70 -1 c0 -27 -3 -30 -27 -27 -22 2 -29
9 -31 31 -3 24 0 27 27 27 28 0 31 -3 31 -31z m70 0 c0 -27 -3 -30 -27 -27
-22 2 -29 9 -31 31 -3 24 0 27 27 27 28 0 31 -3 31 -31z m70 0 c0 -27 -3 -30
-27 -27 -22 2 -29 9 -31 31 -3 24 0 27 27 27 28 0 31 -3 31 -31z m70 0 c0 -27
-3 -30 -27 -27 -22 2 -29 9 -31 31 -3 24 0 27 27 27 28 0 31 -3 31 -31z
m-4580 -44 c0 -38 -3 -45 -20 -45 -17 0 -20 7 -20 45 0 38 3 45 20 45 17 0 20
-7 20 -45z m50 -10 c0 -33 -4 -45 -15 -45 -11 0 -15 12 -15 45 0 33 4 45 15
45 11 0 15 -12 15 -45z m58 -9 c3 -41 1 -47 -15 -44 -19 3 -30 55 -19 85 12
29 31 6 34 -41z m-958 34 c0 -7 -185 -10 -535 -10 -350 0 -535 3 -535 10 0 7
185 10 535 10 350 0 535 -3 535 -10z m1011 -10 c1 -11 2 -30 2 -42 1 -14 -5
-24 -16 -26 -14 -3 -17 4 -17 42 0 34 4 46 15 46 8 0 16 -9 16 -20z m-336 -55
c0 -58 -1 -60 -27 -63 l-28 -3 0 66 0 66 28 -3 c26 -3 27 -5 27 -63z m395 20
c0 -33 -4 -45 -15 -45 -11 0 -15 12 -15 45 0 33 4 45 15 45 11 0 15 -12 15
-45z m-580 -30 c0 -63 -1 -65 -25 -65 -24 0 -25 3 -25 59 0 54 2 60 23 64 12
2 23 5 25 6 1 0 2 -28 2 -64z m100 5 c0 -33 -3 -60 -7 -60 -5 0 -18 -3 -30 -6
-22 -6 -23 -4 -23 60 l0 66 30 0 30 0 0 -60z m5230 35 c0 -22 -4 -25 -35 -25
-31 0 -35 3 -35 25 0 22 4 25 35 25 31 0 35 -3 35 -25z m90 0 c0 -22 -4 -25
-35 -25 -31 0 -35 3 -35 25 0 22 4 25 35 25 31 0 35 -3 35 -25z m90 0 c0 -22
-4 -25 -35 -25 -31 0 -35 3 -35 25 0 22 4 25 35 25 31 0 35 -3 35 -25z m90 0
c0 -22 -4 -25 -35 -25 -31 0 -35 3 -35 25 0 22 4 25 35 25 31 0 35 -3 35 -25z
m92 19 c3 -3 4 -14 1 -25 -4 -14 -14 -19 -39 -19 -30 0 -34 3 -34 25 0 22 4
25 33 25 19 0 36 -3 39 -6z m98 -19 c0 -22 -4 -25 -40 -25 -36 0 -40 3 -40 25
0 23 4 25 40 25 36 0 40 -2 40 -25z m-5880 -50 c0 -63 -1 -65 -25 -65 -24 0
-25 2 -25 65 0 63 1 65 25 65 24 0 25 -2 25 -65z m-90 -4 c0 -51 -3 -61 -20
-66 -32 -10 -40 2 -40 59 0 59 4 66 37 66 21 0 23 -4 23 -59z m-1810 29 c0
-20 -5 -20 -277 -18 -255 3 -278 4 -281 21 -3 16 15 17 277 17 275 0 281 0
281 -20z m1500 10 c0 -7 -185 -10 -536 -10 -354 0 -533 3 -529 10 4 6 193 10
536 10 346 0 529 -3 529 -10z m5080 -30 c0 -25 -4 -30 -25 -30 -21 0 -25 5
-25 30 0 25 4 30 25 30 21 0 25 -5 25 -30z m68 -3 c3 -26 1 -28 -24 -25 -18 2
-28 10 -30 22 -4 28 5 38 29 34 16 -2 23 -11 25 -31z m70 1 c3 -25 0 -28 -27
-28 -26 0 -31 4 -31 23 0 30 9 39 35 35 13 -2 21 -12 23 -30z m72 2 c0 -27 -3
-30 -30 -30 -25 0 -30 4 -30 23 0 30 7 37 37 37 19 0 23 -5 23 -30z m68 -2 c3
-25 0 -28 -27 -28 -26 0 -31 4 -31 23 0 30 9 39 35 35 13 -2 21 -12 23 -30z
m70 0 c3 -25 0 -28 -27 -28 -26 0 -31 4 -31 23 0 30 9 39 35 35 13 -2 21 -12
23 -30z m-4578 -53 c0 -38 -3 -45 -20 -45 -17 0 -20 7 -20 45 0 38 3 45 20 45
17 0 20 -7 20 -45z m50 -5 c0 -38 -4 -50 -15 -50 -11 0 -15 12 -15 50 0 38 4
50 15 50 11 0 15 -12 15 -50z m-900 30 c0 -7 -183 -10 -529 -10 -343 0 -532 4
-536 10 -4 7 175 10 529 10 351 0 536 -3 536 -10z m960 -35 c0 -38 -3 -45 -20
-45 -17 0 -20 7 -20 45 0 38 3 45 20 45 17 0 20 -7 20 -45z m50 -10 c0 -33 -4
-45 -15 -45 -11 0 -15 12 -15 45 0 33 4 45 15 45 11 0 15 -12 15 -45z m58 -8
c2 -37 0 -47 -12 -47 -12 0 -16 12 -16 51 0 66 24 62 28 -4z m4752 28 c0 -22
-4 -25 -35 -25 -31 0 -35 3 -35 25 0 22 4 25 35 25 31 0 35 -3 35 -25z m90 0
c0 -22 -4 -25 -35 -25 -31 0 -35 3 -35 25 0 22 4 25 35 25 31 0 35 -3 35 -25z
m90 0 c0 -22 -4 -25 -35 -25 -31 0 -35 3 -35 25 0 22 4 25 35 25 31 0 35 -3
35 -25z m90 0 c0 -22 -4 -25 -35 -25 -31 0 -35 3 -35 25 0 22 4 25 35 25 31 0
35 -3 35 -25z m93 6 c6 -26 0 -31 -40 -31 -29 0 -33 3 -33 25 0 22 4 25 34 25
25 0 35 -5 39 -19z m97 -6 c0 -22 -4 -25 -40 -25 -36 0 -40 3 -40 25 0 23 4
25 40 25 36 0 40 -2 40 -25z m-7777 -21 c3 -3 3 -12 0 -20 -8 -20 -563 -21
-563 -1 0 8 3 17 7 20 8 9 547 9 556 1z m1497 -4 c0 -7 -185 -10 -535 -10
-350 0 -535 3 -535 10 0 7 185 10 535 10 350 0 535 -3 535 -10z m678 -62 c-3
-60 -4 -63 -30 -66 l-28 -3 0 65 0 66 30 0 31 0 -3 -62z m-188 -13 c0 -63 -1
-65 -25 -65 -24 0 -25 3 -25 59 0 54 2 60 23 64 12 2 23 5 25 6 1 0 2 -28 2
-64z m100 5 l0 -60 -30 0 -30 0 0 60 0 60 30 0 30 0 0 -60z m4490 30 c0 -25
-4 -30 -25 -30 -21 0 -25 5 -25 30 0 25 4 30 25 30 21 0 25 -5 25 -30z m70 0
c0 -25 -4 -30 -25 -30 -14 0 -28 7 -31 15 -10 25 4 45 31 45 21 0 25 -5 25
-30z m70 -1 c0 -27 -3 -30 -27 -27 -22 2 -29 9 -31 31 -3 24 0 27 27 27 28 0
31 -3 31 -31z m70 0 c0 -27 -3 -30 -27 -27 -22 2 -29 9 -31 31 -3 24 0 27 27
27 28 0 31 -3 31 -31z m70 0 c0 -27 -3 -30 -27 -27 -22 2 -29 9 -31 31 -3 24
0 27 27 27 28 0 31 -3 31 -31z m70 1 c0 -25 -4 -30 -25 -30 -14 0 -28 7 -31
15 -10 25 4 45 31 45 21 0 25 -5 25 -30z m-5030 -45 c0 -63 -1 -65 -25 -65
-24 0 -25 2 -25 65 0 63 1 65 25 65 24 0 25 -2 25 -65z m-92 -7 c-3 -60 -4
-63 -28 -63 -23 0 -25 4 -28 49 -4 63 2 76 33 76 25 0 26 -1 23 -62z m-308 42
c0 -7 -185 -10 -536 -10 -354 0 -533 3 -529 10 4 6 193 10 536 10 346 0 529
-3 529 -10z m848 -44 c3 -41 1 -47 -15 -44 -19 3 -30 55 -19 85 12 29 31 6 34
-41z m52 -6 c0 -40 -3 -48 -15 -44 -10 4 -15 20 -15 50 0 32 4 44 15 44 11 0
15 -12 15 -50z m4920 25 c0 -22 -4 -25 -35 -25 -31 0 -35 3 -35 25 0 22 4 25
35 25 31 0 35 -3 35 -25z m90 0 c0 -22 -4 -25 -35 -25 -31 0 -35 3 -35 25 0
22 4 25 35 25 31 0 35 -3 35 -25z m90 0 c0 -22 -4 -25 -35 -25 -31 0 -35 3
-35 25 0 22 4 25 35 25 31 0 35 -3 35 -25z m90 0 c0 -22 -4 -25 -35 -25 -31 0
-35 3 -35 25 0 22 4 25 35 25 31 0 35 -3 35 -25z m93 13 c8 -25 -6 -38 -39
-38 -30 0 -34 3 -34 25 0 22 4 25 34 25 19 0 36 -6 39 -12z m97 -13 c0 -22 -4
-25 -40 -25 -32 0 -40 4 -40 18 0 26 9 32 47 32 29 0 33 -3 33 -25z m-5320
-30 c0 -38 -3 -45 -20 -45 -17 0 -20 7 -20 45 0 38 3 45 20 45 17 0 20 -7 20
-45z m52 6 c4 -48 1 -61 -18 -61 -10 0 -14 13 -14 43 0 24 3 47 7 50 14 15 21
5 25 -32z m6078 -726 c0 -503 -3 -765 -10 -765 -7 0 -10 262 -10 765 0 503 3
765 10 765 7 0 10 -262 10 -765z m80 0 c0 -503 -3 -765 -10 -765 -7 0 -10 262
-10 765 0 503 3 765 10 765 7 0 10 -262 10 -765z m-6102 702 c2 -37 0 -47 -12
-47 -12 0 -16 12 -16 51 0 66 24 62 28 -4z m6172 -707 c0 -500 -3 -760 -10
-760 -11 0 -15 1502 -3 1513 3 4 8 7 10 7 2 0 3 -342 3 -760z m-220 -5 c0
-497 -3 -755 -10 -755 -7 0 -10 258 -10 755 0 497 3 755 10 755 7 0 10 -258
10 -755z m-7020 725 c0 -7 -183 -10 -529 -10 -343 0 -532 4 -536 10 -4 7 175
10 529 10 351 0 536 -3 536 -10z m-1496 -15 c3 -9 0 -18 -7 -21 -7 -2 -134 -3
-282 -2 -248 3 -270 4 -273 21 -3 16 15 17 276 17 243 0 281 -2 286 -15z
m6576 -25 c0 -25 -4 -30 -23 -30 -31 0 -35 5 -29 35 3 18 11 25 28 25 20 0 24
-5 24 -30z m70 0 c0 -27 -3 -30 -30 -30 -25 0 -30 4 -30 23 0 30 7 37 37 37
19 0 23 -5 23 -30z m68 -2 c3 -25 0 -28 -27 -28 -26 0 -31 4 -31 23 0 30 9 39
35 35 13 -2 21 -12 23 -30z m72 2 c0 -27 -3 -30 -30 -30 -25 0 -30 4 -30 23 0
30 7 37 37 37 19 0 23 -5 23 -30z m70 0 c0 -27 -3 -30 -30 -30 -25 0 -30 4
-30 23 0 30 7 37 37 37 19 0 23 -5 23 -30z m70 0 c0 -25 -4 -30 -25 -30 -27 0
-41 20 -31 45 3 8 17 15 31 15 21 0 25 -5 25 -30z m-5430 -10 c0 -7 -185 -10
-535 -10 -350 0 -535 3 -535 10 0 7 185 10 535 10 350 0 535 -3 535 -10z
m5820 -15 c0 -22 -4 -25 -35 -25 -31 0 -35 3 -35 25 0 22 4 25 35 25 31 0 35
-3 35 -25z m90 0 c0 -22 -4 -25 -35 -25 -31 0 -35 3 -35 25 0 22 4 25 35 25
31 0 35 -3 35 -25z m90 0 c0 -22 -4 -25 -35 -25 -31 0 -35 3 -35 25 0 22 4 25
35 25 31 0 35 -3 35 -25z m90 0 c0 -22 -4 -25 -35 -25 -31 0 -35 3 -35 25 0
22 4 25 35 25 31 0 35 -3 35 -25z m90 0 c0 -22 -4 -25 -35 -25 -31 0 -35 3
-35 25 0 22 4 25 35 25 31 0 35 -3 35 -25z m98 -2 c3 -21 -1 -23 -37 -23 -33
0 -41 4 -41 18 0 27 10 33 45 30 22 -2 31 -9 33 -25z m-5603 -48 c0 -58 -1
-60 -27 -63 -28 -3 -28 -3 -28 56 0 65 5 74 35 70 18 -3 20 -10 20 -63z m170
15 c0 -33 -4 -45 -15 -45 -11 0 -16 13 -18 48 -3 42 -1 48 15 45 14 -3 18 -13
18 -48z m-355 -25 c0 -63 -1 -65 -25 -65 -24 0 -25 3 -25 59 0 54 2 60 23 64
12 2 23 5 25 6 1 0 2 -28 2 -64z m98 3 c2 -46 0 -58 -12 -58 -8 0 -21 -3 -30
-6 -14 -5 -16 4 -16 61 l0 66 28 -3 c26 -3 27 -6 30 -60z m312 17 c0 -33 -4
-45 -15 -45 -11 0 -15 12 -15 45 0 33 4 45 15 45 11 0 15 -12 15 -45z m-500
-30 c0 -63 -1 -65 -25 -65 -24 0 -25 2 -25 65 0 63 1 65 25 65 24 0 25 -2 25
-65z m560 19 c0 -38 -3 -45 -17 -42 -13 2 -19 15 -21 46 -3 37 -1 42 17 42 18
0 21 -6 21 -46z m50 -5 c0 -66 -24 -62 -28 4 -2 37 0 47 12 47 12 0 16 -12 16
-51z m1430 -221 l0 -272 115 -346 c63 -190 115 -351 115 -358 0 -7 -14 -12
-34 -12 -30 0 -36 4 -45 33 -5 17 -44 142 -86 277 -42 135 -81 249 -86 255
-24 24 -45 -23 -128 -285 l-87 -275 -38 -3 c-30 -3 -37 0 -33 11 3 8 58 173
121 367 l116 353 0 263 0 264 35 0 35 0 0 -272z m-2130 203 c0 -52 -3 -59 -22
-64 -32 -9 -38 -1 -38 57 0 59 4 66 37 66 21 0 23 -4 23 -59z m760 14 c0 -32
-4 -45 -14 -45 -18 0 -23 14 -18 56 6 53 32 44 32 -11z m5800 -655 c0 -616 -2
-700 -15 -700 -13 0 -15 84 -15 700 0 616 2 700 15 700 13 0 15 -84 15 -700z
m70 0 c0 -460 -3 -700 -10 -700 -7 0 -10 240 -10 700 0 460 3 700 10 700 7 0
10 -240 10 -700z m380 0 c0 -460 -3 -700 -10 -700 -7 0 -10 240 -10 700 0 460
3 700 10 700 7 0 10 -240 10 -700z m70 0 c0 -460 -3 -700 -10 -700 -7 0 -10
240 -10 700 0 460 3 700 10 700 7 0 10 -240 10 -700z m-7390 680 c0 -7 -185
-10 -536 -10 -354 0 -533 3 -529 10 4 6 193 10 536 10 346 0 529 -3 529 -10z
m2310 -18 c0 -10 -75 -87 -172 -178 -95 -89 -359 -335 -587 -547 -227 -213
-417 -387 -422 -387 -6 0 -9 34 -7 77 l3 78 195 160 c107 89 373 308 590 488
217 179 396 326 398 327 1 0 2 -8 2 -18z m854 -527 l606 -500 0 -83 c0 -47 -4
-82 -9 -80 -26 9 -1256 1172 -1259 1190 -5 25 -89 93 662 -527z m-4661 529 c3
-3 3 -12 0 -20 -8 -20 -563 -21 -563 -1 0 8 3 17 7 20 8 9 547 9 556 1z m6577
-44 c0 -25 -4 -30 -24 -30 -14 0 -25 7 -28 18 -8 28 2 42 28 42 20 0 24 -5 24
-30z m70 -1 c0 -27 -3 -30 -27 -27 -20 2 -28 9 -29 23 -1 29 4 35 32 35 20 0
24 -5 24 -31z m70 1 c0 -25 -4 -30 -25 -30 -27 0 -41 20 -31 45 3 8 17 15 31
15 21 0 25 -5 25 -30z m70 -1 c0 -27 -3 -30 -27 -27 -22 2 -29 9 -31 31 -3 24
0 27 27 27 28 0 31 -3 31 -31z m70 0 c0 -27 -3 -30 -27 -27 -22 2 -29 9 -31
31 -3 24 0 27 27 27 28 0 31 -3 31 -31z m70 1 c0 -25 -4 -30 -25 -30 -27 0
-41 20 -31 45 3 8 17 15 31 15 21 0 25 -5 25 -30z m390 -5 c0 -22 -4 -25 -35
-25 -31 0 -35 3 -35 25 0 22 4 25 35 25 31 0 35 -3 35 -25z m90 0 c0 -22 -4
-25 -35 -25 -31 0 -35 3 -35 25 0 22 4 25 35 25 31 0 35 -3 35 -25z m90 0 c0
-22 -4 -25 -35 -25 -31 0 -35 3 -35 25 0 22 4 25 35 25 31 0 35 -3 35 -25z
m90 0 c0 -22 -4 -25 -35 -25 -31 0 -35 3 -35 25 0 22 4 25 35 25 31 0 35 -3
35 -25z m94 16 c13 -21 -7 -41 -40 -41 -30 0 -34 3 -34 25 0 22 4 25 34 25 19
0 37 -4 40 -9z m94 -18 c3 -21 -1 -23 -37 -23 -33 0 -41 4 -41 18 0 27 10 33
45 30 22 -2 31 -9 33 -25z m-5428 -48 c0 -38 -3 -45 -20 -45 -17 0 -20 7 -20
45 0 38 3 45 20 45 17 0 20 -7 20 -45z m50 -10 c0 -33 -4 -45 -15 -45 -11 0
-15 12 -15 45 0 33 4 45 15 45 11 0 15 -12 15 -45z m58 -9 c3 -41 1 -47 -15
-44 -19 3 -30 55 -19 85 12 29 31 6 34 -41z m-3858 14 c0 -25 -4 -30 -25 -30
-20 0 -25 5 -25 23 0 28 7 37 32 37 13 0 18 -8 18 -30z m60 0 c0 -23 -4 -30
-20 -30 -11 0 -23 7 -26 15 -9 23 3 45 26 45 16 0 20 -7 20 -30z m65 0 c0 -18
-6 -26 -22 -28 -20 -3 -23 1 -23 28 0 27 3 31 23 28 16 -2 22 -10 22 -28z m63
3 c-2 -20 -9 -29 -25 -31 -20 -3 -23 1 -23 27 0 27 4 31 26 31 22 0 25 -4 22
-27z m62 -3 c0 -23 -4 -30 -20 -30 -23 0 -35 22 -26 45 3 8 15 15 26 15 16 0
20 -7 20 -30z m65 0 c0 -18 -7 -26 -23 -28 -24 -4 -38 18 -28 44 3 9 15 14 28
12 16 -2 23 -10 23 -28z m60 0 c0 -18 -6 -26 -22 -28 -20 -3 -23 1 -23 28 0
27 3 31 23 28 16 -2 22 -10 22 -28z m63 3 c-2 -20 -9 -29 -25 -31 -20 -3 -23
1 -23 27 0 27 4 31 26 31 22 0 25 -4 22 -27z m3472 -2 c0 -16 3 -36 6 -45 4
-12 0 -16 -15 -16 -18 0 -21 6 -21 45 0 33 4 45 15 45 10 0 15 -10 15 -29z
m60 -27 c0 -37 -3 -45 -17 -42 -9 2 -16 6 -15 11 1 4 2 23 2 42 0 24 5 35 15
35 11 0 15 -12 15 -46z m-392 -26 c-3 -60 -4 -63 -30 -66 -28 -3 -28 -3 -28
56 0 66 3 72 37 72 23 0 24 -2 21 -62z m1600 4 c-39 -42 -132 -144 -623 -680
l-350 -382 -87 0 c-49 0 -88 4 -88 9 0 5 170 168 377 363 208 194 472 442 588
550 115 108 212 192 214 187 2 -6 -12 -27 -31 -47z m802 -482 c314 -294 580
-542 591 -552 10 -9 19 -19 19 -22 0 -3 -42 -6 -94 -6 l-94 0 -38 43 c-20 23
-245 268 -498 545 -440 480 -492 539 -468 531 6 -2 268 -245 582 -539z m-2590
465 c0 -63 -1 -65 -25 -65 -24 0 -25 3 -25 59 0 59 3 64 43 70 4 0 7 -28 7
-64z m100 5 c0 -45 -4 -60 -14 -60 -8 0 -21 -3 -30 -6 -14 -5 -16 4 -16 60 l0
66 30 0 30 0 0 -60z m-2090 35 c0 -13 -38 -15 -280 -15 -242 0 -280 2 -280 15
0 13 38 15 280 15 242 0 280 -2 280 -15z m1900 -50 c0 -63 -1 -65 -25 -65 -24
0 -25 2 -25 65 0 63 1 65 25 65 24 0 25 -2 25 -65z m-90 -4 c0 -52 -3 -59 -22
-64 -33 -9 -38 -1 -38 64 0 59 0 59 30 59 30 0 30 0 30 -59z m4910 23 c0 -20
-5 -24 -30 -24 -25 0 -30 4 -30 23 0 31 5 35 35 29 18 -3 25 -11 25 -28z m598
9 c3 -20 -1 -23 -32 -23 -32 0 -36 3 -36 26 0 23 3 25 33 22 24 -2 33 -8 35
-25z m92 3 c0 -31 -8 -36 -43 -29 -20 4 -27 11 -27 29 0 21 5 24 35 24 30 0
35 -3 35 -24z m90 0 c0 -19 -6 -25 -31 -28 -20 -3 -33 0 -36 9 -10 25 6 43 37
43 25 0 30 -4 30 -24z m90 0 c0 -19 -6 -25 -31 -28 -20 -3 -33 0 -36 9 -10 25
6 43 37 43 25 0 30 -4 30 -24z m90 -1 c0 -22 -4 -25 -35 -25 -27 0 -35 4 -35
18 0 25 9 32 42 32 23 0 28 -4 28 -25z m98 -1 c3 -18 -3 -22 -33 -26 -39 -4
-52 8 -41 38 9 25 70 15 74 -12z m-1198 -9 c0 -20 -5 -25 -25 -25 -20 0 -25 5
-25 25 0 20 5 25 25 25 20 0 25 -5 25 -25z m70 1 c0 -31 -8 -36 -37 -25 -14 5
-23 17 -23 29 0 16 7 20 30 20 25 0 30 -4 30 -24z m140 -1 c0 -21 -5 -25 -30
-25 -25 0 -30 4 -30 25 0 21 5 25 30 25 25 0 30 -4 30 -25z m70 0 c0 -21 -5
-25 -30 -25 -25 0 -30 4 -30 25 0 21 5 25 30 25 25 0 30 -4 30 -25z m70 0 c0
-21 -5 -25 -30 -25 -25 0 -30 4 -30 25 0 21 5 25 30 25 25 0 30 -4 30 -25z
m-5430 -25 l0 -30 -535 0 -535 0 0 23 c0 13 3 27 7 30 3 4 244 7 535 7 l528 0
0 -30z m-2900 -5 c0 -20 -5 -25 -25 -25 -20 0 -25 5 -25 25 0 20 5 25 25 25
20 0 25 -5 25 -25z m60 0 c0 -20 -5 -25 -25 -25 -20 0 -25 5 -25 25 0 20 5 25
25 25 20 0 25 -5 25 -25z m70 0 c0 -20 -5 -25 -25 -25 -20 0 -25 5 -25 25 0
20 5 25 25 25 20 0 25 -5 25 -25z m60 0 c0 -20 -5 -25 -25 -25 -20 0 -25 5
-25 25 0 20 5 25 25 25 20 0 25 -5 25 -25z m60 0 c0 -20 -5 -25 -25 -25 -20 0
-25 5 -25 25 0 20 5 25 25 25 20 0 25 -5 25 -25z m60 -1 c0 -21 -4 -25 -22
-22 -15 2 -24 11 -26 26 -3 18 1 22 22 22 21 0 26 -5 26 -26z m70 1 c0 -20 -5
-25 -25 -25 -20 0 -25 5 -25 25 0 20 5 25 25 25 20 0 25 -5 25 -25z m60 0 c0
-20 -5 -25 -25 -25 -20 0 -25 5 -25 25 0 20 5 25 25 25 20 0 25 -5 25 -25z
m3310 -30 c0 -38 -3 -45 -20 -45 -17 0 -20 7 -20 45 0 38 3 45 20 45 17 0 20
-7 20 -45z m50 -5 c0 -38 -4 -50 -15 -50 -11 0 -15 12 -15 50 0 38 4 50 15 50
11 0 15 -12 15 -50z m60 -3 c0 -48 -5 -58 -26 -50 -9 3 -14 21 -14 49 0 37 3
44 20 44 17 0 20 -7 20 -43z m50 -12 c0 -33 -4 -45 -15 -45 -11 0 -15 12 -15
45 0 33 4 45 15 45 11 0 15 -12 15 -45z m60 -11 c0 -32 -4 -44 -15 -44 -11 0
-15 12 -15 50 0 40 3 48 15 44 10 -4 15 -20 15 -50z m1098 -207 c-220 -281
-487 -615 -551 -689 l-58 -68 -85 0 c-47 0 -84 4 -82 9 2 5 208 233 458 506
451 493 455 497 458 461 3 -33 -9 -51 -140 -219z m793 -243 c250 -272 456
-500 457 -505 2 -5 -33 -9 -81 -9 l-85 0 -54 63 c-56 63 -397 490 -590 737
-81 104 -106 145 -110 173 -2 20 -1 37 2 37 4 0 211 -223 461 -496z m-4461
456 c0 -20 -7 -20 -274 -20 -173 0 -277 4 -281 10 -16 27 16 30 281 30 267 0
274 0 274 -20z m7315 -10 c0 -21 -5 -26 -32 -28 -31 -3 -33 -1 -33 28 0 29 2
31 33 28 27 -2 32 -7 32 -28z m90 0 c0 -21 -5 -26 -32 -28 -29 -3 -33 0 -33
21 0 30 4 34 38 33 22 -1 27 -6 27 -26z m93 -2 c3 -25 0 -28 -28 -28 -32 0
-47 18 -36 46 4 10 15 14 33 12 22 -2 29 -9 31 -30z m90 0 c3 -25 0 -28 -28
-28 -32 0 -47 18 -36 46 4 10 15 14 33 12 22 -2 29 -9 31 -30z m95 10 c3 -12
4 -25 1 -30 -9 -14 -64 -9 -70 7 -10 26 4 45 35 45 21 0 30 -6 34 -22z m92 -8
c0 -21 -5 -26 -33 -28 -22 -2 -34 2 -38 12 -12 30 4 47 38 44 28 -2 33 -7 33
-28z m-9175 -15 c0 -20 -5 -25 -25 -25 -20 0 -25 5 -25 25 0 20 5 25 25 25 20
0 25 -5 25 -25z m60 0 c0 -20 -5 -25 -25 -25 -18 0 -25 5 -25 18 0 24 8 32 32
32 13 0 18 -7 18 -25z m68 -2 c3 -19 -1 -23 -22 -23 -21 0 -26 5 -26 26 0 21
4 25 23 22 14 -2 23 -11 25 -25z m62 2 c0 -20 -5 -25 -25 -25 -20 0 -25 5 -25
25 0 20 5 25 25 25 20 0 25 -5 25 -25z m60 0 c0 -20 -5 -25 -25 -25 -20 0 -25
5 -25 25 0 20 5 25 25 25 20 0 25 -5 25 -25z m60 0 c0 -20 -5 -25 -25 -25 -18
0 -25 5 -25 18 0 24 8 32 32 32 13 0 18 -7 18 -25z m70 0 c0 -20 -5 -25 -25
-25 -20 0 -25 5 -25 25 0 20 5 25 25 25 20 0 25 -5 25 -25z m60 0 c0 -20 -5
-25 -25 -25 -20 0 -25 5 -25 25 0 20 5 25 25 25 20 0 25 -5 25 -25z m7540 -5
c0 -25 -4 -30 -25 -30 -21 0 -25 5 -25 30 0 25 4 30 25 30 21 0 25 -5 25 -30z
m70 0 c0 -25 -4 -30 -25 -30 -14 0 -28 7 -31 15 -10 25 4 45 31 45 21 0 25 -5
25 -30z m70 0 c0 -25 -4 -30 -25 -30 -27 0 -41 20 -31 45 3 8 17 15 31 15 21
0 25 -5 25 -30z m70 0 c0 -27 -3 -30 -30 -30 -27 0 -30 3 -30 30 0 27 3 30 30
30 27 0 30 -3 30 -30z m70 0 c0 -25 -4 -30 -25 -30 -14 0 -28 7 -31 15 -10 25
4 45 31 45 21 0 25 -5 25 -30z m70 0 c0 -25 -4 -30 -25 -30 -27 0 -41 20 -31
45 3 8 17 15 31 15 21 0 25 -5 25 -30z m-4752 -42 c-3 -60 -4 -63 -30 -66 -28
-3 -28 -3 -28 56 0 66 3 72 37 72 23 0 24 -2 21 -62z m-188 -13 c0 -63 -1 -65
-25 -65 -24 0 -25 3 -25 59 0 38 4 61 13 64 33 14 37 7 37 -58z m100 5 c0 -45
-4 -60 -14 -60 -8 0 -21 -3 -30 -6 -14 -5 -16 4 -16 60 l0 66 30 0 30 0 0 -60z
m-190 -15 c0 -63 -1 -65 -25 -65 -24 0 -25 2 -25 65 0 63 1 65 25 65 24 0 25
-2 25 -65z m-90 -5 c0 -33 -3 -60 -7 -60 -5 0 -18 -3 -30 -6 -22 -6 -23 -4
-23 60 l0 66 30 0 30 0 0 -60z m540 3 c0 -37 -3 -44 -17 -41 -12 2 -19 14 -21
37 -4 43 4 62 23 55 10 -4 15 -20 15 -51z m50 -4 c0 -66 -24 -62 -28 4 -2 37
0 47 12 47 12 0 16 -12 16 -51z m60 -4 c0 -38 -3 -45 -20 -45 -17 0 -20 7 -20
45 0 38 3 45 20 45 17 0 20 -7 20 -45z m52 0 c5 -41 0 -55 -18 -55 -10 0 -14
13 -14 50 0 38 3 48 14 44 8 -3 16 -20 18 -39z m58 -15 c0 -50 -11 -64 -27
-35 -13 23 -3 85 13 85 10 0 14 -14 14 -50z m5208 6 c-4 -29 -71 -31 -76 -2
-5 24 11 34 49 28 24 -4 29 -9 27 -26z m-9178 -1 c0 -20 -5 -25 -25 -25 -20 0
-25 5 -25 25 0 20 5 25 25 25 20 0 25 -5 25 -25z m60 -1 c0 -21 -4 -25 -22
-22 -15 2 -24 11 -26 26 -3 18 1 22 22 22 21 0 26 -5 26 -26z m68 4 c-2 -15
-11 -24 -25 -26 -19 -3 -23 1 -23 22 0 21 5 26 26 26 21 0 25 -4 22 -22z m62
-3 c0 -20 -5 -25 -25 -25 -20 0 -25 5 -25 25 0 20 5 25 25 25 20 0 25 -5 25
-25z m60 0 c0 -20 -5 -25 -25 -25 -20 0 -25 5 -25 25 0 20 5 25 25 25 20 0 25
-5 25 -25z m60 -1 c0 -21 -4 -25 -22 -22 -15 2 -24 11 -26 26 -3 18 1 22 22
22 21 0 26 -5 26 -26z m70 1 c0 -20 -5 -25 -25 -25 -20 0 -25 5 -25 25 0 20 5
25 25 25 20 0 25 -5 25 -25z m60 0 c0 -20 -5 -25 -25 -25 -20 0 -25 5 -25 25
0 20 5 25 25 25 20 0 25 -5 25 -25z m8278 3 c-2 -18 -11 -24 -35 -26 -30 -3
-33 -1 -33 22 0 23 4 26 36 26 31 0 35 -3 32 -22z m92 -3 c0 -22 -4 -25 -35
-25 -31 0 -35 3 -35 25 0 22 4 25 35 25 31 0 35 -3 35 -25z m90 -1 c0 -23 -3
-25 -32 -22 -25 2 -34 8 -36 26 -3 19 1 22 32 22 32 0 36 -3 36 -26z m90 1 c0
-22 -4 -25 -35 -25 -31 0 -35 3 -35 25 0 22 4 25 35 25 31 0 35 -3 35 -25z
m98 3 c-2 -19 -9 -23 -38 -23 -29 0 -36 4 -38 23 -3 20 1 22 38 22 37 0 41 -2
38 -22z m-7688 -3 c0 -13 -38 -15 -280 -15 -242 0 -280 2 -280 15 0 13 38 15
280 15 242 0 280 -2 280 -15z m6580 -31 c0 -19 -5 -24 -25 -24 -20 0 -25 5
-25 24 0 15 7 26 18 29 25 5 32 -1 32 -29z m68 3 c3 -24 0 -27 -27 -27 -26 0
-31 4 -31 23 0 30 5 34 32 32 17 -1 24 -9 26 -28z m70 0 c3 -24 0 -27 -27 -27
-26 0 -31 4 -31 23 0 30 5 34 32 32 17 -1 24 -9 26 -28z m140 1 c3 -25 0 -28
-27 -28 -26 0 -31 4 -31 23 0 30 9 39 35 35 13 -2 21 -12 23 -30z m72 -4 c0
-20 -5 -24 -30 -24 -25 0 -30 4 -30 23 0 31 5 35 35 29 18 -3 25 -11 25 -28z
m-8442 -312 c2 -291 0 -332 -13 -332 -13 0 -15 43 -15 336 0 264 3 335 13 332
9 -4 13 -82 15 -336z m8302 313 c0 -21 -5 -25 -30 -25 -25 0 -30 4 -30 25 0
21 5 25 30 25 25 0 30 -4 30 -25z m-5290 5 c0 -7 -183 -10 -529 -10 -343 0
-532 4 -536 10 -4 7 175 10 529 10 351 0 536 -3 536 -10z m2286 -97 c-14 -26
-113 -201 -219 -388 l-194 -340 -116 -3 c-65 -1 -117 0 -117 2 0 3 45 61 100
128 55 67 205 255 333 416 213 271 232 292 235 264 2 -18 -7 -50 -22 -79z
m385 -100 c85 -109 232 -294 327 -411 94 -117 172 -215 172 -218 0 -2 -52 -3
-117 -2 l-116 3 -218 385 c-163 286 -219 394 -219 418 0 18 4 31 8 28 5 -3 78
-94 163 -203z m-1826 127 c0 -33 -4 -45 -15 -45 -11 0 -16 13 -18 48 -3 42 -1
48 15 45 14 -3 18 -13 18 -48z m-3745 15 c0 -20 -5 -25 -25 -25 -20 0 -25 5
-25 25 0 20 5 25 25 25 20 0 25 -5 25 -25z m60 0 c0 -20 -5 -25 -25 -25 -20 0
-25 5 -25 25 0 20 5 25 25 25 20 0 25 -5 25 -25z m68 -2 c3 -19 -1 -23 -22
-23 -21 0 -26 5 -26 26 0 21 4 25 23 22 14 -2 23 -11 25 -25z m62 2 c0 -20 -5
-25 -25 -25 -20 0 -25 5 -25 25 0 20 5 25 25 25 20 0 25 -5 25 -25z m60 0 c0
-20 -5 -25 -25 -25 -20 0 -25 5 -25 25 0 20 5 25 25 25 20 0 25 -5 25 -25z
m60 0 c0 -20 -5 -25 -25 -25 -18 0 -25 5 -25 18 0 24 8 32 32 32 13 0 18 -7
18 -25z m70 0 c0 -20 -5 -25 -25 -25 -20 0 -25 5 -25 25 0 20 5 25 25 25 20 0
25 -5 25 -25z m60 0 c0 -20 -5 -25 -25 -25 -20 0 -25 5 -25 25 0 20 5 25 25
25 20 0 25 -5 25 -25z m3138 -37 c-3 -60 -4 -63 -30 -66 l-28 -3 0 65 0 66 30
0 31 0 -3 -62z m222 17 c0 -33 -4 -45 -15 -45 -11 0 -15 12 -15 45 0 33 4 45
15 45 11 0 15 -12 15 -45z m60 -12 c0 -37 -3 -44 -17 -41 -12 2 -19 14 -21 37
-4 43 4 62 23 55 10 -4 15 -20 15 -51z m-960 37 c0 -7 -185 -10 -535 -10 -350
0 -535 3 -535 10 0 7 185 10 535 10 350 0 535 -3 535 -10z m490 -55 c0 -63 -1
-65 -25 -65 -24 0 -25 3 -25 59 0 38 4 61 13 64 33 14 37 7 37 -58z m100 10
c0 -49 -3 -57 -22 -64 -34 -13 -38 -6 -38 60 0 59 0 59 30 59 30 0 30 -1 30
-55z m422 13 c5 -45 -3 -65 -21 -54 -17 11 -14 96 3 96 9 0 16 -15 18 -42z
m-612 -33 c0 -63 -1 -65 -25 -65 -24 0 -25 2 -25 65 0 63 1 65 25 65 24 0 25
-2 25 -65z m670 20 c0 -60 -26 -63 -32 -4 -4 43 -2 49 19 49 9 0 13 -14 13
-45z m4748 23 c-2 -18 -11 -24 -35 -26 -30 -3 -33 -1 -33 22 0 23 4 26 36 26
31 0 35 -3 32 -22z m92 -3 c0 -22 -4 -25 -35 -25 -31 0 -35 3 -35 25 0 22 4
25 35 25 31 0 35 -3 35 -25z m90 0 c0 -22 -4 -25 -35 -25 -31 0 -35 3 -35 25
0 22 4 25 35 25 31 0 35 -3 35 -25z m90 0 c0 -22 -4 -25 -35 -25 -31 0 -35 3
-35 25 0 22 4 25 35 25 31 0 35 -3 35 -25z m92 19 c3 -3 4 -14 1 -25 -4 -14
-14 -19 -39 -19 -30 0 -34 3 -34 25 0 22 4 25 33 25 19 0 36 -3 39 -6z m96
-16 c-2 -19 -9 -23 -38 -23 -29 0 -36 4 -38 23 -3 20 1 22 38 22 37 0 41 -2
38 -22z m-5968 -47 c0 -52 -3 -59 -22 -64 -33 -9 -38 -1 -38 64 0 59 0 59 30
59 30 0 30 0 30 -59z m-1810 29 c0 -20 -5 -20 -277 -18 -255 3 -278 4 -281 21
-3 16 15 17 277 17 275 0 281 0 281 -20z m1500 -10 c0 -11 -1059 -20 -1066 -9
-2 3 -1 9 3 13 11 11 1063 7 1063 -4z m5080 -20 c0 -25 -4 -30 -23 -30 -31 0
-35 5 -29 35 3 18 11 25 28 25 20 0 24 -5 24 -30z m70 0 c0 -25 -4 -30 -25
-30 -14 0 -28 7 -31 15 -10 25 4 45 31 45 21 0 25 -5 25 -30z m70 0 c0 -25 -4
-30 -25 -30 -27 0 -41 20 -31 45 3 8 17 15 31 15 21 0 25 -5 25 -30z m70 0 c0
-27 -3 -30 -30 -30 -27 0 -30 3 -30 30 0 27 3 30 30 30 27 0 30 -3 30 -30z
m70 0 c0 -25 -4 -30 -25 -30 -14 0 -28 7 -31 15 -10 25 4 45 31 45 21 0 25 -5
25 -30z m70 0 c0 -25 -4 -30 -25 -30 -27 0 -41 20 -31 45 3 8 17 15 31 15 21
0 25 -5 25 -30z m-8330 -20 c0 -23 -4 -30 -20 -30 -11 0 -23 7 -26 15 -9 23 3
45 26 45 16 0 20 -7 20 -30z m60 0 c0 -23 -4 -30 -20 -30 -11 0 -23 7 -26 15
-9 23 3 45 26 45 16 0 20 -7 20 -30z m65 0 c0 -18 -6 -26 -22 -28 -20 -3 -23
1 -23 28 0 27 3 31 23 28 16 -2 22 -10 22 -28z m63 3 c-2 -20 -9 -29 -25 -31
-20 -3 -23 1 -23 27 0 27 4 31 26 31 22 0 25 -4 22 -27z m62 -3 c0 -23 -4 -30
-20 -30 -23 0 -35 22 -26 45 3 8 15 15 26 15 16 0 20 -7 20 -30z m62 25 c3 -3
3 -17 0 -31 -3 -19 -10 -24 -26 -22 -19 3 -29 29 -19 51 5 8 37 10 45 2z m63
-25 c0 -18 -6 -26 -22 -28 -20 -3 -23 1 -23 28 0 27 3 31 23 28 16 -2 22 -10
22 -28z m60 0 c0 -18 -6 -26 -22 -28 -20 -3 -23 1 -23 28 0 27 3 31 23 28 16
-2 22 -10 22 -28z m3313 -48 c3 -37 1 -42 -17 -42 -18 0 -21 6 -21 46 0 38 3
45 18 42 12 -2 18 -15 20 -46z m52 -8 c0 -32 -4 -44 -15 -44 -11 0 -15 12 -15
50 0 40 3 48 15 44 10 -4 15 -20 15 -50z m-900 36 c0 -7 -183 -10 -529 -10
-343 0 -532 4 -536 10 -4 7 175 10 529 10 351 0 536 -3 536 -10z m958 -44 c3
-41 1 -47 -15 -44 -19 3 -30 55 -19 85 12 29 31 6 34 -41z m4862 29 c0 -22 -4
-25 -35 -25 -31 0 -35 3 -35 25 0 22 4 25 35 25 31 0 35 -3 35 -25z m90 0 c0
-22 -4 -25 -35 -25 -31 0 -35 3 -35 25 0 22 4 25 35 25 31 0 35 -3 35 -25z
m90 0 c0 -22 -4 -25 -35 -25 -31 0 -35 3 -35 25 0 22 4 25 35 25 31 0 35 -3
35 -25z m90 0 c0 -22 -4 -25 -35 -25 -31 0 -35 3 -35 25 0 22 4 25 35 25 31 0
35 -3 35 -25z m90 0 c0 -22 -4 -25 -35 -25 -31 0 -35 3 -35 25 0 22 4 25 35
25 31 0 35 -3 35 -25z m98 3 c-2 -19 -9 -23 -38 -23 -29 0 -36 4 -38 23 -3 20
1 22 38 22 37 0 41 -2 38 -22z m-5268 -38 c0 -40 -3 -48 -15 -44 -10 4 -15 20
-15 50 0 32 4 44 15 44 11 0 15 -12 15 -50z m60 -6 c0 -37 -3 -45 -16 -42 -25
5 -26 88 -1 88 14 0 17 -9 17 -46z m-2586 30 c9 -3 16 -12 16 -20 0 -12 -47
-14 -280 -14 -227 0 -280 3 -280 13 0 8 3 17 7 20 8 9 516 9 537 1z m2191 -69
c0 -58 -1 -60 -27 -63 l-28 -3 0 66 0 66 28 -3 c26 -3 27 -5 27 -63z m-3575
30 c0 -20 -5 -25 -25 -25 -20 0 -25 5 -25 25 0 20 5 25 25 25 20 0 25 -5 25
-25z m60 0 c0 -20 -5 -25 -25 -25 -20 0 -25 5 -25 25 0 20 5 25 25 25 20 0 25
-5 25 -25z m70 0 c0 -20 -5 -25 -25 -25 -20 0 -25 5 -25 25 0 20 5 25 25 25
20 0 25 -5 25 -25z m60 0 c0 -20 -5 -25 -25 -25 -20 0 -25 5 -25 25 0 20 5 25
25 25 20 0 25 -5 25 -25z m60 0 c0 -20 -5 -25 -25 -25 -20 0 -25 5 -25 25 0
20 5 25 25 25 20 0 25 -5 25 -25z m60 -1 c0 -21 -4 -25 -22 -22 -15 2 -24 11
-26 26 -3 18 1 22 22 22 21 0 26 -5 26 -26z m70 1 c0 -20 -5 -25 -25 -25 -20
0 -25 5 -25 25 0 20 5 25 25 25 20 0 25 -5 25 -25z m60 0 c0 -20 -5 -25 -25
-25 -20 0 -25 5 -25 25 0 20 5 25 25 25 20 0 25 -5 25 -25z m2460 15 c0 -7
-185 -10 -535 -10 -350 0 -535 3 -535 10 0 7 185 10 535 10 350 0 535 -3 535
-10z m490 -55 c0 -63 -1 -65 -25 -65 -24 0 -25 3 -25 59 0 59 3 64 43 70 4 0
7 -28 7 -64z m98 8 c-3 -55 -4 -58 -30 -61 -28 -3 -28 -3 -28 57 l0 61 30 0
31 0 -3 -57z m-190 -15 c-3 -57 -5 -63 -25 -66 -22 -3 -23 0 -23 62 0 64 1 66
25 66 25 0 26 -1 23 -62z m4682 37 c0 -27 -20 -41 -44 -32 -9 3 -12 15 -9 31
4 19 11 26 29 26 19 0 24 -5 24 -25z m68 -2 c-3 -28 -32 -43 -49 -26 -17 17 2
53 28 53 21 0 24 -4 21 -27z m70 0 c-2 -22 -8 -28 -28 -28 -20 0 -26 6 -28 28
-3 24 0 27 28 27 28 0 31 -3 28 -27z m70 0 c-2 -22 -8 -28 -28 -28 -20 0 -26
6 -28 28 -3 24 0 27 28 27 28 0 31 -3 28 -27z m70 0 c-2 -22 -8 -28 -28 -28
-20 0 -26 6 -28 28 -3 24 0 27 28 27 28 0 31 -3 28 -27z m70 0 c-2 -22 -8 -28
-28 -28 -20 0 -26 6 -28 28 -3 24 0 27 28 27 28 0 31 -3 28 -27z m-5118 -42
c0 -52 -3 -59 -22 -64 -33 -9 -38 -1 -38 64 0 59 0 59 30 59 30 0 30 0 30 -59z
m7810 49 c0 -6 -90 -10 -250 -10 -160 0 -250 4 -250 10 0 6 90 10 250 10 160
0 250 -4 250 -10z m-8120 -30 c0 -7 -185 -10 -536 -10 -354 0 -533 3 -529 10
4 6 193 10 536 10 346 0 529 -3 529 -10z m5820 -15 c0 -22 -4 -25 -35 -25 -31
0 -35 3 -35 25 0 22 4 25 35 25 31 0 35 -3 35 -25z m90 0 c0 -22 -4 -25 -35
-25 -31 0 -35 3 -35 25 0 22 4 25 35 25 31 0 35 -3 35 -25z m90 0 c0 -22 -4
-25 -35 -25 -31 0 -35 3 -35 25 0 22 4 25 35 25 31 0 35 -3 35 -25z m90 0 c0
-22 -4 -25 -35 -25 -31 0 -35 3 -35 25 0 22 4 25 35 25 31 0 35 -3 35 -25z
m95 0 c0 -16 -8 -21 -37 -23 -35 -3 -38 -1 -38 23 0 24 3 26 38 23 29 -2 37
-7 37 -23z m93 3 c-2 -19 -9 -23 -38 -23 -29 0 -36 4 -38 23 -3 20 1 22 38 22
37 0 41 -2 38 -22z m-5428 -33 c0 -38 -3 -45 -20 -45 -17 0 -20 7 -20 45 0 38
3 45 20 45 17 0 20 -7 20 -45z m48 -8 c2 -37 0 -47 -12 -47 -12 0 -16 12 -16
51 0 66 24 62 28 -4z m6782 28 c0 -14 -4 -25 -10 -25 -5 0 -10 11 -10 25 0 14
5 25 10 25 6 0 10 -11 10 -25z m50 0 c0 -16 -6 -25 -15 -25 -15 0 -21 31 -8
43 13 14 23 6 23 -18z m40 0 c0 -14 -4 -25 -10 -25 -5 0 -10 11 -10 25 0 14 5
25 10 25 6 0 10 -11 10 -25z m50 0 c0 -16 -6 -25 -15 -25 -9 0 -15 9 -15 25 0
16 6 25 15 25 9 0 15 -9 15 -25z m40 0 c0 -16 -6 -25 -15 -25 -15 0 -21 31 -8
43 13 14 23 6 23 -18z m40 0 c0 -14 -4 -25 -10 -25 -5 0 -10 11 -10 25 0 14 5
25 10 25 6 0 10 -11 10 -25z m50 0 c0 -16 -6 -25 -15 -25 -9 0 -15 9 -15 25 0
16 6 25 15 25 9 0 15 -9 15 -25z m40 0 c0 -16 -6 -25 -15 -25 -15 0 -21 31 -8
43 13 14 23 6 23 -18z m40 0 c0 -14 -4 -25 -10 -25 -5 0 -10 11 -10 25 0 14 5
25 10 25 6 0 10 -11 10 -25z m50 0 c0 -16 -6 -25 -15 -25 -9 0 -15 9 -15 25 0
16 6 25 15 25 9 0 15 -9 15 -25z m-12605 -10 c0 -11 -8 -21 -17 -23 -14 -3
-18 3 -18 23 0 20 4 26 18 23 9 -2 17 -12 17 -23z m60 0 c0 -11 -8 -21 -17
-23 -14 -3 -18 3 -18 23 0 20 4 26 18 23 9 -2 17 -12 17 -23z m55 0 c0 -16 -6
-25 -15 -25 -9 0 -15 9 -15 25 0 16 6 25 15 25 9 0 15 -9 15 -25z m5370 -18
c0 -48 -5 -58 -26 -50 -9 3 -14 21 -14 49 0 37 3 44 20 44 17 0 20 -7 20 -43z
m1755 -230 c80 -141 148 -264 152 -273 5 -13 -5 -15 -63 -12 l-69 3 -92 275
c-50 151 -92 277 -92 280 -3 17 35 -47 164 -273z m-5615 232 c0 -26 -3 -30
-22 -27 -17 2 -24 11 -26 31 -3 23 0 27 22 27 22 0 26 -4 26 -31z m60 0 c0
-26 -3 -30 -22 -27 -17 2 -24 11 -26 31 -3 23 0 27 22 27 22 0 26 -4 26 -31z
m65 2 c0 -17 -6 -25 -22 -27 -20 -3 -23 1 -23 27 0 26 3 30 23 27 16 -2 22
-10 22 -27z m63 2 c-2 -20 -9 -28 -23 -28 -14 0 -21 8 -23 28 -3 23 0 27 23
27 23 0 26 -4 23 -27z m60 0 c-2 -20 -9 -28 -23 -28 -14 0 -21 8 -23 28 -3 23
0 27 23 27 23 0 26 -4 23 -27z m62 -3 c0 -25 -3 -29 -22 -27 -38 6 -37 57 2
57 16 0 20 -7 20 -30z m65 1 c0 -18 -6 -25 -22 -26 -19 -1 -23 3 -23 27 0 25
4 29 23 26 16 -2 22 -10 22 -27z m63 2 c-2 -20 -9 -28 -23 -28 -14 0 -21 8
-23 28 -3 23 0 27 23 27 23 0 26 -4 23 -27z m3472 -18 c0 -33 -4 -45 -15 -45
-11 0 -15 12 -15 45 0 33 4 45 15 45 11 0 15 -12 15 -45z m60 -12 c0 -36 -3
-44 -17 -41 -12 2 -16 14 -15 46 1 55 0 52 17 46 10 -4 15 -20 15 -51z m1090
-223 l-87 -265 -66 -3 c-37 -2 -67 0 -67 3 0 6 253 459 287 513 8 13 16 22 17
20 2 -1 -36 -122 -84 -268z m-3660 240 c0 -20 -5 -20 -277 -18 -255 3 -278 4
-281 21 -3 16 15 17 277 17 275 0 281 0 281 -20z m1500 0 c0 -7 -183 -10 -529
-10 -343 0 -532 4 -536 10 -4 7 175 10 529 10 351 0 536 -3 536 -10z m5080
-30 c0 -25 -4 -30 -24 -30 -30 0 -37 9 -29 38 3 15 13 22 29 22 20 0 24 -5 24
-30z m70 0 c0 -25 -4 -30 -24 -30 -16 0 -27 7 -31 20 -9 27 1 40 31 40 20 0
24 -5 24 -30z m70 0 c0 -25 -4 -30 -25 -30 -27 0 -41 20 -31 45 3 8 17 15 31
15 21 0 25 -5 25 -30z m70 0 c0 -27 -3 -30 -30 -30 -25 0 -30 4 -30 23 0 30 7
37 37 37 19 0 23 -5 23 -30z m70 0 c0 -27 -3 -30 -30 -30 -25 0 -30 4 -30 23
0 30 7 37 37 37 19 0 23 -5 23 -30z m70 0 c0 -25 -4 -30 -25 -30 -27 0 -41 20
-31 45 3 8 17 15 31 15 21 0 25 -5 25 -30z m-9955 -25 c0 -11 -8 -21 -17 -23
-14 -3 -18 3 -18 23 0 20 4 26 18 23 9 -2 17 -12 17 -23z m57 19 c3 -3 4 -14
1 -25 -8 -28 -33 -24 -33 6 0 23 18 34 32 19z m58 -19 c0 -16 -6 -25 -15 -25
-9 0 -15 9 -15 25 0 16 6 25 15 25 9 0 15 -9 15 -25z m5088 -37 c-3 -60 -4
-63 -30 -66 l-28 -3 0 65 0 66 30 0 31 0 -3 -62z m5142 37 c0 -22 -4 -25 -35
-25 -31 0 -35 3 -35 25 0 22 4 25 35 25 31 0 35 -3 35 -25z m90 0 c0 -22 -4
-25 -35 -25 -31 0 -35 3 -35 25 0 22 4 25 35 25 31 0 35 -3 35 -25z m90 0 c0
-22 -4 -25 -35 -25 -31 0 -35 3 -35 25 0 22 4 25 35 25 31 0 35 -3 35 -25z
m90 0 c0 -22 -4 -25 -35 -25 -31 0 -35 3 -35 25 0 22 4 25 35 25 31 0 35 -3
35 -25z m90 0 c0 -22 -4 -25 -35 -25 -31 0 -35 3 -35 25 0 22 4 25 35 25 31 0
35 -3 35 -25z m100 0 c0 -22 -4 -25 -40 -25 -36 0 -40 3 -40 25 0 23 4 25 40
25 36 0 40 -2 40 -25z m-6280 5 c0 -7 -185 -10 -535 -10 -350 0 -535 3 -535
10 0 7 185 10 535 10 350 0 535 -3 535 -10z m490 -55 c0 -63 -1 -65 -25 -65
-24 0 -25 3 -25 59 0 59 3 64 43 70 4 0 7 -28 7 -64z m100 5 l0 -60 -30 0 -30
0 0 60 0 60 30 0 30 0 0 -60z m7090 35 c0 -14 -4 -25 -10 -25 -5 0 -10 11 -10
25 0 14 5 25 10 25 6 0 10 -11 10 -25z m50 -1 c0 -31 -22 -28 -27 4 -2 14 2
22 12 22 9 0 15 -10 15 -26z m40 1 c0 -14 -4 -25 -10 -25 -5 0 -10 11 -10 25
0 14 5 25 10 25 6 0 10 -11 10 -25z m50 0 c0 -16 -6 -25 -15 -25 -9 0 -15 9
-15 25 0 16 6 25 15 25 9 0 15 -9 15 -25z m40 -1 c0 -31 -23 -28 -28 4 -2 15
2 22 12 22 11 0 16 -9 16 -26z m40 1 c0 -14 -4 -25 -10 -25 -5 0 -10 11 -10
25 0 14 5 25 10 25 6 0 10 -11 10 -25z m50 0 c0 -16 -6 -25 -15 -25 -9 0 -15
9 -15 25 0 16 6 25 15 25 9 0 15 -9 15 -25z m40 -1 c0 -31 -23 -28 -28 4 -2
15 2 22 12 22 11 0 16 -9 16 -26z m40 1 c0 -14 -4 -25 -10 -25 -5 0 -10 11
-10 25 0 14 5 25 10 25 6 0 10 -11 10 -25z m48 3 c-5 -32 -28 -35 -28 -4 0 17
5 26 16 26 10 0 14 -7 12 -22z m-10978 -13 c0 -20 -5 -25 -25 -25 -20 0 -25 5
-25 25 0 20 5 25 25 25 20 0 25 -5 25 -25z m60 0 c0 -20 -5 -25 -25 -25 -20 0
-25 5 -25 25 0 20 5 25 25 25 20 0 25 -5 25 -25z m68 3 c-2 -15 -11 -24 -25
-26 -19 -3 -23 1 -23 22 0 21 5 26 26 26 21 0 25 -4 22 -22z m62 -3 c0 -20 -5
-25 -25 -25 -20 0 -25 5 -25 25 0 20 5 25 25 25 20 0 25 -5 25 -25z m60 0 c0
-20 -5 -25 -25 -25 -20 0 -25 5 -25 25 0 20 5 25 25 25 20 0 25 -5 25 -25z
m60 -1 c0 -21 -4 -25 -22 -22 -15 2 -24 11 -26 26 -3 18 1 22 22 22 21 0 26
-5 26 -26z m70 1 c0 -20 -5 -25 -25 -25 -20 0 -25 5 -25 25 0 20 5 25 25 25
20 0 25 -5 25 -25z m60 0 c0 -20 -5 -25 -25 -25 -20 0 -25 5 -25 25 0 20 5 25
25 25 20 0 25 -5 25 -25z m2858 -37 c-3 -57 -5 -63 -25 -66 -22 -3 -23 0 -23
62 0 64 1 66 25 66 25 0 26 -1 23 -62z m-88 -7 c0 -55 -2 -59 -25 -63 -13 -3
-27 -3 -30 0 -3 3 -5 32 -5 64 0 58 0 58 30 58 30 0 30 0 30 -59z m2164 -166
c36 -116 66 -214 66 -218 0 -4 -63 -7 -141 -7 -113 0 -140 3 -136 13 3 7 33
101 67 208 76 240 70 223 74 218 2 -2 34 -99 70 -214z m-3971 189 c3 -3 3 -12
0 -20 -8 -20 -563 -21 -563 -1 0 8 3 17 7 20 8 9 547 9 556 1z m-3023 -34 c0
-13 -7 -20 -20 -20 -13 0 -20 7 -20 20 0 13 7 20 20 20 13 0 20 -7 20 -20z
m50 0 c0 -11 -7 -20 -15 -20 -8 0 -15 9 -15 20 0 11 7 20 15 20 8 0 15 -9 15
-20z m60 0 c0 -11 -7 -20 -15 -20 -8 0 -15 9 -15 20 0 11 7 20 15 20 8 0 15
-9 15 -20z m9488 -17 c-2 -20 -9 -29 -24 -31 -17 -2 -22 3 -26 27 -4 29 -2 31
24 31 26 0 29 -3 26 -27z m72 4 c0 -30 -5 -35 -34 -30 -20 4 -26 23 -17 51 1
1 12 2 26 2 20 0 25 -5 25 -23z m68 -4 c-2 -22 -8 -28 -28 -28 -20 0 -26 6
-28 28 -3 24 0 27 28 27 28 0 31 -3 28 -27z m72 -4 c0 -27 -3 -30 -27 -27 -22
2 -29 9 -31 31 -3 24 0 27 27 27 28 0 31 -3 31 -31z m68 4 c-2 -22 -8 -28 -28
-28 -20 0 -26 6 -28 28 -3 24 0 27 28 27 28 0 31 -3 28 -27z m70 0 c-2 -22 -8
-28 -28 -28 -20 0 -26 6 -28 28 -3 24 0 27 28 27 28 0 31 -3 28 -27z m-8328
-8 c0 -20 -5 -25 -25 -25 -20 0 -25 5 -25 25 0 20 5 25 25 25 20 0 25 -5 25
-25z m60 0 c0 -20 -5 -25 -25 -25 -18 0 -25 5 -25 18 0 24 8 32 32 32 13 0 18
-7 18 -25z m70 0 c0 -20 -5 -25 -25 -25 -20 0 -25 5 -25 25 0 20 5 25 25 25
20 0 25 -5 25 -25z m60 0 c0 -20 -5 -25 -25 -25 -20 0 -25 5 -25 25 0 20 5 25
25 25 20 0 25 -5 25 -25z m60 0 c0 -20 -5 -25 -25 -25 -20 0 -25 5 -25 25 0
20 5 25 25 25 20 0 25 -5 25 -25z m60 0 c0 -20 -5 -25 -25 -25 -18 0 -25 5
-25 18 0 24 8 32 32 32 13 0 18 -7 18 -25z m70 0 c0 -20 -5 -25 -25 -25 -20 0
-25 5 -25 25 0 20 5 25 25 25 20 0 25 -5 25 -25z m60 0 c0 -20 -5 -25 -25 -25
-20 0 -25 5 -25 25 0 20 5 25 25 25 20 0 25 -5 25 -25z m8280 0 c0 -22 -4 -25
-35 -25 -31 0 -35 3 -35 25 0 22 4 25 35 25 31 0 35 -3 35 -25z m90 0 c0 -22
-4 -25 -35 -25 -31 0 -35 3 -35 25 0 22 4 25 35 25 31 0 35 -3 35 -25z m90 0
c0 -22 -4 -25 -35 -25 -31 0 -35 3 -35 25 0 22 4 25 35 25 31 0 35 -3 35 -25z
m90 0 c0 -22 -4 -25 -35 -25 -31 0 -35 3 -35 25 0 22 4 25 35 25 31 0 35 -3
35 -25z m93 6 c6 -26 0 -31 -40 -31 -29 0 -33 3 -33 25 0 22 4 25 34 25 25 0
35 -5 39 -19z m97 -6 c0 -22 -4 -25 -40 -25 -36 0 -40 3 -40 25 0 23 4 25 40
25 36 0 40 -2 40 -25z m1400 -6 c0 -17 -4 -28 -10 -24 -5 3 -10 17 -10 31 0
13 5 24 10 24 6 0 10 -14 10 -31z m50 7 c0 -14 -5 -28 -10 -31 -13 -8 -24 20
-16 40 9 24 26 17 26 -9z m40 0 c0 -14 -4 -28 -10 -31 -6 -4 -10 7 -10 24 0
17 5 31 10 31 6 0 10 -11 10 -24z m45 -4 c0 -31 -19 -28 -23 4 -3 18 0 25 10
22 7 -3 13 -14 13 -26z m45 4 c0 -14 -5 -28 -10 -31 -13 -8 -24 20 -16 40 9
24 26 17 26 -9z m40 -1 c0 -14 -4 -25 -10 -25 -5 0 -10 11 -10 25 0 14 5 25
10 25 6 0 10 -11 10 -25z m45 -3 c0 -31 -19 -28 -23 4 -3 18 0 25 10 22 7 -3
13 -14 13 -26z m45 4 c0 -14 -5 -28 -10 -31 -13 -8 -24 20 -16 40 9 24 26 17
26 -9z m40 -7 c0 -17 -4 -28 -10 -24 -5 3 -10 17 -10 31 0 13 5 24 10 24 6 0
10 -14 10 -31z m50 1 c0 -10 -5 -22 -10 -25 -13 -8 -24 20 -16 41 8 20 26 9
26 -16z m-12602 -48 c3 -17 -2 -22 -17 -22 -14 0 -21 6 -21 18 0 38 33 41 38
4z m54 22 c3 -3 4 -14 1 -25 -8 -28 -33 -24 -33 6 0 23 18 34 32 19z m58 -19
c0 -16 -6 -25 -15 -25 -9 0 -15 9 -15 25 0 16 6 25 15 25 9 0 15 -9 15 -25z
m5088 -47 c-3 -60 -4 -63 -30 -66 l-28 -3 0 65 0 66 30 0 31 0 -3 -62z m-188
-13 c0 -63 -1 -65 -25 -65 -24 0 -25 3 -25 59 0 38 4 61 13 64 33 14 37 7 37
-58z m100 5 l0 -60 -30 0 -30 0 0 60 0 60 30 0 30 0 0 -60z m-2092 33 c-3 -17
-24 -18 -278 -18 -254 0 -275 1 -278 18 -3 16 15 17 278 17 263 0 281 -1 278
-17z m1902 -48 c0 -63 -1 -65 -25 -65 -24 0 -25 2 -25 65 0 63 1 65 25 65 24
0 25 -2 25 -65z m-5590 -11 c0 -51 -1 -54 -25 -54 -24 0 -25 3 -25 53 0 61 3
67 31 60 16 -4 19 -14 19 -59z m2290 41 c0 -20 -5 -25 -25 -25 -20 0 -25 5
-25 25 0 20 5 25 25 25 20 0 25 -5 25 -25z m60 0 c0 -20 -5 -25 -25 -25 -20 0
-25 5 -25 25 0 20 5 25 25 25 20 0 25 -5 25 -25z m68 3 c-2 -15 -11 -24 -25
-26 -19 -3 -23 1 -23 22 0 21 5 26 26 26 21 0 25 -4 22 -22z m62 -3 c0 -20 -5
-25 -25 -25 -20 0 -25 5 -25 25 0 20 5 25 25 25 20 0 25 -5 25 -25z m60 0 c0
-20 -5 -25 -25 -25 -20 0 -25 5 -25 25 0 20 5 25 25 25 20 0 25 -5 25 -25z
m60 -1 c0 -21 -4 -25 -22 -22 -15 2 -24 11 -26 26 -3 18 1 22 22 22 21 0 26
-5 26 -26z m70 1 c0 -20 -5 -25 -25 -25 -20 0 -25 5 -25 25 0 20 5 25 25 25
20 0 25 -5 25 -25z m60 0 c0 -20 -5 -25 -25 -25 -20 0 -25 5 -25 25 0 20 5 25
25 25 20 0 25 -5 25 -25z m2770 -34 c0 -55 -2 -59 -25 -63 -13 -3 -27 -3 -30
0 -3 3 -5 32 -5 64 0 58 0 58 30 58 30 0 30 0 30 -59z m-5910 -6 c0 -53 -1
-55 -26 -55 -22 0 -25 3 -20 23 3 12 6 37 6 55 0 25 4 32 20 32 18 0 20 -7 20
-55z m80 0 c0 -48 -2 -55 -20 -55 -18 0 -20 7 -20 55 0 48 2 55 20 55 18 0 20
-7 20 -55z m80 0 c0 -48 -2 -55 -20 -55 -18 0 -20 7 -20 55 0 48 2 55 20 55
18 0 20 -7 20 -55z m90 0 c0 -52 -1 -55 -25 -55 -24 0 -25 3 -25 55 0 52 1 55
25 55 24 0 25 -3 25 -55z m80 0 c0 -52 -1 -55 -25 -55 -24 0 -25 3 -25 55 0
52 1 55 25 55 24 0 25 -3 25 -55z m160 0 c0 -48 -2 -55 -20 -55 -18 0 -20 7
-20 55 0 48 2 55 20 55 18 0 20 -7 20 -55z m10190 25 c0 -25 -4 -30 -24 -30
-17 0 -25 7 -28 25 -6 30 -2 35 29 35 19 0 23 -5 23 -30z m70 0 c0 -25 -4 -30
-25 -30 -14 0 -28 7 -31 15 -10 25 4 45 31 45 21 0 25 -5 25 -30z m70 0 c0
-25 -4 -30 -25 -30 -27 0 -41 20 -31 45 3 8 17 15 31 15 21 0 25 -5 25 -30z
m70 0 c0 -27 -3 -30 -30 -30 -27 0 -30 3 -30 30 0 27 3 30 30 30 27 0 30 -3
30 -30z m70 0 c0 -27 -3 -30 -30 -30 -25 0 -30 4 -30 23 0 30 7 37 37 37 19 0
23 -5 23 -30z m70 0 c0 -25 -4 -30 -25 -30 -27 0 -41 20 -31 45 3 8 17 15 31
15 21 0 25 -5 25 -30z m390 5 c0 -22 -4 -25 -35 -25 -31 0 -35 3 -35 25 0 22
4 25 35 25 31 0 35 -3 35 -25z m90 0 c0 -22 -4 -25 -35 -25 -31 0 -35 3 -35
25 0 22 4 25 35 25 31 0 35 -3 35 -25z m90 0 c0 -22 -4 -25 -35 -25 -31 0 -35
3 -35 25 0 22 4 25 35 25 31 0 35 -3 35 -25z m90 0 c0 -22 -4 -25 -35 -25 -31
0 -35 3 -35 25 0 22 4 25 35 25 31 0 35 -3 35 -25z m92 19 c3 -3 4 -14 1 -25
-4 -14 -14 -19 -39 -19 -30 0 -34 3 -34 25 0 22 4 25 33 25 19 0 36 -3 39 -6z
m96 -21 c3 -21 -1 -23 -37 -23 -33 0 -41 4 -41 18 0 27 10 33 45 30 22 -2 31
-9 33 -25z m1685 20 c-51 -2 -136 -2 -190 0 -54 1 -12 3 92 3 105 0 149 -2 98
-3z m-12488 -48 c0 -11 -8 -21 -17 -23 -14 -3 -18 3 -18 23 0 20 4 26 18 23 9
-2 17 -12 17 -23z m58 6 c5 -22 0 -31 -20 -31 -7 0 -13 11 -13 25 0 30 25 34
33 6z m57 -6 c0 -16 -6 -25 -15 -25 -9 0 -15 9 -15 25 0 16 6 25 15 25 9 0 15
-9 15 -25z m-1542 -58 c3 -42 1 -47 -17 -47 -18 0 -21 6 -21 43 0 24 3 47 7
51 16 15 28 -3 31 -47z m68 29 c10 -41 1 -71 -21 -71 -22 0 -31 30 -21 71 8
31 34 31 42 0z m70 0 c10 -41 1 -71 -21 -71 -22 0 -31 30 -21 71 8 31 34 31
42 0z m912 -29 c3 -42 1 -47 -17 -47 -18 0 -21 6 -21 43 0 24 3 47 7 51 16 15
28 -3 31 -47z m70 0 c3 -42 1 -47 -17 -47 -18 0 -21 6 -21 43 0 24 3 47 7 51
16 15 28 -3 31 -47z m67 2 c0 -34 -4 -44 -17 -47 -15 -3 -18 4 -18 41 0 24 3
47 7 51 16 16 28 -4 28 -45z m1865 16 c0 -20 -5 -25 -25 -25 -20 0 -25 5 -25
25 0 20 5 25 25 25 20 0 25 -5 25 -25z m60 0 c0 -20 -5 -25 -25 -25 -20 0 -25
5 -25 25 0 20 5 25 25 25 20 0 25 -5 25 -25z m70 0 c0 -20 -5 -25 -25 -25 -20
0 -25 5 -25 25 0 20 5 25 25 25 20 0 25 -5 25 -25z m60 0 c0 -20 -5 -25 -25
-25 -20 0 -25 5 -25 25 0 20 5 25 25 25 20 0 25 -5 25 -25z m60 0 c0 -20 -5
-25 -25 -25 -20 0 -25 5 -25 25 0 20 5 25 25 25 20 0 25 -5 25 -25z m60 0 c0
-20 -5 -25 -25 -25 -18 0 -25 5 -25 18 0 24 8 32 32 32 13 0 18 -7 18 -25z
m70 0 c0 -20 -5 -25 -25 -25 -20 0 -25 5 -25 25 0 20 5 25 25 25 20 0 25 -5
25 -25z m60 0 c0 -20 -5 -25 -25 -25 -20 0 -25 5 -25 25 0 20 5 25 25 25 20 0
25 -5 25 -25z m10520 -160 l0 -185 -190 0 -190 0 0 185 0 185 190 0 190 0 0
-185z m-9560 145 c0 -20 -7 -20 -274 -20 -173 0 -277 4 -281 10 -16 27 16 30
281 30 267 0 274 0 274 -20z m7320 -15 c0 -22 -4 -25 -35 -25 -31 0 -35 3 -35
25 0 22 4 25 35 25 31 0 35 -3 35 -25z m90 0 c0 -22 -4 -25 -35 -25 -31 0 -35
3 -35 25 0 22 4 25 35 25 31 0 35 -3 35 -25z m90 0 c0 -22 -4 -25 -35 -25 -31
0 -35 3 -35 25 0 22 4 25 35 25 31 0 35 -3 35 -25z m90 0 c0 -22 -4 -25 -35
-25 -31 0 -35 3 -35 25 0 22 4 25 35 25 31 0 35 -3 35 -25z m92 19 c3 -3 4
-14 1 -25 -4 -14 -14 -19 -39 -19 -30 0 -34 3 -34 25 0 22 4 25 33 25 19 0 36
-3 39 -6z m96 -21 c3 -21 -1 -23 -37 -23 -33 0 -41 4 -41 18 0 27 10 33 45 30
22 -2 31 -9 33 -25z m-10800 -5 c-2 -13 -10 -23 -18 -23 -8 0 -16 10 -18 23
-3 17 2 22 18 22 16 0 21 -5 18 -22z m57 -3 c0 -11 -8 -21 -17 -23 -14 -3 -18
3 -18 23 0 20 4 26 18 23 9 -2 17 -12 17 -23z m55 0 c0 -16 -6 -25 -15 -25 -9
0 -15 9 -15 25 0 16 6 25 15 25 9 0 15 -9 15 -25z m5088 -47 c-3 -60 -4 -63
-30 -66 l-28 -3 0 65 0 66 30 0 31 0 -3 -62z m4402 32 c0 -25 -4 -30 -25 -30
-21 0 -25 5 -25 30 0 25 4 30 25 30 21 0 25 -5 25 -30z m70 -1 c0 -27 -3 -30
-27 -27 -22 2 -29 9 -31 31 -3 24 0 27 27 27 28 0 31 -3 31 -31z m70 0 c0 -27
-3 -30 -27 -27 -22 2 -29 9 -31 31 -3 24 0 27 27 27 28 0 31 -3 31 -31z m70 0
c0 -27 -3 -30 -27 -27 -22 2 -29 9 -31 31 -3 24 0 27 27 27 28 0 31 -3 31 -31z
m70 0 c0 -27 -3 -30 -27 -27 -22 2 -29 9 -31 31 -3 24 0 27 27 27 28 0 31 -3
31 -31z m70 0 c0 -27 -3 -30 -27 -27 -22 2 -29 9 -31 31 -3 24 0 27 27 27 28
0 31 -3 31 -31z m2968 -4 c0 -32 -3 -35 -29 -35 -26 0 -29 3 -29 35 0 32 3 35
29 35 26 0 29 -3 29 -35z m102 0 c0 -32 -2 -35 -30 -35 -26 0 -30 3 -28 28 2
38 6 42 34 42 21 0 24 -5 24 -35z m110 0 c0 -32 -2 -35 -30 -35 -28 0 -30 3
-30 35 0 32 2 35 30 35 28 0 30 -3 30 -35z m107 -2 c3 -30 0 -33 -27 -33 -28
0 -30 3 -30 36 0 33 2 35 27 32 23 -2 28 -8 30 -35z m108 0 c2 -29 0 -33 -24
-34 -25 -1 -25 -1 -3 -7 34 -10 32 -27 -5 -30 l-32 -3 3 53 c4 65 1 60 32 56
22 -2 27 -9 29 -35z m105 2 c0 -32 -2 -35 -30 -35 -28 0 -30 3 -30 35 0 32 2
35 30 35 28 0 30 -3 30 -35z m110 0 c0 -32 -2 -35 -30 -35 -28 0 -30 3 -30 35
0 32 2 35 30 35 28 0 30 -3 30 -35z m106 -2 c1 -29 -1 -33 -25 -34 -25 -1 -25
-1 -3 -7 34 -10 32 -27 -5 -30 l-32 -3 3 53 c4 65 1 60 33 56 23 -3 28 -8 29
-35z m104 2 c0 -32 -2 -35 -30 -35 -28 0 -30 3 -30 35 0 32 2 35 30 35 28 0
30 -3 30 -35z m108 0 c0 -32 -3 -35 -29 -35 -26 0 -29 3 -29 35 0 32 3 35 29
35 26 0 29 -3 29 -35z m108 -3 c2 -30 0 -32 -32 -32 -31 0 -34 3 -32 28 2 38
4 39 35 37 24 -1 28 -6 29 -33z m-14688 21 c-87 -2 -229 -2 -315 0 -87 1 -16
3 157 3 173 0 244 -2 158 -3z m5712 -58 c0 -63 -1 -65 -25 -65 -24 0 -25 3
-25 59 0 38 4 61 13 64 33 14 37 7 37 -58z m98 8 c-3 -55 -4 -58 -30 -61 -28
-3 -28 -3 -28 57 l0 61 30 0 31 0 -3 -57z m-188 -18 c0 -63 -1 -65 -25 -65
-24 0 -25 2 -25 65 0 63 1 65 25 65 24 0 25 -2 25 -65z m-3300 25 c0 -25 -4
-30 -25 -30 -20 0 -25 5 -25 23 0 28 7 37 32 37 13 0 18 -8 18 -30z m60 0 c0
-23 -4 -30 -20 -30 -11 0 -23 7 -26 15 -9 23 3 45 26 45 16 0 20 -7 20 -30z
m65 0 c0 -18 -6 -26 -22 -28 -20 -3 -23 1 -23 28 0 27 3 31 23 28 16 -2 22
-10 22 -28z m63 -2 c3 -24 0 -28 -22 -28 -22 0 -26 4 -26 31 0 26 3 30 23 27
16 -2 23 -11 25 -30z m62 2 c0 -25 -4 -30 -25 -30 -20 0 -25 5 -25 23 0 28 7
37 32 37 13 0 18 -8 18 -30z m60 0 c0 -23 -4 -30 -20 -30 -23 0 -35 22 -26 45
3 8 15 15 26 15 16 0 20 -7 20 -30z m68 -3 c3 -23 0 -27 -22 -27 -21 0 -26 5
-26 24 0 43 43 46 48 3z m60 0 c3 -23 0 -27 -22 -27 -21 0 -26 5 -26 23 0 13
3 27 7 31 15 14 38 0 41 -27z m2772 -26 c0 -55 -2 -59 -25 -63 -13 -3 -27 -3
-30 0 -3 3 -5 32 -5 64 0 58 0 58 30 58 30 0 30 0 30 -59z m-5902 -18 l3 -53
-30 0 c-30 0 -31 1 -31 48 0 55 5 64 35 60 17 -3 20 -11 23 -55z m80 0 l3 -53
-30 0 c-30 0 -31 1 -31 48 0 55 5 64 35 60 17 -3 20 -11 23 -55z m76 48 c4 -5
9 -30 12 -55 l7 -46 -37 0 -36 0 0 48 c0 27 3 52 7 55 9 10 41 8 47 -2z m86
-10 c5 -11 10 -36 10 -55 0 -34 -2 -36 -35 -36 -34 0 -35 1 -35 39 0 22 3 46
6 55 8 22 41 20 54 -3z m84 3 c3 -9 6 -33 6 -55 0 -38 -1 -39 -35 -39 -34 0
-35 1 -35 39 0 54 8 71 35 71 13 0 26 -7 29 -16z m80 0 c3 -9 6 -33 6 -55 0
-38 -1 -39 -35 -39 -34 0 -35 1 -35 39 0 54 8 71 35 71 13 0 26 -7 29 -16z
m80 0 c3 -9 6 -33 6 -55 0 -38 -1 -39 -35 -39 -35 0 -35 1 -35 43 0 24 5 48
12 55 17 17 45 15 52 -4z m582 -26 c-1 -13 -6 -22 -9 -20 -4 1 -11 2 -17 2 -5
0 -10 9 -10 20 0 13 7 20 20 20 15 0 19 -6 16 -22z m54 2 c0 -11 -7 -20 -15
-20 -8 0 -15 9 -15 20 0 11 7 20 15 20 8 0 15 -9 15 -20z m60 0 c0 -11 -7 -20
-15 -20 -8 0 -15 9 -15 20 0 11 7 20 15 20 8 0 15 -9 15 -20z m10230 -15 c0
-22 -4 -25 -35 -25 -31 0 -35 3 -35 25 0 22 4 25 35 25 31 0 35 -3 35 -25z
m90 0 c0 -22 -4 -25 -35 -25 -31 0 -35 3 -35 25 0 22 4 25 35 25 31 0 35 -3
35 -25z m90 0 c0 -22 -4 -25 -35 -25 -31 0 -35 3 -35 25 0 22 4 25 35 25 31 0
35 -3 35 -25z m90 0 c0 -22 -4 -25 -35 -25 -31 0 -35 3 -35 25 0 22 4 25 35
25 31 0 35 -3 35 -25z m90 0 c0 -22 -4 -25 -35 -25 -31 0 -35 3 -35 25 0 22 4
25 35 25 31 0 35 -3 35 -25z m98 -2 c3 -21 -1 -23 -37 -23 -33 0 -41 4 -41 18
0 27 10 33 45 30 22 -2 31 -9 33 -25z m2122 12 c0 -10 -10 -15 -30 -15 -20 0
-30 5 -30 15 0 10 10 15 30 15 20 0 30 -5 30 -15z m100 0 c0 -10 -10 -15 -30
-15 -20 0 -30 5 -30 15 0 10 10 15 30 15 20 0 30 -5 30 -15z m110 0 c0 -10
-10 -15 -30 -15 -20 0 -30 5 -30 15 0 10 10 15 30 15 20 0 30 -5 30 -15z m110
0 c0 -10 -10 -15 -30 -15 -20 0 -30 5 -30 15 0 10 10 15 30 15 20 0 30 -5 30
-15z m210 0 c0 -10 -10 -15 -30 -15 -20 0 -30 5 -30 15 0 10 10 15 30 15 20 0
30 -5 30 -15z m110 0 c0 -10 -10 -15 -30 -15 -20 0 -30 5 -30 15 0 10 10 15
30 15 20 0 30 -5 30 -15z m210 0 c0 -10 -10 -15 -30 -15 -20 0 -30 5 -30 15 0
10 10 15 30 15 20 0 30 -5 30 -15z m110 0 c0 -10 -10 -15 -30 -15 -20 0 -30 5
-30 15 0 10 10 15 30 15 20 0 30 -5 30 -15z m108 3 c-3 -7 -17 -13 -33 -13
-16 0 -30 6 -32 13 -3 8 7 12 32 12 25 0 35 -4 33 -12z m-10968 -13 c0 -13
-38 -15 -280 -15 -242 0 -280 2 -280 15 0 13 38 15 280 15 242 0 280 -2 280
-15z m-4450 -50 c0 -38 -3 -45 -20 -45 -17 0 -20 7 -20 45 0 38 3 45 20 45 17
0 20 -7 20 -45z m70 0 c0 -41 -2 -45 -25 -45 -23 0 -25 4 -25 45 0 41 2 45 25
45 23 0 25 -4 25 -45z m70 0 c0 -41 -2 -45 -25 -45 -23 0 -25 4 -25 45 0 41 2
45 25 45 23 0 25 -4 25 -45z m910 0 c0 -38 -3 -45 -20 -45 -17 0 -20 7 -20 45
0 38 3 45 20 45 17 0 20 -7 20 -45z m70 0 c0 -38 -3 -45 -20 -45 -17 0 -20 7
-20 45 0 38 3 45 20 45 17 0 20 -7 20 -45z m70 0 c0 -38 -3 -45 -20 -45 -17 0
-20 7 -20 45 0 38 3 45 20 45 17 0 20 -7 20 -45z m1860 10 c0 -20 -5 -25 -25
-25 -20 0 -25 5 -25 25 0 20 5 25 25 25 20 0 25 -5 25 -25z m60 0 c0 -20 -5
-25 -25 -25 -20 0 -25 5 -25 25 0 20 5 25 25 25 20 0 25 -5 25 -25z m70 0 c0
-20 -5 -25 -25 -25 -20 0 -25 5 -25 25 0 20 5 25 25 25 20 0 25 -5 25 -25z
m60 0 c0 -20 -5 -25 -25 -25 -20 0 -25 5 -25 25 0 20 5 25 25 25 20 0 25 -5
25 -25z m60 0 c0 -20 -5 -25 -25 -25 -20 0 -25 5 -25 25 0 20 5 25 25 25 20 0
25 -5 25 -25z m62 19 c3 -3 4 -14 1 -25 -7 -26 -53 -27 -53 -1 0 10 3 22 7 25
8 8 38 9 45 1z m68 -19 c0 -20 -5 -25 -25 -25 -20 0 -25 5 -25 25 0 20 5 25
25 25 20 0 25 -5 25 -25z m60 0 c0 -20 -5 -25 -25 -25 -20 0 -25 5 -25 25 0
20 5 25 25 25 20 0 25 -5 25 -25z m11399 -11 c30 -25 31 -28 31 -110 0 -49 -4
-84 -10 -84 -6 0 -10 35 -10 85 0 79 -2 86 -24 100 -23 15 -27 15 -50 0 -25
-16 -26 -22 -26 -101 0 -49 -4 -84 -10 -84 -6 0 -10 34 -10 83 0 80 0 83 32
109 18 15 36 28 40 28 3 0 20 -12 37 -26z m-99 -4 c0 -6 -98 -10 -275 -10
-177 0 -275 4 -275 10 0 6 98 10 275 10 177 0 275 -4 275 -10z m675 0 c-4 -6
-107 -10 -276 -10 -173 0 -269 4 -269 10 0 6 99 10 276 10 181 0 273 -3 269
-10z m-8835 -60 c0 -33 -3 -60 -7 -60 -5 0 -18 -3 -30 -6 -22 -6 -23 -4 -23
60 l0 66 30 0 30 0 0 -60z m-190 -15 c0 -63 -1 -65 -25 -65 -24 0 -25 3 -25
59 0 38 4 61 13 64 33 14 37 7 37 -58z m98 8 c-3 -55 -4 -58 -30 -61 -28 -3
-28 -3 -28 57 l0 61 30 0 31 0 -3 -57z m-190 -15 c-3 -57 -5 -63 -25 -66 -22
-3 -23 0 -23 62 0 64 1 66 25 66 25 0 26 -1 23 -62z m5422 39 c0 -31 -4 -34
-40 -29 -24 3 -30 9 -30 28 0 21 5 24 35 24 30 0 35 -3 35 -23z m90 -1 c0 -19
-6 -25 -30 -28 -36 -5 -40 -2 -40 29 0 20 5 23 35 23 30 0 35 -3 35 -24z m90
-1 c0 -22 -4 -25 -35 -25 -31 0 -35 3 -35 25 0 22 4 25 35 25 31 0 35 -3 35
-25z m90 1 c0 -19 -6 -25 -30 -28 -36 -5 -40 -2 -40 29 0 20 5 23 35 23 30 0
35 -3 35 -24z m92 19 c3 -3 3 -16 1 -28 -4 -19 -10 -22 -39 -19 -28 3 -34 8
-34 28 0 21 5 24 33 24 19 0 36 -2 39 -5z m93 -25 c0 -21 -5 -25 -33 -26 -35
-1 -49 14 -38 42 4 10 16 14 38 12 28 -2 33 -7 33 -28z m-5965 -39 c0 -52 -3
-59 -22 -64 -33 -9 -38 -1 -38 64 0 59 0 59 30 59 30 0 30 0 30 -59z m-3210
18 c0 -26 -3 -30 -22 -27 -17 2 -24 11 -26 31 -3 23 0 27 22 27 22 0 26 -4 26
-31z m60 1 c0 -23 -4 -30 -20 -30 -11 0 -23 7 -26 15 -9 23 3 45 26 45 16 0
20 -7 20 -30z m65 0 c0 -18 -6 -26 -22 -28 -20 -3 -23 1 -23 28 0 27 3 31 23
28 16 -2 22 -10 22 -28z m63 3 c-2 -20 -9 -29 -25 -31 -20 -3 -23 1 -23 27 0
27 4 31 26 31 22 0 25 -4 22 -27z m62 -4 c0 -26 -3 -30 -22 -27 -17 2 -24 11
-26 31 -3 23 0 27 22 27 22 0 26 -4 26 -31z m63 5 c5 -27 -11 -41 -38 -30 -15
5 -21 37 -8 49 16 16 41 6 46 -19z m62 -4 c0 -18 -6 -26 -22 -28 -20 -3 -23 1
-23 28 0 27 3 31 23 28 16 -2 22 -10 22 -28z m63 3 c-2 -20 -9 -29 -25 -31
-20 -3 -23 1 -23 27 0 27 4 31 26 31 22 0 25 -4 22 -27z m962 7 c0 -20 -5 -20
-277 -18 -255 3 -278 4 -281 21 -3 16 15 17 277 17 275 0 281 0 281 -20z
m9899 -36 c-2 -52 -2 -54 -30 -54 -28 0 -29 1 -29 53 0 51 1 52 30 53 30 2 30
1 29 -52z m101 19 c0 -30 -3 -33 -30 -33 -26 0 -30 3 -28 28 2 38 6 42 33 40
21 -2 25 -8 25 -35z m110 -18 c0 -54 0 -55 -30 -55 -39 0 -42 29 -2 31 l27 2
-27 4 c-24 4 -28 9 -28 39 0 31 2 34 30 34 30 0 30 -1 30 -55z m107 17 c2 -29
0 -32 -25 -33 l-27 -2 28 -4 c38 -6 36 -33 -3 -33 -30 0 -30 1 -30 55 0 55 0
56 27 52 23 -3 28 -9 30 -35z m103 1 c0 -27 -4 -33 -22 -34 l-23 -2 23 -4 c33
-7 28 -33 -7 -33 -29 0 -30 0 -27 53 2 28 4 52 5 53 0 0 12 0 26 0 22 0 25 -4
25 -33z m219 -20 c-2 -51 -2 -53 -30 -53 -28 0 -29 1 -29 54 0 54 0 55 30 54
29 -1 30 -2 29 -55z m106 1 c-1 -48 -1 -49 -32 -52 l-32 -3 3 53 c2 29 4 53 5
54 0 0 13 0 29 -1 26 -1 27 -3 27 -51z m105 21 c0 -32 -2 -35 -30 -35 -28 0
-30 3 -30 35 0 32 2 35 30 35 28 0 30 -3 30 -35z m110 0 c0 -31 -3 -35 -27
-36 l-28 -2 28 -4 c38 -6 36 -33 -3 -33 -30 0 -30 1 -30 53 0 51 1 53 30 55
28 2 30 0 30 -33z m106 -3 c1 -23 -3 -32 -15 -33 -13 -1 -13 -2 2 -6 28 -7 14
-28 -19 -28 -28 0 -29 2 -30 45 -2 56 -1 57 33 55 24 -1 28 -6 29 -33z m-7416
20 c0 -5 -7 -30 -16 -55 l-16 -47 -446 2 -446 3 -4 38 c-7 72 -41 67 468 67
253 0 460 -4 460 -8z m127 -19 c-14 -68 -25 -83 -62 -83 -40 0 -40 1 -19 63
15 44 18 47 51 47 33 0 35 -2 30 -27z m397 -20 c9 -26 16 -50 16 -55 0 -9
-363 -11 -372 -2 -3 3 1 27 10 55 l16 49 157 0 157 0 16 -47z m135 6 c7 -23
15 -47 18 -55 4 -11 -5 -14 -35 -14 -39 0 -41 1 -56 47 -22 63 -21 63 22 63
37 0 40 -2 51 -41z m1059 -11 l-3 -53 -488 -3 -487 -2 -11 27 c-6 16 -13 40
-16 56 l-5 27 506 0 507 0 -3 -52z m-9643 22 l-140 -6 138 -2 c83 -1 137 -6
137 -12 0 -6 -53 -10 -139 -10 -83 0 -142 4 -146 10 -15 25 12 30 148 28 l142
-2 -140 -6z m1145 -10 c0 -19 -7 -20 -145 -20 -90 0 -145 4 -145 10 0 6 56 11
143 12 l142 2 -145 6 -145 6 148 2 c141 2 147 1 147 -18z m610 -18 c11 -24 22
-32 43 -32 20 0 27 5 27 19 0 11 7 27 16 35 20 21 49 6 58 -29 5 -19 13 -25
35 -25 23 0 30 5 34 29 8 39 37 49 59 21 10 -12 18 -28 18 -36 0 -9 11 -14 30
-14 23 0 30 5 30 19 0 11 7 27 16 35 20 21 49 6 58 -29 5 -19 13 -25 35 -25
23 0 30 5 34 29 8 39 37 49 59 21 10 -12 18 -28 18 -36 0 -9 11 -14 29 -14 23
0 30 5 34 29 8 39 37 49 59 21 10 -12 18 -28 18 -36 0 -9 11 -14 29 -14 23 0
30 5 34 29 15 73 77 34 77 -48 l0 -47 -462 0 c-456 1 -463 1 -461 21 1 11 -4
23 -10 28 -9 6 -9 10 1 14 6 2 12 13 12 23 0 22 28 52 44 47 6 -1 18 -17 26
-35z m12620 -27 c0 -10 -10 -15 -30 -15 -20 0 -30 5 -30 15 0 10 10 15 30 15
20 0 30 -5 30 -15z m750 0 c0 -10 -10 -15 -30 -15 -20 0 -30 5 -30 15 0 10 10
15 30 15 20 0 30 -5 30 -15z m-14350 -5 c0 -6 -98 -10 -275 -10 -177 0 -275 4
-275 10 0 6 98 10 275 10 177 0 275 -4 275 -10z m-107 -37 c-89 -2 -237 -2
-330 0 -92 1 -19 3 162 3 182 0 257 -2 168 -3z"/>
<path d="M15348 1133 c7 -3 16 -2 19 1 4 3 -2 6 -13 5 -11 0 -14 -3 -6 -6z"/>
<path d="M2130 1080 c0 -5 14 -10 30 -10 17 0 30 5 30 10 0 6 -13 10 -30 10
-16 0 -30 -4 -30 -10z"/>
<path d="M2270 1080 c0 -5 14 -10 30 -10 17 0 30 5 30 10 0 6 -13 10 -30 10
-16 0 -30 -4 -30 -10z"/>
<path d="M2410 1080 c0 -5 14 -10 30 -10 17 0 30 5 30 10 0 6 -13 10 -30 10
-16 0 -30 -4 -30 -10z"/>
<path d="M2550 1080 c0 -5 14 -10 30 -10 17 0 30 5 30 10 0 6 -13 10 -30 10
-16 0 -30 -4 -30 -10z"/>
<path d="M2690 1080 c0 -5 14 -10 30 -10 17 0 30 5 30 10 0 6 -13 10 -30 10
-16 0 -30 -4 -30 -10z"/>
<path d="M2830 1080 c0 -5 14 -10 30 -10 17 0 30 5 30 10 0 6 -13 10 -30 10
-16 0 -30 -4 -30 -10z"/>
<path d="M3462 2864 l-2 -90 -42 -45 c-24 -25 -78 -88 -121 -141 -71 -88 -77
-99 -65 -117 12 -20 21 -21 309 -21 l297 0 6 25 c6 22 -9 45 -101 155 -59 72
-111 130 -115 130 -4 0 -9 44 -9 98 -1 82 -3 90 -10 52 -4 -25 -8 -69 -8 -97
l-1 -53 -65 0 -64 0 -4 98 -3 97 -2 -91z"/>
<path d="M1733 2697 c-48 -164 -65 -236 -59 -246 4 -5 -3 -15 -14 -21 -42 -22
-18 -30 94 -30 108 0 152 10 106 25 -14 5 -20 14 -18 28 1 12 -3 36 -9 52 -7
17 -21 68 -32 115 -11 47 -26 99 -33 117 l-14 32 -21 -72z m7 -187 c0 -5 -4
-10 -10 -10 -5 0 -10 5 -10 10 0 6 5 10 10 10 6 0 10 -4 10 -10z m25 0 c3 -5
1 -10 -4 -10 -6 0 -11 5 -11 10 0 6 2 10 4 10 3 0 8 -4 11 -10z m-35 -65 c0
-8 -4 -15 -9 -15 -13 0 -22 16 -14 24 11 11 23 6 23 -9z m40 0 c0 -8 -7 -15
-15 -15 -8 0 -15 7 -15 15 0 8 7 15 15 15 8 0 15 -7 15 -15z m40 0 c0 -8 -7
-15 -15 -15 -8 0 -15 7 -15 15 0 8 7 15 15 15 8 0 15 -7 15 -15z"/>
<path d="M2501 2418 c-1 -26 -24 -58 -41 -58 -5 0 -18 -12 -27 -27 -13 -20
-19 -55 -23 -130 l-5 -103 110 0 c63 0 104 4 97 9 -10 6 -13 32 -11 97 3 97
-4 120 -48 154 -16 12 -33 36 -40 53 -11 32 -11 32 -12 5z m37 -125 c-15 -2
-42 -2 -60 0 -18 2 -6 4 27 4 33 0 48 -2 33 -4z m-68 -89 c0 -24 -5 -34 -15
-34 -10 0 -15 10 -15 33 0 19 3 37 6 40 13 13 24 -5 24 -39z m58 2 c3 -34 1
-37 -20 -34 -27 4 -37 41 -17 64 19 23 34 11 37 -30z m42 -2 c0 -24 -5 -34
-15 -34 -15 0 -20 35 -9 64 10 25 24 8 24 -30z"/>
<path d="M1650 2270 c0 -68 -4 -121 -10 -125 -5 -3 -10 -28 -10 -56 l0 -49
128 0 127 0 0 47 c0 27 -6 54 -13 62 -10 10 -12 44 -10 127 l3 113 -107 0
-108 0 0 -119z m134 64 c21 -21 20 -37 -3 -58 -15 -14 -24 -15 -39 -7 -28 15
-33 35 -16 60 18 25 37 27 58 5z m-64 -224 c0 -13 -7 -20 -20 -20 -13 0 -20 7
-20 20 0 13 7 20 20 20 13 0 20 -7 20 -20z m48 -2 c-2 -13 -7 -23 -13 -23 -5
0 -11 10 -13 23 -2 15 2 22 13 22 11 0 15 -7 13 -22z m62 -4 c0 -31 -23 -28
-28 4 -2 15 2 22 12 22 11 0 16 -9 16 -26z"/>
<path d="M14055 2111 c-3 -5 -1 -12 4 -16 6 -3 2 -14 -10 -26 -33 -33 -9 -51
65 -47 55 3 61 5 64 26 2 15 -3 25 -19 30 -15 6 -18 11 -11 16 7 4 12 11 12
17 0 12 -97 12 -105 0z"/>
<path d="M2410 2030 c0 -54 -2 -58 -27 -68 -16 -6 -113 -43 -218 -82 -104 -39
-192 -73 -194 -76 -2 -2 238 -4 534 -4 296 0 536 3 532 6 -3 3 -99 41 -214 84
l-208 77 -5 59 -5 59 -97 2 -98 1 0 -58z m118 6 c3 -34 1 -37 -20 -34 -27 4
-37 41 -17 64 19 23 34 11 37 -30z m67 -105 c39 -17 105 -81 105 -101 0 -21
-26 -8 -54 26 -16 20 -44 42 -62 50 -77 32 -180 6 -224 -56 -23 -32 -40 -39
-40 -16 0 24 48 73 93 95 52 26 128 27 182 2z m-317 -79 c4 -28 -24 -40 -45
-19 -14 13 -14 19 -3 32 18 22 44 15 48 -13z m296 7 c14 -11 26 -25 26 -30 0
-5 -44 -9 -97 -9 l-97 0 29 30 c36 38 97 42 139 9z m214 -7 c4 -28 -24 -40
-45 -19 -14 13 -14 19 -3 32 18 22 44 15 48 -13z"/>
<path d="M2240 1850 c0 -5 7 -10 15 -10 8 0 15 5 15 10 0 6 -7 10 -15 10 -8 0
-15 -4 -15 -10z"/>
<path d="M2750 1850 c0 -5 7 -10 16 -10 8 0 12 5 9 10 -3 6 -10 10 -16 10 -5
0 -9 -4 -9 -10z"/>
<path d="M15134 2051 c3 -5 -1 -14 -9 -21 -8 -7 -15 -19 -15 -26 0 -8 -6 -14
-13 -14 -8 0 -11 -14 -9 -45 3 -35 1 -45 -11 -45 -9 0 -18 6 -21 13 -3 6 -3
-32 0 -85 6 -107 -2 -141 -22 -93 -11 25 -13 27 -14 8 0 -12 -3 -28 -6 -37 -5
-14 10 -16 125 -16 l132 0 -7 38 c-8 46 -14 54 -14 19 0 -30 -15 -44 -24 -21
-9 22 -7 79 2 106 4 13 5 39 1 58 -3 19 -7 29 -8 23 0 -7 -8 -13 -17 -13 -12
0 -14 9 -12 42 2 33 -2 48 -19 67 -13 13 -23 30 -23 37 0 8 -5 14 -11 14 -5 0
-8 -4 -5 -9z m24 -173 c7 -7 12 -29 12 -51 0 -36 -2 -38 -27 -35 -22 2 -29 9
-31 30 -3 27 12 68 26 68 5 0 13 -5 20 -12z"/>
<path d="M849 2013 c-8 -9 -12 -27 -11 -40 3 -17 -5 -32 -25 -49 -15 -13 -31
-24 -35 -24 -4 0 -17 -18 -28 -40 -11 -22 -18 -40 -14 -40 3 0 34 16 69 35
l63 36 58 -35 c32 -20 60 -34 62 -32 8 9 -29 64 -62 93 -25 21 -36 39 -36 57
0 15 -6 34 -14 41 -12 12 -16 12 -27 -2z"/>
<path d="M1625 1940 l0 -90 135 0 135 0 -3 90 -3 90 -132 0 -132 0 0 -90z m90
-6 c0 -48 -3 -59 -17 -62 -16 -3 -18 5 -18 56 0 32 3 62 7 66 17 17 28 -5 28
-60z m55 11 c0 -30 0 -58 1 -62 0 -5 -7 -9 -15 -11 -13 -3 -16 7 -16 56 0 32
3 62 7 65 16 17 23 3 23 -48z m60 -10 c0 -51 -3 -65 -15 -65 -12 0 -15 14 -15
65 0 51 3 65 15 65 12 0 15 -14 15 -65z"/>
<path d="M753 1814 l-103 -56 0 -44 0 -44 215 0 215 0 0 44 c0 46 -14 61 -47
50 -14 -5 -15 -4 -5 4 10 7 -8 21 -71 56 -47 25 -89 46 -94 46 -4 -1 -54 -26
-110 -56z m-15 -51 c-10 -2 -26 -2 -35 0 -10 3 -2 5 17 5 19 0 27 -2 18 -5z
m80 0 c-10 -2 -26 -2 -35 0 -10 3 -2 5 17 5 19 0 27 -2 18 -5z m119 1 c-3 -3
-12 -4 -19 -1 -8 3 -5 6 6 6 11 1 17 -2 13 -5z m-182 -49 c0 -20 -6 -31 -17
-33 -15 -3 -18 4 -18 33 0 29 3 36 18 33 11 -2 17 -13 17 -33z m65 0 c0 -28
-4 -35 -20 -35 -16 0 -20 7 -20 35 0 28 4 35 20 35 16 0 20 -7 20 -35z m60 -1
c0 -28 -3 -35 -17 -32 -31 6 -29 68 2 68 11 0 15 -10 15 -36z m65 1 c0 -20 -6
-31 -17 -33 -15 -3 -18 4 -18 33 0 29 3 36 18 33 11 -2 17 -13 17 -33z m65 0
c0 -28 -4 -35 -20 -35 -16 0 -20 7 -20 35 0 28 4 35 20 35 16 0 20 -7 20 -35z"/>
<path d="M732 1715 c0 -16 2 -22 5 -12 2 9 2 23 0 30 -3 6 -5 -1 -5 -18z"/>
<path d="M790 1715 c0 -8 5 -15 10 -15 6 0 10 7 10 15 0 8 -4 15 -10 15 -5 0
-10 -7 -10 -15z"/>
<path d="M862 1715 c0 -16 2 -22 5 -12 2 9 2 23 0 30 -3 6 -5 -1 -5 -18z"/>
<path d="M922 1715 c0 -16 2 -22 5 -12 2 9 2 23 0 30 -3 6 -5 -1 -5 -18z"/>
<path d="M980 1715 c0 -8 5 -15 10 -15 6 0 10 7 10 15 0 8 -4 15 -10 15 -5 0
-10 -7 -10 -15z"/>
<path d="M1986 1744 c-3 -26 -6 -93 -6 -150 l0 -104 525 0 525 0 0 113 c0 61
-3 129 -6 150 l-7 37 -512 0 -512 0 -7 -46z m146 -74 c8 -12 24 -20 40 -20 17
0 31 8 38 20 6 11 19 20 30 20 11 0 24 -9 30 -20 7 -12 21 -20 38 -20 16 0 32
8 40 20 7 11 19 20 27 20 8 0 20 -9 27 -20 7 -11 24 -20 38 -20 14 0 31 9 38
20 7 11 19 20 27 20 8 0 20 -9 27 -20 9 -13 24 -20 44 -20 23 0 33 5 37 20 3
12 14 20 26 20 11 0 25 -9 31 -20 7 -12 21 -20 38 -20 16 0 32 8 40 20 7 11
19 20 27 20 8 0 20 -9 27 -20 8 -12 24 -20 40 -20 17 0 31 8 38 20 6 11 17 20
25 20 8 0 20 -9 27 -20 7 -11 18 -20 25 -20 7 0 13 -4 13 -10 0 -5 -4 -10 -10
-10 -18 0 -11 -30 8 -31 16 -1 16 -2 0 -6 -10 -2 -18 -11 -18 -19 0 -10 -12
-14 -40 -14 -29 0 -40 4 -40 15 0 10 -10 15 -30 15 -20 0 -30 -5 -30 -15 0
-10 -11 -15 -35 -15 -24 0 -35 5 -35 15 0 10 -10 15 -30 15 -20 0 -30 -5 -30
-15 0 -11 -11 -15 -40 -15 -29 0 -40 4 -40 15 0 10 -10 15 -30 15 -20 0 -30
-5 -30 -15 0 -10 -11 -15 -35 -15 -24 0 -35 5 -35 15 0 10 -10 15 -30 15 -20
0 -30 -5 -30 -15 0 -10 -11 -15 -35 -15 -24 0 -35 5 -35 15 0 10 -10 15 -30
15 -20 0 -30 -5 -30 -15 0 -11 -11 -15 -40 -15 -29 0 -40 4 -40 15 0 10 -10
15 -30 15 -20 0 -30 -5 -30 -15 0 -10 -11 -15 -35 -15 -24 0 -35 5 -35 15 0 8
-8 16 -17 16 -17 1 -17 2 0 6 25 6 21 31 -5 36 -22 3 -22 4 -3 12 11 5 26 17
33 27 17 24 39 23 54 -2z"/>
<path d="M2142 1618 c7 -20 58 -23 58 -4 0 11 -10 16 -31 16 -20 0 -29 -4 -27
-12z"/>
<path d="M2280 1614 c0 -11 8 -14 27 -12 39 4 42 28 4 28 -21 0 -31 -5 -31
-16z"/>
<path d="M2410 1615 c0 -10 10 -15 30 -15 20 0 30 5 30 15 0 10 -10 15 -30 15
-20 0 -30 -5 -30 -15z"/>
<path d="M2542 1618 c7 -20 58 -23 58 -4 0 11 -10 16 -31 16 -20 0 -29 -4 -27
-12z"/>
<path d="M2680 1614 c0 -11 8 -14 27 -12 39 4 42 28 4 28 -21 0 -31 -5 -31
-16z"/>
<path d="M2810 1615 c0 -10 10 -15 30 -15 20 0 30 5 30 15 0 10 -10 15 -30 15
-20 0 -30 -5 -30 -15z"/>
<path d="M15008 1668 c15 -15 16 -128 1 -128 -7 0 -10 17 -7 45 l3 45 -228 0
c-220 0 -229 1 -234 20 -3 11 -14 20 -24 20 -17 0 -19 -9 -19 -112 l0 -113
643 0 642 0 0 110 c0 106 -1 110 -22 113 -18 3 -23 -2 -23 -17 0 -21 -4 -21
-230 -21 l-230 0 0 -45 c0 -25 -4 -45 -10 -45 -13 0 -13 81 0 114 l10 26 -142
0 c-110 0 -139 -3 -130 -12z m-348 -93 c8 -9 9 -15 2 -15 -6 0 -14 5 -17 10
-5 8 -12 7 -23 -2 -15 -12 -16 -11 -3 5 17 21 25 21 41 2z m250 0 c8 -9 9 -15
2 -15 -6 0 -14 5 -17 10 -5 8 -12 7 -23 -2 -15 -12 -16 -11 -3 5 17 21 25 21
41 2z m251 -2 c13 -16 12 -17 -3 -5 -11 9 -18 10 -23 2 -3 -5 -11 -10 -17 -10
-7 0 -6 6 2 15 16 19 24 19 41 -2z m250 0 c13 -16 12 -17 -3 -5 -11 9 -18 10
-23 2 -3 -5 -11 -10 -17 -10 -7 0 -6 6 2 15 16 19 24 19 41 -2z m265 -11 c-4
-3 -12 0 -18 6 -8 8 -15 9 -25 1 -9 -8 -13 -8 -13 -1 0 6 6 12 13 15 15 5 51
-12 43 -21z m-1016 -42 c0 -25 -4 -30 -25 -30 -21 0 -25 5 -25 30 0 25 4 30
25 30 21 0 25 -5 25 -30z m250 0 c0 -23 -4 -30 -20 -30 -16 0 -20 7 -20 30 0
23 4 30 20 30 16 0 20 -7 20 -30z m250 0 c0 -23 -4 -30 -20 -30 -16 0 -20 7
-20 30 0 23 4 30 20 30 16 0 20 -7 20 -30z m260 0 c0 -25 -4 -30 -25 -30 -21
0 -25 5 -25 30 0 25 4 30 25 30 21 0 25 -5 25 -30z m250 0 c0 -25 -4 -30 -25
-30 -21 0 -25 5 -25 30 0 25 4 30 25 30 21 0 25 -5 25 -30z"/>
<path d="M1974 1454 c3 -9 6 -60 6 -115 l0 -99 525 0 525 0 0 99 c0 55 3 106
6 115 6 14 -45 16 -531 16 -486 0 -537 -2 -531 -16z m161 -52 c13 -30 52 -29
77 3 25 32 34 31 56 -2 21 -34 62 -34 77 0 14 32 43 33 56 3 17 -36 61 -36 78
0 14 31 42 29 56 -4 14 -31 54 -29 82 6 l23 27 24 -27 c31 -34 67 -37 81 -6
14 33 42 35 56 4 17 -36 61 -36 78 0 14 31 41 29 58 -6 7 -14 19 -24 28 -22 8
2 15 -2 15 -8 0 -5 -7 -10 -15 -10 -24 0 -17 -30 8 -31 20 -1 20 -2 2 -6 -11
-3 -23 -10 -27 -16 -11 -18 -67 -20 -74 -3 -7 19 -64 22 -64 4 0 -16 -62 -16
-68 0 -5 16 -59 15 -64 0 -6 -17 -68 -19 -75 -2 -7 19 -63 18 -63 -1 0 -11 -8
-13 -32 -8 -18 3 -34 10 -36 15 -5 11 -62 10 -62 -1 0 -5 -16 -11 -35 -13 -24
-3 -35 0 -35 9 0 17 -57 17 -62 1 -6 -17 -68 -19 -75 -2 -7 19 -59 18 -67 -1
-8 -21 -49 -19 -69 5 -9 11 -12 20 -7 20 18 0 10 30 -7 30 -16 1 -16 2 -2 13
9 7 21 22 28 35 15 28 42 25 56 -6z"/>
<path d="M2142 1348 c7 -20 58 -23 58 -4 0 11 -10 16 -31 16 -20 0 -29 -4 -27
-12z"/>
<path d="M2280 1344 c0 -11 8 -14 27 -12 39 4 42 28 4 28 -21 0 -31 -5 -31
-16z"/>
<path d="M2410 1345 c0 -10 10 -15 30 -15 20 0 30 5 30 15 0 10 -10 15 -30 15
-20 0 -30 -5 -30 -15z"/>
<path d="M2542 1348 c7 -20 58 -23 58 -4 0 11 -10 16 -31 16 -20 0 -29 -4 -27
-12z"/>
<path d="M2680 1344 c0 -11 8 -14 27 -12 39 4 42 28 4 28 -21 0 -31 -5 -31
-16z"/>
<path d="M2810 1345 c0 -10 10 -15 30 -15 20 0 30 5 30 15 0 10 -10 15 -30 15
-20 0 -30 -5 -30 -15z"/>
<path d="M5976 674 c-66 -21 -136 -92 -166 -170 -30 -78 -33 -224 -7 -301 27
-78 77 -137 144 -170 50 -24 69 -28 138 -27 95 1 154 23 208 79 127 131 126
397 -3 526 -75 75 -196 99 -314 63z m209 -53 c48 -21 90 -69 118 -130 15 -34
20 -68 20 -135 0 -109 -13 -161 -56 -217 -47 -62 -96 -84 -187 -84 -89 0 -127
18 -177 83 -43 56 -56 108 -57 217 0 100 21 165 72 219 61 64 182 86 267 47z"/>
<path d="M7260 681 c-97 -32 -130 -71 -130 -157 0 -52 4 -67 25 -92 30 -36 85
-63 190 -92 112 -31 154 -54 171 -95 42 -102 -21 -182 -150 -192 -86 -7 -146
19 -175 76 -12 22 -21 49 -21 59 0 25 -25 46 -46 38 -14 -5 -15 -15 -10 -53
12 -89 72 -146 175 -165 110 -21 232 18 277 88 28 41 30 116 5 166 -28 58 -70
84 -191 119 -157 46 -191 70 -193 143 -2 78 63 121 176 114 63 -3 72 -7 99
-36 16 -18 31 -47 35 -63 7 -36 38 -56 59 -39 31 26 -19 127 -79 161 -44 24
-168 36 -217 20z"/>
<path d="M9669 675 c-67 -21 -130 -82 -165 -157 -26 -57 -28 -73 -28 -168 1
-164 46 -255 155 -315 47 -26 64 -30 134 -29 44 0 98 6 119 13 53 18 122 84
154 146 22 43 27 65 30 162 5 130 -9 185 -64 257 -50 66 -119 98 -214 103 -47
2 -92 -3 -121 -12z m208 -56 c52 -25 97 -78 118 -138 18 -53 20 -213 3 -262
-56 -165 -255 -224 -378 -113 -61 55 -84 120 -84 239 -1 88 2 107 25 156 15
31 37 66 50 79 64 61 184 79 266 39z"/>
<path d="M10835 668 c-3 -13 -4 -164 -3 -337 3 -288 4 -315 21 -325 14 -8 20
-8 27 4 6 9 10 132 10 290 0 230 2 272 13 260 8 -8 56 -85 107 -170 242 -401
265 -430 290 -364 12 31 13 634 1 652 -5 8 -17 12 -27 10 -18 -3 -19 -19 -24
-288 -5 -269 -6 -284 -21 -260 -10 14 -83 135 -164 270 -81 135 -154 253 -163
263 -22 25 -60 22 -67 -5z"/>
<path d="M4638 673 c-15 -2 -37 -16 -48 -31 -20 -25 -21 -36 -18 -305 l3 -279
24 -19 c21 -17 41 -19 178 -19 167 0 186 5 235 57 72 76 63 194 -20 263 l-36
30 23 21 c51 48 64 125 32 195 -31 67 -64 81 -216 87 -71 2 -142 3 -157 0z
m278 -62 c51 -33 68 -105 39 -161 -26 -50 -59 -60 -200 -60 l-125 0 0 104 c0
141 -2 139 149 134 76 -2 123 -8 137 -17z m10 -287 c80 -38 99 -153 36 -217
-35 -35 -85 -45 -217 -46 -115 -1 -115 -1 -115 153 l0 126 131 0 c100 0 139
-4 165 -16z"/>
<path d="M8280 650 c0 -19 7 -20 105 -20 l105 0 0 -304 c0 -256 2 -305 15
-316 8 -7 22 -10 30 -6 13 5 15 48 15 315 l0 310 102 3 c89 3 103 5 106 21 3
16 -13 17 -237 17 -234 0 -241 -1 -241 -20z"/>
</g>
</svg>
