<svg xmlns="http://www.w3.org/2000/svg" width="184" height="184" viewBox="0 0 184 184" version="1.1"><path d="M 0.667 0.667 L -0 1.333 0.013 16.417 L 0.027 31.500 5.263 25.943 L 10.500 20.385 13.063 17.443 L 15.627 14.500 23.563 7.287 L 31.500 0.075 16.417 0.037 L 1.333 0 0.667 0.667 M 157.022 4.705 L 162.500 9.463 169.750 16.752 L 176.999 24.041 179.632 28.021 L 182.266 32 183.158 32 L 184.051 32 183.775 16.250 L 183.500 0.500 167.522 0.223 L 151.544 -0.053 157.022 4.705 M 75.408 12.484 L 69.316 13.810 62.458 16.554 L 55.600 19.297 49.676 22.769 L 43.752 26.241 36.355 33.267 L 28.958 40.294 24.519 46.971 L 20.080 53.648 16.964 61.430 L 13.848 69.213 12.323 76.356 L 10.798 83.500 11.317 95.500 L 11.836 107.500 14.032 114.500 L 16.228 121.500 19.623 128.379 L 23.019 135.258 26.497 139.996 L 29.976 144.735 36.903 151.270 L 43.831 157.805 49.715 161.254 L 55.600 164.703 62.415 167.429 L 69.230 170.156 76.365 171.674 L 83.500 173.192 95.500 172.738 L 107.500 172.284 117 169.091 L 126.500 165.898 133.500 161.800 L 140.500 157.702 149.500 148.601 L 158.500 139.500 162.336 132.500 L 166.172 125.500 169.315 116.500 L 172.458 107.500 172.458 92 L 172.458 76.500 169.214 67.149 L 165.971 57.799 161.825 50.649 L 157.680 43.500 149.090 34.912 L 140.500 26.325 134.450 22.811 L 128.400 19.297 121.593 16.574 L 114.786 13.851 108.143 12.443 L 101.500 11.035 91.500 11.097 L 81.500 11.159 75.408 12.484 M 76.362 30.981 L 69.224 32.853 64.362 35.320 L 59.500 37.786 53.443 42.249 L 47.387 46.711 42.553 53.106 L 37.720 59.500 34.882 65.457 L 32.044 71.413 30.393 78.837 L 28.741 86.261 29.270 95.381 L 29.798 104.500 31.873 111 L 33.947 117.500 37.724 123.983 L 41.500 130.466 48.222 137.157 L 54.943 143.847 62.935 147.847 L 70.926 151.847 78.594 153.553 L 86.261 155.259 95.381 154.730 L 104.500 154.202 111 152.127 L 117.500 150.053 123.930 146.276 L 130.360 142.500 136.957 135.938 L 143.554 129.377 147.305 122.239 L 151.056 115.101 153.028 107.391 L 155 99.680 155 92 L 155 84.320 152.997 76.487 L 150.993 68.654 147.418 62.149 L 143.842 55.644 140.225 51.229 L 136.607 46.815 131.054 42.547 L 125.500 38.279 120.154 35.574 L 114.808 32.869 107.244 30.935 L 99.680 29 91.590 29.055 L 83.500 29.110 76.362 30.981 M 88.667 33.667 L 88 34.333 88 35.667 L 88 37 91.250 37.017 L 94.500 37.035 101.500 38.504 L 108.500 39.974 116 43.646 L 123.500 47.318 131.114 54.909 L 138.728 62.500 141.875 68.743 L 145.022 74.986 146.511 80.703 L 148 86.420 148.147 95.460 L 148.294 104.500 148.975 98.500 L 149.657 92.500 148.879 85.934 L 148.101 79.367 146.449 74.434 L 144.797 69.500 141.652 63.549 L 138.507 57.598 132.004 51.035 L 125.500 44.471 118.300 40.708 L 111.101 36.944 103.391 34.972 L 95.680 33 92.507 33 L 89.333 33 88.667 33.667 M 79.813 46.470 L 75.126 47.761 70.313 50.066 L 65.500 52.372 58.992 58.936 L 52.485 65.500 50.129 70.336 L 47.773 75.173 46.399 80.336 L 45.024 85.500 45.024 92 L 45.024 98.500 46.420 103.744 L 47.816 108.988 50.094 113.744 L 52.372 118.500 58.936 125.076 L 65.500 131.652 71.112 134.290 L 76.724 136.928 81.112 137.939 L 85.500 138.951 92 138.964 L 98.500 138.976 103.664 137.601 L 108.827 136.227 113.664 133.871 L 118.500 131.515 125.008 125.008 L 131.515 118.500 133.871 113.664 L 136.227 108.827 137.601 103.664 L 138.976 98.500 138.964 92 L 138.951 85.500 137.940 81.115 L 136.929 76.729 134.215 71.162 L 131.500 65.594 126.292 59.959 L 121.084 54.323 114.924 51.040 L 108.763 47.757 103.632 46.390 L 98.500 45.024 91.500 45.101 L 84.500 45.179 79.813 46.470 M 82.250 48.706 L 80 49.139 80 50.129 L 80 51.118 79.059 50.536 L 78.118 49.955 74.059 51.713 L 70 53.472 70 54.705 L 70 55.937 68.631 55.412 L 67.263 54.887 61.881 59.918 L 56.500 64.949 58 66.016 L 59.500 67.083 57.500 66.792 L 55.500 66.500 55.817 68.350 L 56.134 70.201 55.181 69.612 L 54.227 69.022 53.598 70.761 L 52.968 72.500 51.513 75 L 50.059 77.500 51.082 77.851 L 52.106 78.202 50.343 79.491 L 48.580 80.780 48.596 91.140 L 48.612 101.500 50.291 106.242 L 51.971 110.983 54.235 114.479 L 56.500 117.975 57.719 117.988 L 58.937 118 58.362 119.500 L 57.786 121 59.393 121 L 61 121 60.750 122.250 L 60.500 123.500 61.750 123.250 L 63 123 63 124.607 L 63 126.214 64.500 125.638 L 66 125.063 66 126.103 L 66 127.143 67.289 128.321 L 68.577 129.500 70.801 130.766 L 73.024 132.032 77.762 133.710 L 82.500 135.388 92.860 135.404 L 103.220 135.420 104.610 133.519 L 106 131.618 106 132.757 L 106 133.896 109 132.850 L 112 131.804 112 130.902 L 112 130 113.250 130.250 L 114.500 130.500 114.234 129.203 L 113.968 127.905 115.734 128.203 L 117.500 128.500 117.208 126.500 L 116.917 124.500 117.984 126 L 119.051 127.500 124.082 122.119 L 129.113 116.737 128.588 115.369 L 128.063 114 129.295 114 L 130.528 114 132.287 109.941 L 134.045 105.882 133.516 105.026 L 132.988 104.171 134.189 103.770 L 135.391 103.370 135.807 93.867 L 136.223 84.365 134.671 82.814 L 133.119 81.262 133.637 79.280 L 134.155 77.298 132.514 75.657 L 130.872 74.015 131.418 73.133 L 131.964 72.250 128.801 67.875 L 125.638 63.500 123.069 60.931 L 120.500 58.362 116.125 55.199 L 111.750 52.036 110.867 52.582 L 109.985 53.128 108.343 51.486 L 106.702 49.845 104.720 50.363 L 102.738 50.881 101.298 49.441 L 99.857 48 92.179 48.136 L 84.500 48.272 82.250 48.706 M 93 50 L 93 51.333 93.667 50.667 L 94.333 50 93.667 49.333 L 93 48.667 93 50 M 83.333 50.667 L 84 51.333 84.667 50.667 L 85.333 50 84 50 L 82.667 50 83.333 50.667 M 76.333 52.667 L 77 53.333 77.667 52.667 L 78.333 52 77 52 L 75.667 52 76.333 52.667 M 90.333 52.667 L 91 53.333 91.667 52.667 L 92.333 52 91 52 L 89.667 52 90.333 52.667 M 95.333 52.667 L 96 53.333 96.667 52.667 L 97.333 52 96 52 L 94.667 52 95.333 52.667 M 74 55 L 74 56.333 74.667 55.667 L 75.333 55 74.667 54.333 L 74 53.667 74 55 M 79 55 L 79 56.333 79.667 55.667 L 80.333 55 79.667 54.333 L 79 53.667 79 55 M 83.333 54.667 L 84 55.333 84.667 54.667 L 85.333 54 84 54 L 82.667 54 83.333 54.667 M 88 55 L 88 56.333 88.667 55.667 L 89.333 55 88.667 54.333 L 88 53.667 88 55 M 93 55 L 93 56.333 93.667 55.667 L 94.333 55 93.667 54.333 L 93 53.667 93 55 M 98 55 L 98 56.333 98.667 55.667 L 99.333 55 98.667 54.333 L 98 53.667 98 55 M 102.333 54.667 L 103 55.333 103.667 54.667 L 104.333 54 103 54 L 101.667 54 102.333 54.667 M 107 55 L 107 56.333 107.667 55.667 L 108.333 55 107.667 54.333 L 107 53.667 107 55 M 112 55 L 112 56.333 112.667 55.667 L 113.333 55 112.667 54.333 L 112 53.667 112 55 M 71.333 57.667 L 72 58.333 72.667 57.667 L 73.333 57 72 57 L 70.667 57 71.333 57.667 M 76.333 57.667 L 77 58.333 77.667 57.667 L 78.333 57 77 57 L 75.667 57 76.333 57.667 M 90.333 57.667 L 91 58.333 91.667 57.667 L 92.333 57 91 57 L 89.667 57 90.333 57.667 M 95.333 57.667 L 96 58.333 96.667 57.667 L 97.333 57 96 57 L 94.667 57 95.333 57.667 M 109.333 57.667 L 110 58.333 110.667 57.667 L 111.333 57 110 57 L 108.667 57 109.333 57.667 M 114.333 57.667 L 115 58.333 115.667 57.667 L 116.333 57 115 57 L 113.667 57 114.333 57.667 M 64.333 59.667 L 65 60.333 65.667 59.667 L 66.333 59 65 59 L 63.667 59 64.333 59.667 M 69.333 59.667 L 70 60.333 70.667 59.667 L 71.333 59 70 59 L 68.667 59 69.333 59.667 M 83.333 59.667 L 84 60.333 84.667 59.667 L 85.333 59 84 59 L 82.667 59 83.333 59.667 M 102.333 59.667 L 103 60.333 103.667 59.667 L 104.333 59 103 59 L 101.667 59 102.333 59.667 M 62 62 L 62 63.333 62.667 62.667 L 63.333 62 62.667 61.333 L 62 60.667 62 62 M 67 62 L 67 63.333 67.667 62.667 L 68.333 62 67.667 61.333 L 67 60.667 67 62 M 72 62 L 72 63.333 72.667 62.667 L 73.333 62 72.667 61.333 L 72 60.667 72 62 M 76 62 L 76 63 77.059 63 L 78.118 63 77.500 62 L 76.882 61 76.441 61 L 76 61 76 62 M 81 62 L 81 63.333 81.667 62.667 L 82.333 62 81.667 61.333 L 81 60.667 81 62 M 86 62 L 86 63.333 86.667 62.667 L 87.333 62 86.667 61.333 L 86 60.667 86 62 M 91 62 L 91 63.333 91.667 62.667 L 92.333 62 91.667 61.333 L 91 60.667 91 62 M 95 62 L 95 63.333 95.667 62.667 L 96.333 62 95.667 61.333 L 95 60.667 95 62 M 100 62 L 100 63.333 100.667 62.667 L 101.333 62 100.667 61.333 L 100 60.667 100 62 M 105 62 L 105 63.333 105.667 62.667 L 106.333 62 105.667 61.333 L 105 60.667 105 62 M 110 62 L 110 63.333 110.667 62.667 L 111.333 62 110.667 61.333 L 110 60.667 110 62 M 114 62 L 114 63.333 114.667 62.667 L 115.333 62 114.667 61.333 L 114 60.667 114 62 M 119 62 L 119 63.333 119.667 62.667 L 120.333 62 119.667 61.333 L 119 60.667 119 62 M 64.333 64.667 L 65 65.333 65.667 64.667 L 66.333 64 65 64 L 63.667 64 64.333 64.667 M 69.333 64.667 L 70 65.333 70.667 64.667 L 71.333 64 70 64 L 68.667 64 69.333 64.667 M 83.333 64.667 L 84 65.333 84.667 64.667 L 85.333 64 84 64 L 82.667 64 83.333 64.667 M 102.333 64.667 L 103 65.333 103.667 64.667 L 104.333 64 103 64 L 101.667 64 102.333 64.667 M 121.333 64.667 L 122 65.333 122.667 64.667 L 123.333 64 122 64 L 120.667 64 121.333 64.667 M 67 67 L 67 68.333 67.667 67.667 L 68.333 67 67.667 66.333 L 67 65.667 67 67 M 76.333 66.667 L 77 67.333 77.667 66.667 L 78.333 66 77 66 L 75.667 66 76.333 66.667 M 90.333 66.667 L 91 67.333 91.667 66.667 L 92.333 66 91 66 L 89.667 66 90.333 66.667 M 95.333 66.667 L 96 67.333 96.667 66.667 L 97.333 66 96 66 L 94.667 66 95.333 66.667 M 109.333 66.667 L 110 67.333 110.667 66.667 L 111.333 66 110 66 L 108.667 66 109.333 66.667 M 114.333 66.667 L 115 67.333 115.667 66.667 L 116.333 66 115 66 L 113.667 66 114.333 66.667 M 60 69 L 60 70.333 60.667 69.667 L 61.333 69 60.667 68.333 L 60 67.667 60 69 M 69 69 L 69 70.333 69.667 69.667 L 70.333 69 69.667 68.333 L 69 67.667 69 69 M 74 69 L 74 70.333 74.667 69.667 L 75.333 69 74.667 68.333 L 74 67.667 74 69 M 79 69 L 79 70.333 79.667 69.667 L 80.333 69 79.667 68.333 L 79 67.667 79 69 M 88 69 L 88 70.333 88.667 69.667 L 89.333 69 88.667 68.333 L 88 67.667 88 69 M 93 69 L 93 70.333 93.667 69.667 L 94.333 69 93.667 68.333 L 93 67.667 93 69 M 98 69 L 98 70.333 98.667 69.667 L 99.333 69 98.667 68.333 L 98 67.667 98 69 M 107 69 L 107 70.333 107.667 69.667 L 108.333 69 107.667 68.333 L 107 67.667 107 69 M 112 69 L 112 70.333 112.667 69.667 L 113.333 69 112.667 68.333 L 112 67.667 112 69 M 117 69 L 117 70.333 117.667 69.667 L 118.333 69 117.667 68.333 L 117 67.667 117 69 M 126 69 L 126 70.333 126.667 69.667 L 127.333 69 126.667 68.333 L 126 67.667 126 69 M 64.333 69.667 L 65 70.333 65.667 69.667 L 66.333 69 65 69 L 63.667 69 64.333 69.667 M 83.333 69.667 L 84 70.333 84.667 69.667 L 85.333 69 84 69 L 82.667 69 83.333 69.667 M 102.333 69.667 L 103 70.333 103.667 69.667 L 104.333 69 103 69 L 101.667 69 102.333 69.667 M 121.333 69.667 L 122 70.333 122.667 69.667 L 123.333 69 122 69 L 120.667 69 121.333 69.667 M 57.333 71.667 L 58 72.333 58.667 71.667 L 59.333 71 58 71 L 56.667 71 57.333 71.667 M 71.333 71.667 L 72 72.333 72.667 71.667 L 73.333 71 72 71 L 70.667 71 71.333 71.667 M 76.333 71.667 L 77 72.333 77.667 71.667 L 78.333 71 77 71 L 75.667 71 76.333 71.667 M 95.333 71.667 L 96 72.333 96.667 71.667 L 97.333 71 96 71 L 94.667 71 95.333 71.667 M 109.333 71.667 L 110 72.333 110.667 71.667 L 111.333 71 110 71 L 108.667 71 109.333 71.667 M 114.333 71.667 L 115 72.333 115.667 71.667 L 116.333 71 115 71 L 113.667 71 114.333 71.667 M 128.333 71.667 L 129 72.333 129.667 71.667 L 130.333 71 129 71 L 127.667 71 128.333 71.667 M 55 74 L 55 75.333 55.667 74.667 L 56.333 74 55.667 73.333 L 55 72.667 55 74 M 60 74 L 60 75.333 60.667 74.667 L 61.333 74 60.667 73.333 L 60 72.667 60 74 M 64.333 73.667 L 65 74.333 65.667 73.667 L 66.333 73 65 73 L 63.667 73 64.333 73.667 M 69 74 L 69 75.333 69.667 74.667 L 70.333 74 69.667 73.333 L 69 72.667 69 74 M 74 74 L 74 75.333 74.667 74.667 L 75.333 74 74.667 73.333 L 74 72.667 74 74 M 79 74 L 79 75.333 79.667 74.667 L 80.333 74 79.667 73.333 L 79 72.667 79 74 M 83.333 73.667 L 84 74.333 84.667 73.667 L 85.333 73 84 73 L 82.667 73 83.333 73.667 M 87 74 L 85.500 74.969 86.500 74.969 L 87.500 74.969 89 74 L 90.500 73.031 89.500 73.031 L 88.500 73.031 87 74 M 97.538 73.938 L 96.971 74.856 98.991 75.497 L 101.011 76.138 104.005 78.658 L 107 81.178 107 82.192 L 107 83.207 103.513 80.146 L 100.026 77.084 96.263 76.081 L 92.500 75.078 88.826 75.916 L 85.153 76.755 82.200 78.858 L 79.247 80.961 77.623 84.381 L 76 87.802 76.006 92.151 L 76.012 96.500 77.506 99.364 L 79 102.229 79 102.673 L 79 103.118 77.750 102.404 L 76.500 101.691 79.437 104.845 L 82.374 108 82.810 108 L 83.245 108 82 106.500 L 80.755 105 81.678 105 L 82.600 105 83.678 106.078 L 84.755 107.155 88.628 108.039 L 92.500 108.922 96.500 107.876 L 100.500 106.831 103.750 103.719 L 107 100.608 107 101.499 L 107 102.391 104.750 104.992 L 102.500 107.593 105.994 104.046 L 109.487 100.500 110.244 100.750 L 111 101 110.985 100.250 L 110.969 99.500 110.123 98.165 L 109.277 96.831 108.678 99.122 L 108.079 101.413 107.535 100.868 L 106.991 100.324 108.118 97.092 L 109.245 93.860 108.721 90.180 L 108.197 86.500 107.429 84.586 L 106.660 82.672 107.930 83.457 L 109.200 84.241 108.122 82.229 L 107.045 80.216 103.773 77.593 L 100.500 74.970 99.303 73.995 L 98.106 73.020 97.538 73.938 M 102.333 73.667 L 103 74.333 103.667 73.667 L 104.333 73 103 73 L 101.667 73 102.333 73.667 M 107 74 L 107 75.333 107.667 74.667 L 108.333 74 107.667 73.333 L 107 72.667 107 74 M 112 74 L 112 75.333 112.667 74.667 L 113.333 74 112.667 73.333 L 112 72.667 112 74 M 117 74 L 117 75.333 117.667 74.667 L 118.333 74 117.667 73.333 L 117 72.667 117 74 M 121.333 73.667 L 122 74.333 122.667 73.667 L 123.333 73 122 73 L 120.667 73 121.333 73.667 M 126 74 L 126 75.333 126.667 74.667 L 127.333 74 126.667 73.333 L 126 72.667 126 74 M 35 76 L 35 77.333 35.667 76.667 L 36.333 76 35.667 75.333 L 35 74.667 35 76 M 52.333 76.667 L 53 77.333 53.667 76.667 L 54.333 76 53 76 L 51.667 76 52.333 76.667 M 57.333 76.667 L 58 77.333 58.667 76.667 L 59.333 76 58 76 L 56.667 76 57.333 76.667 M 76.333 76.667 L 77 77.333 77.667 76.667 L 78.333 76 77 76 L 75.667 76 76.333 76.667 M 81 77.059 L 81 78.118 82 77.500 L 83 76.882 83 76.441 L 83 76 82 76 L 81 76 81 77.059 M 109.333 76.667 L 110 77.333 110.667 76.667 L 111.333 76 110 76 L 108.667 76 109.333 76.667 M 114.333 76.667 L 115 77.333 115.667 76.667 L 116.333 76 115 76 L 113.667 76 114.333 76.667 M 128.333 76.667 L 129 77.333 129.667 76.667 L 130.333 76 129 76 L 127.667 76 128.333 76.667 M 64.333 78.667 L 65 79.333 65.667 78.667 L 66.333 78 65 78 L 63.667 78 64.333 78.667 M 69.333 78.667 L 70 79.333 70.667 78.667 L 71.333 78 70 78 L 68.667 78 69.333 78.667 M 76.695 80.958 L 74.058 83.918 75.029 84.518 L 76 85.118 76 84.248 L 76 83.377 78.101 81.122 L 80.201 78.868 79.766 78.433 L 79.332 77.999 76.695 80.958 M 121.333 78.667 L 122 79.333 122.667 78.667 L 123.333 78 122 78 L 120.667 78 121.333 78.667 M 33.625 82.125 L 33 85.250 33.015 92.375 L 33.030 99.500 34.535 105.886 L 36.040 112.272 40.111 120.096 L 44.181 127.920 49.418 133.370 L 54.655 138.820 60.750 142.760 L 66.845 146.699 74.090 149.029 L 81.335 151.358 87.917 151.429 L 94.500 151.500 94.500 150 L 94.500 148.500 87.414 147.793 L 80.328 147.086 73.672 144.670 L 67.017 142.254 61.411 138.877 L 55.805 135.500 49.514 128.850 L 43.224 122.199 40.104 115.850 L 36.985 109.500 35.395 102 L 33.804 94.500 34.371 86.750 L 34.937 79 34.594 79 L 34.250 79 33.625 82.125 M 95.200 80.200 L 94 81.400 94 83.026 L 94 84.651 96.500 87 L 99 89.349 99 92.174 L 99 95 96.901 97.099 L 94.802 99.198 91.651 98.568 L 88.500 97.937 86.644 97.719 L 84.789 97.500 83.368 99.606 L 81.947 101.713 83.787 103.985 L 85.627 106.258 90.648 106.740 L 95.669 107.223 98.584 105.706 L 101.500 104.190 103.894 101.628 L 106.287 99.065 106.770 94.044 L 107.252 89.023 105.991 85.978 L 104.729 82.932 102.230 80.966 L 99.730 79 98.065 79 L 96.400 79 95.200 80.200 M 53 81 L 53 82.333 53.667 81.667 L 54.333 81 53.667 80.333 L 53 79.667 53 81 M 57 81 L 57 82 58.059 82 L 59.118 82 58.500 81 L 57.882 80 57.441 80 L 57 80 57 81 M 62 81 L 62 82.333 62.667 81.667 L 63.333 81 62.667 80.333 L 62 79.667 62 81 M 67 81 L 67 82.333 67.667 81.667 L 68.333 81 67.667 80.333 L 67 79.667 67 81 M 72 81 L 72 82.333 72.667 81.667 L 73.333 81 72.667 80.333 L 72 79.667 72 81 M 110 81 L 110 82.333 110.667 81.667 L 111.333 81 110.667 80.333 L 110 79.667 110 81 M 114 81 L 114 82.333 114.667 81.667 L 115.333 81 114.667 80.333 L 114 79.667 114 81 M 119 81 L 119 82.333 119.667 81.667 L 120.333 81 119.667 80.333 L 119 79.667 119 81 M 124 81 L 124 82.333 124.667 81.667 L 125.333 81 124.667 80.333 L 124 79.667 124 81 M 129 81 L 129 82.333 129.667 81.667 L 130.333 81 129.667 80.333 L 129 79.667 129 81 M 50.333 83.667 L 51 84.333 51.667 83.667 L 52.333 83 51 83 L 49.667 83 50.333 83.667 M 64.333 83.667 L 65 84.333 65.667 83.667 L 66.333 83 65 83 L 63.667 83 64.333 83.667 M 69.333 83.667 L 70 84.333 70.667 83.667 L 71.333 83 70 83 L 68.667 83 69.333 83.667 M 121.333 83.667 L 122 84.333 122.667 83.667 L 123.333 83 122 83 L 120.667 83 121.333 83.667 M 52.333 85.667 L 53 86.333 53.667 85.667 L 54.333 85 53 85 L 51.667 85 52.333 85.667 M 57.333 85.667 L 58 86.333 58.667 85.667 L 59.333 85 58 85 L 56.667 85 57.333 85.667 M 71.333 85.667 L 72 86.333 72.667 85.667 L 73.333 85 72 85 L 70.667 85 71.333 85.667 M 109 86.059 L 109 87.118 110 86.500 L 111 85.882 111 85.441 L 111 85 110 85 L 109 85 109 86.059 M 114.333 85.667 L 115 86.333 115.667 85.667 L 116.333 85 115 85 L 113.667 85 114.333 85.667 M 128.333 85.667 L 129 86.333 129.667 85.667 L 130.333 85 129 85 L 127.667 85 128.333 85.667 M 50 88 L 50 89.333 50.667 88.667 L 51.333 88 50.667 87.333 L 50 86.667 50 88 M 55 88 L 55 89.333 55.667 88.667 L 56.333 88 55.667 87.333 L 55 86.667 55 88 M 60 88 L 60 89.333 60.667 88.667 L 61.333 88 60.667 87.333 L 60 86.667 60 88 M 69 88 L 69 89.333 69.667 88.667 L 70.333 88 69.667 87.333 L 69 86.667 69 88 M 74 88 L 74 89.333 74.667 88.667 L 75.333 88 74.667 87.333 L 74 86.667 74 88 M 112 88 L 112 89.333 112.667 88.667 L 113.333 88 112.667 87.333 L 112 86.667 112 88 M 117 88 L 117 89.333 117.667 88.667 L 118.333 88 117.667 87.333 L 117 86.667 117 88 M 121 88 L 121 89 122.059 89 L 123.118 89 122.500 88 L 121.882 87 121.441 87 L 121 87 121 88 M 126 88 L 126 89.333 126.667 88.667 L 127.333 88 126.667 87.333 L 126 86.667 126 88 M 131 88 L 131 89.333 131.667 88.667 L 132.333 88 131.667 87.333 L 131 86.667 131 88 M 64.333 88.667 L 65 89.333 65.667 88.667 L 66.333 88 65 88 L 63.667 88 64.333 88.667 M 110.252 92.500 L 110.272 96.500 110.707 94.238 L 111.142 91.977 110.687 90.238 L 110.232 88.500 110.252 92.500 M 52.333 90.667 L 53 91.333 53.667 90.667 L 54.333 90 53 90 L 51.667 90 52.333 90.667 M 57.333 90.667 L 58 91.333 58.667 90.667 L 59.333 90 58 90 L 56.667 90 57.333 90.667 M 71.333 90.667 L 72 91.333 72.667 90.667 L 73.333 90 72 90 L 70.667 90 71.333 90.667 M 114.333 90.667 L 115 91.333 115.667 90.667 L 116.333 90 115 90 L 113.667 90 114.333 90.667 M 128.333 90.667 L 129 91.333 129.667 90.667 L 130.333 90 129 90 L 127.667 90 128.333 90.667 M 133.333 90.667 L 134 91.333 134.667 90.667 L 135.333 90 134 90 L 132.667 90 133.333 90.667 M 55 93 L 55 94.333 55.667 93.667 L 56.333 93 55.667 92.333 L 55 91.667 55 93 M 60 93 L 60 94.333 60.667 93.667 L 61.333 93 60.667 92.333 L 60 91.667 60 93 M 64.333 92.667 L 65 93.333 65.667 92.667 L 66.333 92 65 92 L 63.667 92 64.333 92.667 M 69 93 L 69 94.333 69.667 93.667 L 70.333 93 69.667 92.333 L 69 91.667 69 93 M 112 93 L 112 94.333 112.667 93.667 L 113.333 93 112.667 92.333 L 112 91.667 112 93 M 117 93 L 117 94.333 117.667 93.667 L 118.333 93 117.667 92.333 L 117 91.667 117 93 M 121.333 92.667 L 122 93.333 122.667 92.667 L 123.333 92 122 92 L 120.667 92 121.333 92.667 M 126 93 L 126 94.333 126.667 93.667 L 127.333 93 126.667 92.333 L 126 91.667 126 93 M 131 93 L 131 94.333 131.667 93.667 L 132.333 93 131.667 92.333 L 131 91.667 131 93 M 67 95 L 67 96.333 67.667 95.667 L 68.333 95 67.667 94.333 L 67 93.667 67 95 M 119 95 L 119 96.333 119.667 95.667 L 120.333 95 119.667 94.333 L 119 93.667 119 95 M 57.333 95.667 L 58 96.333 58.667 95.667 L 59.333 95 58 95 L 56.667 95 57.333 95.667 M 114.333 95.667 L 115 96.333 115.667 95.667 L 116.333 95 115 95 L 113.667 95 114.333 95.667 M 128.333 95.667 L 129 96.333 129.667 95.667 L 130.333 95 129 95 L 127.667 95 128.333 95.667 M 133.333 95.667 L 134 96.333 134.667 95.667 L 135.333 95 134 95 L 132.667 95 133.333 95.667 M 74 97 L 74 98.333 74.667 97.667 L 75.333 97 74.667 96.333 L 74 95.667 74 97 M 50.333 97.667 L 51 98.333 51.667 97.667 L 52.333 97 51 97 L 49.667 97 50.333 97.667 M 64.333 97.667 L 65 98.333 65.667 97.667 L 66.333 97 65 97 L 63.667 97 64.333 97.667 M 121.333 97.667 L 122 98.333 122.667 97.667 L 123.333 97 122 97 L 120.667 97 121.333 97.667 M 53 100 L 53 101.333 53.667 100.667 L 54.333 100 53.667 99.333 L 53 98.667 53 100 M 57 100 L 57 101.333 57.667 100.667 L 58.333 100 57.667 99.333 L 57 98.667 57 100 M 62 100 L 62 101.333 62.667 100.667 L 63.333 100 62.667 99.333 L 62 98.667 62 100 M 67 100 L 67 101.333 67.667 100.667 L 68.333 100 67.667 99.333 L 67 98.667 67 100 M 72 100 L 72 101.333 72.667 100.667 L 73.333 100 72.667 99.333 L 72 98.667 72 100 M 114 100 L 114 101.333 114.667 100.667 L 115.333 100 114.667 99.333 L 114 98.667 114 100 M 119 100 L 119 101.333 119.667 100.667 L 120.333 100 119.667 99.333 L 119 98.667 119 100 M 124 100 L 124 101.333 124.667 100.667 L 125.333 100 124.667 99.333 L 124 98.667 124 100 M 129 100 L 129 101.333 129.667 100.667 L 130.333 100 129.667 99.333 L 129 98.667 129 100 M 133 100 L 133 101.333 133.667 100.667 L 134.333 100 133.667 99.333 L 133 98.667 133 100 M 50.333 102.667 L 51 103.333 51.667 102.667 L 52.333 102 51 102 L 49.667 102 50.333 102.667 M 64.333 102.667 L 65 103.333 65.667 102.667 L 66.333 102 65 102 L 63.667 102 64.333 102.667 M 121.333 102.667 L 122 103.333 122.667 102.667 L 123.333 102 122 102 L 120.667 102 121.333 102.667 M 79.500 104 L 80.118 105 80.618 105 L 81.118 105 80.500 104 L 79.882 103 79.382 103 L 78.882 103 79.500 104 M 52.333 104.667 L 53 105.333 53.667 104.667 L 54.333 104 53 104 L 51.667 104 52.333 104.667 M 57.333 104.667 L 58 105.333 58.667 104.667 L 59.333 104 58 104 L 56.667 104 57.333 104.667 M 114.333 104.667 L 115 105.333 115.667 104.667 L 116.333 104 115 104 L 113.667 104 114.333 104.667 M 128.333 104.667 L 129 105.333 129.667 104.667 L 130.333 104 129 104 L 127.667 104 128.333 104.667 M 147.079 106.583 L 147.158 108.500 147.683 107.188 L 148.208 105.875 147.604 105.271 L 147 104.667 147.079 106.583 M 55 107 L 55 108.333 55.667 107.667 L 56.333 107 55.667 106.333 L 55 105.667 55 107 M 60 107 L 60 108.333 60.667 107.667 L 61.333 107 60.667 106.333 L 60 105.667 60 107 M 69 107 L 69 108.333 69.667 107.667 L 70.333 107 69.667 106.333 L 69 105.667 69 107 M 74 107 L 74 108.333 74.667 107.667 L 75.333 107 74.667 106.333 L 74 105.667 74 107 M 112 107 L 112 108.333 112.667 107.667 L 113.333 107 112.667 106.333 L 112 105.667 112 107 M 117 107 L 117 108.333 117.667 107.667 L 118.333 107 117.667 106.333 L 117 105.667 117 107 M 126 107 L 126 108.333 126.667 107.667 L 127.333 107 126.667 106.333 L 126 105.667 126 107 M 131 107 L 131 108.333 131.667 107.667 L 132.333 107 131.667 106.333 L 131 105.667 131 107 M 64.333 107.667 L 65 108.333 65.667 107.667 L 66.333 107 65 107 L 63.667 107 64.333 107.667 M 121.333 107.667 L 122 108.333 122.667 107.667 L 123.333 107 122 107 L 120.667 107 121.333 107.667 M 99.500 109 L 100.118 110 100.559 110 L 101 110 101 109 L 101 108 99.941 108 L 98.882 108 99.500 109 M 52.333 109.667 L 53 110.333 53.667 109.667 L 54.333 109 53 109 L 51.667 109 52.333 109.667 M 57.333 109.667 L 58 110.333 58.667 109.667 L 59.333 109 58 109 L 56.667 109 57.333 109.667 M 71.333 109.667 L 72 110.333 72.667 109.667 L 73.333 109 72 109 L 70.667 109 71.333 109.667 M 76.333 109.667 L 77 110.333 77.667 109.667 L 78.333 109 77 109 L 75.667 109 76.333 109.667 M 86.333 109.667 L 87 110.333 87.667 109.667 L 88.333 109 87 109 L 85.667 109 86.333 109.667 M 96.333 109.667 L 97 110.333 97.667 109.667 L 98.333 109 97 109 L 95.667 109 96.333 109.667 M 109.333 109.667 L 110 110.333 110.667 109.667 L 111.333 109 110 109 L 108.667 109 109.333 109.667 M 114.333 109.667 L 115 110.333 115.667 109.667 L 116.333 109 115 109 L 113.667 109 114.333 109.667 M 128.333 109.667 L 129 110.333 129.667 109.667 L 130.333 109 129 109 L 127.667 109 128.333 109.667 M 55 112 L 55 113.333 55.667 112.667 L 56.333 112 55.667 111.333 L 55 110.667 55 112 M 60 112 L 60 113.333 60.667 112.667 L 61.333 112 60.667 111.333 L 60 110.667 60 112 M 64.333 111.667 L 65 112.333 65.667 111.667 L 66.333 111 65 111 L 63.667 111 64.333 111.667 M 69.333 111.667 L 70 112.333 70.667 111.667 L 71.333 111 70 111 L 68.667 111 69.333 111.667 M 74 112 L 74 113.333 74.667 112.667 L 75.333 112 74.667 111.333 L 74 110.667 74 112 M 83.333 111.667 L 84 112.333 84.667 111.667 L 85.333 111 84 111 L 82.667 111 83.333 111.667 M 93 112 L 93 113.333 93.667 112.667 L 94.333 112 93.667 111.333 L 93 110.667 93 112 M 102.333 111.667 L 103 112.333 103.667 111.667 L 104.333 111 103 111 L 101.667 111 102.333 111.667 M 117 112 L 117 113.333 117.667 112.667 L 118.333 112 117.667 111.333 L 117 110.667 117 112 M 121.333 111.667 L 122 112.333 122.667 111.667 L 123.333 111 122 111 L 120.667 111 121.333 111.667 M 126 112 L 126 113.333 126.667 112.667 L 127.333 112 126.667 111.333 L 126 110.667 126 112 M 62 114 L 62 115.333 62.667 114.667 L 63.333 114 62.667 113.333 L 62 112.667 62 114 M 67 114 L 67 115.333 67.667 114.667 L 68.333 114 67.667 113.333 L 67 112.667 67 114 M 86 114 L 86 115.333 86.667 114.667 L 87.333 114 86.667 113.333 L 86 112.667 86 114 M 100 114 L 100 115.333 100.667 114.667 L 101.333 114 100.667 113.333 L 100 112.667 100 114 M 119 114 L 119 115.333 119.667 114.667 L 120.333 114 119.667 113.333 L 119 112.667 119 114 M 124 114 L 124 115.333 124.667 114.667 L 125.333 114 124.667 113.333 L 124 112.667 124 114 M 57.333 114.667 L 58 115.333 58.667 114.667 L 59.333 114 58 114 L 56.667 114 57.333 114.667 M 76.333 114.667 L 77 115.333 77.667 114.667 L 78.333 114 77 114 L 75.667 114 76.333 114.667 M 95.333 114.667 L 96 115.333 96.667 114.667 L 97.333 114 96 114 L 94.667 114 95.333 114.667 M 114.333 114.667 L 115 115.333 115.667 114.667 L 116.333 114 115 114 L 113.667 114 114.333 114.667 M 64.333 116.667 L 65 117.333 65.667 116.667 L 66.333 116 65 116 L 63.667 116 64.333 116.667 M 69.333 116.667 L 70 117.333 70.667 116.667 L 71.333 116 70 116 L 68.667 116 69.333 116.667 M 83.333 116.667 L 84 117.333 84.667 116.667 L 85.333 116 84 116 L 82.667 116 83.333 116.667 M 102.333 116.667 L 103 117.333 103.667 116.667 L 104.333 116 103 116 L 101.667 116 102.333 116.667 M 121.333 116.667 L 122 117.333 122.667 116.667 L 123.333 116 122 116 L 120.667 116 121.333 116.667 M 62 119 L 62 120.333 62.667 119.667 L 63.333 119 62.667 118.333 L 62 117.667 62 119 M 67 119 L 67 120.333 67.667 119.667 L 68.333 119 67.667 118.333 L 67 117.667 67 119 M 72 119 L 72 120.333 72.667 119.667 L 73.333 119 72.667 118.333 L 72 117.667 72 119 M 76 119 L 76 120.333 76.667 119.667 L 77.333 119 76.667 118.333 L 76 117.667 76 119 M 81 119 L 81 120.333 81.667 119.667 L 82.333 119 81.667 118.333 L 81 117.667 81 119 M 86 119 L 86 120.333 86.667 119.667 L 87.333 119 86.667 118.333 L 86 117.667 86 119 M 91 119 L 91 120.333 91.667 119.667 L 92.333 119 91.667 118.333 L 91 117.667 91 119 M 100 119 L 100 120.333 100.667 119.667 L 101.333 119 100.667 118.333 L 100 117.667 100 119 M 105 119 L 105 120.333 105.667 119.667 L 106.333 119 105.667 118.333 L 105 117.667 105 119 M 110 119 L 110 120.333 110.667 119.667 L 111.333 119 110.667 118.333 L 110 117.667 110 119 M 114 119 L 114 120.333 114.667 119.667 L 115.333 119 114.667 118.333 L 114 117.667 114 119 M 119 119 L 119 120.333 119.667 119.667 L 120.333 119 119.667 118.333 L 119 117.667 119 119 M 124 119 L 124 120.333 124.667 119.667 L 125.333 119 124.667 118.333 L 124 117.667 124 119 M 64.333 121.667 L 65 122.333 65.667 121.667 L 66.333 121 65 121 L 63.667 121 64.333 121.667 M 69.333 121.667 L 70 122.333 70.667 121.667 L 71.333 121 70 121 L 68.667 121 69.333 121.667 M 83.333 121.667 L 84 122.333 84.667 121.667 L 85.333 121 84 121 L 82.667 121 83.333 121.667 M 102.333 121.667 L 103 122.333 103.667 121.667 L 104.333 121 103 121 L 101.667 121 102.333 121.667 M 121.333 121.667 L 122 122.333 122.667 121.667 L 123.333 121 122 121 L 120.667 121 121.333 121.667 M 71.333 123.667 L 72 124.333 72.667 123.667 L 73.333 123 72 123 L 70.667 123 71.333 123.667 M 76.333 123.667 L 77 124.333 77.667 123.667 L 78.333 123 77 123 L 75.667 123 76.333 123.667 M 90.333 123.667 L 91 124.333 91.667 123.667 L 92.333 123 91 123 L 89.667 123 90.333 123.667 M 95.333 123.667 L 96 124.333 96.667 123.667 L 97.333 123 96 123 L 94.667 123 95.333 123.667 M 109.333 123.667 L 110 124.333 110.667 123.667 L 111.333 123 110 123 L 108.667 123 109.333 123.667 M 114.333 123.667 L 115 124.333 115.667 123.667 L 116.333 123 115 123 L 113.667 123 114.333 123.667 M 69 126 L 69 127.333 69.667 126.667 L 70.333 126 69.667 125.333 L 69 124.667 69 126 M 74 126 L 74 127.333 74.667 126.667 L 75.333 126 74.667 125.333 L 74 124.667 74 126 M 79 126 L 79 127.333 79.667 126.667 L 80.333 126 79.667 125.333 L 79 124.667 79 126 M 83.500 126 L 82.882 127 83.941 127 L 85 127 85 126 L 85 125 84.559 125 L 84.118 125 83.500 126 M 88 126 L 88 127.333 88.667 126.667 L 89.333 126 88.667 125.333 L 88 124.667 88 126 M 93 126 L 93 127.333 93.667 126.667 L 94.333 126 93.667 125.333 L 93 124.667 93 126 M 98 126 L 98 127.333 98.667 126.667 L 99.333 126 98.667 125.333 L 98 124.667 98 126 M 102 126 L 102 127 103.059 127 L 104.118 127 103.500 126 L 102.882 125 102.441 125 L 102 125 102 126 M 107 126 L 107 127.333 107.667 126.667 L 108.333 126 107.667 125.333 L 107 124.667 107 126 M 112 126 L 112 127.333 112.667 126.667 L 113.333 126 112.667 125.333 L 112 124.667 112 126 M 71.333 128.667 L 72 129.333 72.667 128.667 L 73.333 128 72 128 L 70.667 128 71.333 128.667 M 76.333 128.667 L 77 129.333 77.667 128.667 L 78.333 128 77 128 L 75.667 128 76.333 128.667 M 90.333 128.667 L 91 129.333 91.667 128.667 L 92.333 128 91 128 L 89.667 128 90.333 128.667 M 95.333 128.667 L 96 129.333 96.667 128.667 L 97.333 128 96 128 L 94.667 128 95.333 128.667 M 109.333 128.667 L 110 129.333 110.667 128.667 L 111.333 128 110 128 L 108.667 128 109.333 128.667 M 74 131 L 74 132.333 74.667 131.667 L 75.333 131 74.667 130.333 L 74 129.667 74 131 M 79 131 L 79 132.333 79.667 131.667 L 80.333 131 79.667 130.333 L 79 129.667 79 131 M 83.333 130.667 L 84 131.333 84.667 130.667 L 85.333 130 84 130 L 82.667 130 83.333 130.667 M 88 131 L 88 132.333 88.667 131.667 L 89.333 131 88.667 130.333 L 88 129.667 88 131 M 93 131 L 93 132.333 93.667 131.667 L 94.333 131 93.667 130.333 L 93 129.667 93 131 M 98 131 L 98 132.333 98.667 131.667 L 99.333 131 98.667 130.333 L 98 129.667 98 131 M 102.333 130.667 L 103 131.333 103.667 130.667 L 104.333 130 103 130 L 101.667 130 102.333 130.667 M 81 133 L 81 134.333 81.667 133.667 L 82.333 133 81.667 132.333 L 81 131.667 81 133 M 86 133 L 86 134.333 86.667 133.667 L 87.333 133 86.667 132.333 L 86 131.667 86 133 M 100 133 L 100 134.333 100.667 133.667 L 101.333 133 100.667 132.333 L 100 131.667 100 133 M 95.333 133.667 L 96 134.333 96.667 133.667 L 97.333 133 96 133 L 94.667 133 95.333 133.667 M 179.276 156.819 L 175.052 162.617 170.672 167.059 L 166.291 171.500 158.626 177.500 L 150.961 183.500 166.597 183.776 L 182.232 184.052 183.616 182.904 L 185 181.755 185 166.378 L 185 151 184.250 151.010 L 183.500 151.020 179.276 156.819 M 1.027 168.750 L 1 184 16.750 183.971 L 32.500 183.941 29.403 181.221 L 26.306 178.500 23.446 176.500 L 20.586 174.500 14.402 168 L 8.218 161.500 4.636 157.500 L 1.054 153.500 1.027 168.750" stroke="none" fill="#07080b" fill-rule="evenodd"/><path d="M 23.007 7.781 L 14.513 15.500 12.511 18 L 10.508 20.500 5.268 26 L 0.027 31.500 0.013 91.686 L 0 151.873 7.155 160.186 L 14.309 168.500 17.891 171.787 L 21.472 175.074 23.880 176.787 L 26.289 178.500 29.526 181.250 L 32.764 184 91.659 184 L 150.554 184 160.085 176.250 L 169.616 168.500 173.063 164.500 L 176.509 160.500 179.968 156 L 183.426 151.500 184.213 151.167 L 185 150.833 184.985 90.167 L 184.969 29.500 183.941 31 L 182.912 32.500 181.206 30.015 L 179.500 27.531 173.869 20.958 L 168.239 14.386 162.869 9.950 L 157.500 5.514 154.673 2.757 L 151.846 0 91.673 0.031 L 31.500 0.062 23.007 7.781 M 75.408 12.484 L 69.316 13.810 62.458 16.554 L 55.600 19.297 49.676 22.769 L 43.752 26.241 36.355 33.267 L 28.958 40.294 24.519 46.971 L 20.080 53.648 16.964 61.430 L 13.848 69.213 12.323 76.356 L 10.798 83.500 11.317 95.500 L 11.836 107.500 14.032 114.500 L 16.228 121.500 19.623 128.379 L 23.019 135.258 26.497 139.996 L 29.976 144.735 36.903 151.270 L 43.831 157.805 49.715 161.254 L 55.600 164.703 62.415 167.429 L 69.230 170.156 76.365 171.674 L 83.500 173.192 95.500 172.738 L 107.500 172.284 117 169.091 L 126.500 165.898 133.500 161.800 L 140.500 157.702 149.500 148.601 L 158.500 139.500 162.336 132.500 L 166.172 125.500 169.315 116.500 L 172.458 107.500 172.458 92 L 172.458 76.500 169.214 67.149 L 165.971 57.799 161.825 50.649 L 157.680 43.500 149.090 34.912 L 140.500 26.325 134.450 22.811 L 128.400 19.297 121.593 16.574 L 114.786 13.851 108.143 12.443 L 101.500 11.035 91.500 11.097 L 81.500 11.159 75.408 12.484 M 76.362 30.981 L 69.224 32.853 64.362 35.320 L 59.500 37.786 53.443 42.249 L 47.387 46.711 42.553 53.106 L 37.720 59.500 34.882 65.457 L 32.044 71.413 30.393 78.837 L 28.741 86.261 29.270 95.381 L 29.798 104.500 31.873 111 L 33.947 117.500 37.724 123.983 L 41.500 130.466 48.222 137.157 L 54.943 143.847 62.935 147.847 L 70.926 151.847 78.594 153.553 L 86.261 155.259 95.381 154.730 L 104.500 154.202 111 152.127 L 117.500 150.053 123.930 146.276 L 130.360 142.500 136.957 135.938 L 143.554 129.377 147.305 122.239 L 151.056 115.101 153.028 107.391 L 155 99.680 155 92 L 155 84.320 152.997 76.487 L 150.993 68.654 147.418 62.149 L 143.842 55.644 140.225 51.229 L 136.607 46.815 131.054 42.547 L 125.500 38.279 120.154 35.574 L 114.808 32.869 107.244 30.935 L 99.680 29 91.590 29.055 L 83.500 29.110 76.362 30.981 M 0.470 91.500 L 0.470 152.500 0.750 121.678 L 1.029 90.856 0.749 60.678 L 0.470 30.500 0.470 91.500 M 88.667 33.667 L 88 34.333 88 35.667 L 88 37 91.250 37.017 L 94.500 37.035 101.500 38.504 L 108.500 39.974 116 43.646 L 123.500 47.318 131.114 54.909 L 138.728 62.500 141.875 68.743 L 145.022 74.986 146.511 80.703 L 148 86.420 148.147 95.460 L 148.294 104.500 148.975 98.500 L 149.657 92.500 148.879 85.934 L 148.101 79.367 146.449 74.434 L 144.797 69.500 141.652 63.549 L 138.507 57.598 132.004 51.035 L 125.500 44.471 118.300 40.708 L 111.101 36.944 103.391 34.972 L 95.680 33 92.507 33 L 89.333 33 88.667 33.667 M 79.813 46.470 L 75.126 47.761 70.313 50.066 L 65.500 52.372 58.992 58.936 L 52.485 65.500 50.129 70.336 L 47.773 75.173 46.399 80.336 L 45.024 85.500 45.024 92 L 45.024 98.500 46.420 103.744 L 47.816 108.988 50.094 113.744 L 52.372 118.500 58.936 125.076 L 65.500 131.652 71.112 134.290 L 76.724 136.928 81.112 137.939 L 85.500 138.951 92 138.964 L 98.500 138.976 103.664 137.601 L 108.827 136.227 113.664 133.871 L 118.500 131.515 125.008 125.008 L 131.515 118.500 133.871 113.664 L 136.227 108.827 137.601 103.664 L 138.976 98.500 138.964 92 L 138.951 85.500 137.940 81.115 L 136.929 76.729 134.215 71.162 L 131.500 65.594 126.292 59.959 L 121.084 54.323 114.924 51.040 L 108.763 47.757 103.632 46.390 L 98.500 45.024 91.500 45.101 L 84.500 45.179 79.813 46.470 M 82.250 48.706 L 80 49.139 80 50.129 L 80 51.118 79.059 50.536 L 78.118 49.955 74.059 51.713 L 70 53.472 70 54.705 L 70 55.937 68.631 55.412 L 67.263 54.887 61.881 59.918 L 56.500 64.949 58 66.016 L 59.500 67.083 57.500 66.792 L 55.500 66.500 55.817 68.350 L 56.134 70.201 55.181 69.612 L 54.227 69.022 53.598 70.761 L 52.968 72.500 51.513 75 L 50.059 77.500 51.082 77.851 L 52.106 78.202 50.343 79.491 L 48.580 80.780 48.596 91.140 L 48.612 101.500 50.291 106.242 L 51.971 110.983 54.235 114.479 L 56.500 117.975 57.719 117.988 L 58.937 118 58.362 119.500 L 57.786 121 59.393 121 L 61 121 60.750 122.250 L 60.500 123.500 61.750 123.250 L 63 123 63 124.607 L 63 126.214 64.500 125.638 L 66 125.063 66 126.103 L 66 127.143 67.289 128.321 L 68.577 129.500 70.801 130.766 L 73.024 132.032 77.762 133.710 L 82.500 135.388 92.860 135.404 L 103.220 135.420 104.610 133.519 L 106 131.618 106 132.757 L 106 133.896 109 132.850 L 112 131.804 112 130.902 L 112 130 113.250 130.250 L 114.500 130.500 114.234 129.203 L 113.968 127.905 115.734 128.203 L 117.500 128.500 117.208 126.500 L 116.917 124.500 117.984 126 L 119.051 127.500 124.082 122.119 L 129.113 116.737 128.588 115.369 L 128.063 114 129.295 114 L 130.528 114 132.287 109.941 L 134.045 105.882 133.516 105.026 L 132.988 104.171 134.189 103.770 L 135.391 103.370 135.807 93.867 L 136.223 84.365 134.671 82.814 L 133.119 81.262 133.637 79.280 L 134.155 77.298 132.514 75.657 L 130.872 74.015 131.418 73.133 L 131.964 72.250 128.801 67.875 L 125.638 63.500 123.069 60.931 L 120.500 58.362 116.125 55.199 L 111.750 52.036 110.867 52.582 L 109.985 53.128 108.343 51.486 L 106.702 49.845 104.720 50.363 L 102.738 50.881 101.298 49.441 L 99.857 48 92.179 48.136 L 84.500 48.272 82.250 48.706 M 93 50 L 93 51.333 93.667 50.667 L 94.333 50 93.667 49.333 L 93 48.667 93 50 M 83.333 50.667 L 84 51.333 84.667 50.667 L 85.333 50 84 50 L 82.667 50 83.333 50.667 M 76.333 52.667 L 77 53.333 77.667 52.667 L 78.333 52 77 52 L 75.667 52 76.333 52.667 M 90.333 52.667 L 91 53.333 91.667 52.667 L 92.333 52 91 52 L 89.667 52 90.333 52.667 M 95.333 52.667 L 96 53.333 96.667 52.667 L 97.333 52 96 52 L 94.667 52 95.333 52.667 M 74 55 L 74 56.333 74.667 55.667 L 75.333 55 74.667 54.333 L 74 53.667 74 55 M 79 55 L 79 56.333 79.667 55.667 L 80.333 55 79.667 54.333 L 79 53.667 79 55 M 83.333 54.667 L 84 55.333 84.667 54.667 L 85.333 54 84 54 L 82.667 54 83.333 54.667 M 88 55 L 88 56.333 88.667 55.667 L 89.333 55 88.667 54.333 L 88 53.667 88 55 M 93 55 L 93 56.333 93.667 55.667 L 94.333 55 93.667 54.333 L 93 53.667 93 55 M 98 55 L 98 56.333 98.667 55.667 L 99.333 55 98.667 54.333 L 98 53.667 98 55 M 102.333 54.667 L 103 55.333 103.667 54.667 L 104.333 54 103 54 L 101.667 54 102.333 54.667 M 107 55 L 107 56.333 107.667 55.667 L 108.333 55 107.667 54.333 L 107 53.667 107 55 M 112 55 L 112 56.333 112.667 55.667 L 113.333 55 112.667 54.333 L 112 53.667 112 55 M 71.333 57.667 L 72 58.333 72.667 57.667 L 73.333 57 72 57 L 70.667 57 71.333 57.667 M 76.333 57.667 L 77 58.333 77.667 57.667 L 78.333 57 77 57 L 75.667 57 76.333 57.667 M 90.333 57.667 L 91 58.333 91.667 57.667 L 92.333 57 91 57 L 89.667 57 90.333 57.667 M 95.333 57.667 L 96 58.333 96.667 57.667 L 97.333 57 96 57 L 94.667 57 95.333 57.667 M 109.333 57.667 L 110 58.333 110.667 57.667 L 111.333 57 110 57 L 108.667 57 109.333 57.667 M 114.333 57.667 L 115 58.333 115.667 57.667 L 116.333 57 115 57 L 113.667 57 114.333 57.667 M 64.333 59.667 L 65 60.333 65.667 59.667 L 66.333 59 65 59 L 63.667 59 64.333 59.667 M 69.333 59.667 L 70 60.333 70.667 59.667 L 71.333 59 70 59 L 68.667 59 69.333 59.667 M 83.333 59.667 L 84 60.333 84.667 59.667 L 85.333 59 84 59 L 82.667 59 83.333 59.667 M 102.333 59.667 L 103 60.333 103.667 59.667 L 104.333 59 103 59 L 101.667 59 102.333 59.667 M 62 62 L 62 63.333 62.667 62.667 L 63.333 62 62.667 61.333 L 62 60.667 62 62 M 67 62 L 67 63.333 67.667 62.667 L 68.333 62 67.667 61.333 L 67 60.667 67 62 M 72 62 L 72 63.333 72.667 62.667 L 73.333 62 72.667 61.333 L 72 60.667 72 62 M 76 62 L 76 63 77.059 63 L 78.118 63 77.500 62 L 76.882 61 76.441 61 L 76 61 76 62 M 81 62 L 81 63.333 81.667 62.667 L 82.333 62 81.667 61.333 L 81 60.667 81 62 M 86 62 L 86 63.333 86.667 62.667 L 87.333 62 86.667 61.333 L 86 60.667 86 62 M 91 62 L 91 63.333 91.667 62.667 L 92.333 62 91.667 61.333 L 91 60.667 91 62 M 95 62 L 95 63.333 95.667 62.667 L 96.333 62 95.667 61.333 L 95 60.667 95 62 M 100 62 L 100 63.333 100.667 62.667 L 101.333 62 100.667 61.333 L 100 60.667 100 62 M 105 62 L 105 63.333 105.667 62.667 L 106.333 62 105.667 61.333 L 105 60.667 105 62 M 110 62 L 110 63.333 110.667 62.667 L 111.333 62 110.667 61.333 L 110 60.667 110 62 M 114 62 L 114 63.333 114.667 62.667 L 115.333 62 114.667 61.333 L 114 60.667 114 62 M 119 62 L 119 63.333 119.667 62.667 L 120.333 62 119.667 61.333 L 119 60.667 119 62 M 64.333 64.667 L 65 65.333 65.667 64.667 L 66.333 64 65 64 L 63.667 64 64.333 64.667 M 69.333 64.667 L 70 65.333 70.667 64.667 L 71.333 64 70 64 L 68.667 64 69.333 64.667 M 83.333 64.667 L 84 65.333 84.667 64.667 L 85.333 64 84 64 L 82.667 64 83.333 64.667 M 102.333 64.667 L 103 65.333 103.667 64.667 L 104.333 64 103 64 L 101.667 64 102.333 64.667 M 121.333 64.667 L 122 65.333 122.667 64.667 L 123.333 64 122 64 L 120.667 64 121.333 64.667 M 67 67 L 67 68.333 67.667 67.667 L 68.333 67 67.667 66.333 L 67 65.667 67 67 M 76.333 66.667 L 77 67.333 77.667 66.667 L 78.333 66 77 66 L 75.667 66 76.333 66.667 M 90.333 66.667 L 91 67.333 91.667 66.667 L 92.333 66 91 66 L 89.667 66 90.333 66.667 M 95.333 66.667 L 96 67.333 96.667 66.667 L 97.333 66 96 66 L 94.667 66 95.333 66.667 M 109.333 66.667 L 110 67.333 110.667 66.667 L 111.333 66 110 66 L 108.667 66 109.333 66.667 M 114.333 66.667 L 115 67.333 115.667 66.667 L 116.333 66 115 66 L 113.667 66 114.333 66.667 M 60 69 L 60 70.333 60.667 69.667 L 61.333 69 60.667 68.333 L 60 67.667 60 69 M 69 69 L 69 70.333 69.667 69.667 L 70.333 69 69.667 68.333 L 69 67.667 69 69 M 74 69 L 74 70.333 74.667 69.667 L 75.333 69 74.667 68.333 L 74 67.667 74 69 M 79 69 L 79 70.333 79.667 69.667 L 80.333 69 79.667 68.333 L 79 67.667 79 69 M 88 69 L 88 70.333 88.667 69.667 L 89.333 69 88.667 68.333 L 88 67.667 88 69 M 93 69 L 93 70.333 93.667 69.667 L 94.333 69 93.667 68.333 L 93 67.667 93 69 M 98 69 L 98 70.333 98.667 69.667 L 99.333 69 98.667 68.333 L 98 67.667 98 69 M 107 69 L 107 70.333 107.667 69.667 L 108.333 69 107.667 68.333 L 107 67.667 107 69 M 112 69 L 112 70.333 112.667 69.667 L 113.333 69 112.667 68.333 L 112 67.667 112 69 M 117 69 L 117 70.333 117.667 69.667 L 118.333 69 117.667 68.333 L 117 67.667 117 69 M 126 69 L 126 70.333 126.667 69.667 L 127.333 69 126.667 68.333 L 126 67.667 126 69 M 64.333 69.667 L 65 70.333 65.667 69.667 L 66.333 69 65 69 L 63.667 69 64.333 69.667 M 83.333 69.667 L 84 70.333 84.667 69.667 L 85.333 69 84 69 L 82.667 69 83.333 69.667 M 102.333 69.667 L 103 70.333 103.667 69.667 L 104.333 69 103 69 L 101.667 69 102.333 69.667 M 121.333 69.667 L 122 70.333 122.667 69.667 L 123.333 69 122 69 L 120.667 69 121.333 69.667 M 57.333 71.667 L 58 72.333 58.667 71.667 L 59.333 71 58 71 L 56.667 71 57.333 71.667 M 71.333 71.667 L 72 72.333 72.667 71.667 L 73.333 71 72 71 L 70.667 71 71.333 71.667 M 76.333 71.667 L 77 72.333 77.667 71.667 L 78.333 71 77 71 L 75.667 71 76.333 71.667 M 95.333 71.667 L 96 72.333 96.667 71.667 L 97.333 71 96 71 L 94.667 71 95.333 71.667 M 109.333 71.667 L 110 72.333 110.667 71.667 L 111.333 71 110 71 L 108.667 71 109.333 71.667 M 114.333 71.667 L 115 72.333 115.667 71.667 L 116.333 71 115 71 L 113.667 71 114.333 71.667 M 128.333 71.667 L 129 72.333 129.667 71.667 L 130.333 71 129 71 L 127.667 71 128.333 71.667 M 55 74 L 55 75.333 55.667 74.667 L 56.333 74 55.667 73.333 L 55 72.667 55 74 M 60 74 L 60 75.333 60.667 74.667 L 61.333 74 60.667 73.333 L 60 72.667 60 74 M 64.333 73.667 L 65 74.333 65.667 73.667 L 66.333 73 65 73 L 63.667 73 64.333 73.667 M 69 74 L 69 75.333 69.667 74.667 L 70.333 74 69.667 73.333 L 69 72.667 69 74 M 74 74 L 74 75.333 74.667 74.667 L 75.333 74 74.667 73.333 L 74 72.667 74 74 M 79 74 L 79 75.333 79.667 74.667 L 80.333 74 79.667 73.333 L 79 72.667 79 74 M 83.333 73.667 L 84 74.333 84.667 73.667 L 85.333 73 84 73 L 82.667 73 83.333 73.667 M 87 74 L 85.500 74.969 86.500 74.969 L 87.500 74.969 89 74 L 90.500 73.031 89.500 73.031 L 88.500 73.031 87 74 M 97.538 73.938 L 96.971 74.856 98.991 75.497 L 101.011 76.138 104.005 78.658 L 107 81.178 107 82.192 L 107 83.207 103.513 80.146 L 100.026 77.084 96.263 76.081 L 92.500 75.078 88.826 75.916 L 85.153 76.755 82.200 78.858 L 79.247 80.961 77.623 84.381 L 76 87.802 76.006 92.151 L 76.012 96.500 77.506 99.364 L 79 102.229 79 102.673 L 79 103.118 77.750 102.404 L 76.500 101.691 79.437 104.845 L 82.374 108 82.810 108 L 83.245 108 82 106.500 L 80.755 105 81.678 105 L 82.600 105 83.678 106.078 L 84.755 107.155 88.628 108.039 L 92.500 108.922 96.500 107.876 L 100.500 106.831 103.750 103.719 L 107 100.608 107 101.499 L 107 102.391 104.750 104.992 L 102.500 107.593 105.994 104.046 L 109.487 100.500 110.244 100.750 L 111 101 110.985 100.250 L 110.969 99.500 110.123 98.165 L 109.277 96.831 108.678 99.122 L 108.079 101.413 107.535 100.868 L 106.991 100.324 108.118 97.092 L 109.245 93.860 108.721 90.180 L 108.197 86.500 107.429 84.586 L 106.660 82.672 107.930 83.457 L 109.200 84.241 108.122 82.229 L 107.045 80.216 103.773 77.593 L 100.500 74.970 99.303 73.995 L 98.106 73.020 97.538 73.938 M 102.333 73.667 L 103 74.333 103.667 73.667 L 104.333 73 103 73 L 101.667 73 102.333 73.667 M 107 74 L 107 75.333 107.667 74.667 L 108.333 74 107.667 73.333 L 107 72.667 107 74 M 112 74 L 112 75.333 112.667 74.667 L 113.333 74 112.667 73.333 L 112 72.667 112 74 M 117 74 L 117 75.333 117.667 74.667 L 118.333 74 117.667 73.333 L 117 72.667 117 74 M 121.333 73.667 L 122 74.333 122.667 73.667 L 123.333 73 122 73 L 120.667 73 121.333 73.667 M 126 74 L 126 75.333 126.667 74.667 L 127.333 74 126.667 73.333 L 126 72.667 126 74 M 35 76 L 35 77.333 35.667 76.667 L 36.333 76 35.667 75.333 L 35 74.667 35 76 M 52.333 76.667 L 53 77.333 53.667 76.667 L 54.333 76 53 76 L 51.667 76 52.333 76.667 M 57.333 76.667 L 58 77.333 58.667 76.667 L 59.333 76 58 76 L 56.667 76 57.333 76.667 M 76.333 76.667 L 77 77.333 77.667 76.667 L 78.333 76 77 76 L 75.667 76 76.333 76.667 M 81 77.059 L 81 78.118 82 77.500 L 83 76.882 83 76.441 L 83 76 82 76 L 81 76 81 77.059 M 109.333 76.667 L 110 77.333 110.667 76.667 L 111.333 76 110 76 L 108.667 76 109.333 76.667 M 114.333 76.667 L 115 77.333 115.667 76.667 L 116.333 76 115 76 L 113.667 76 114.333 76.667 M 128.333 76.667 L 129 77.333 129.667 76.667 L 130.333 76 129 76 L 127.667 76 128.333 76.667 M 64.333 78.667 L 65 79.333 65.667 78.667 L 66.333 78 65 78 L 63.667 78 64.333 78.667 M 69.333 78.667 L 70 79.333 70.667 78.667 L 71.333 78 70 78 L 68.667 78 69.333 78.667 M 76.695 80.958 L 74.058 83.918 75.029 84.518 L 76 85.118 76 84.248 L 76 83.377 78.101 81.122 L 80.201 78.868 79.766 78.433 L 79.332 77.999 76.695 80.958 M 121.333 78.667 L 122 79.333 122.667 78.667 L 123.333 78 122 78 L 120.667 78 121.333 78.667 M 33.625 82.125 L 33 85.250 33.015 92.375 L 33.030 99.500 34.535 105.886 L 36.040 112.272 40.111 120.096 L 44.181 127.920 49.418 133.370 L 54.655 138.820 60.750 142.760 L 66.845 146.699 74.090 149.029 L 81.335 151.358 87.917 151.429 L 94.500 151.500 94.500 150 L 94.500 148.500 87.414 147.793 L 80.328 147.086 73.672 144.670 L 67.017 142.254 61.411 138.877 L 55.805 135.500 49.514 128.850 L 43.224 122.199 40.104 115.850 L 36.985 109.500 35.395 102 L 33.804 94.500 34.371 86.750 L 34.937 79 34.594 79 L 34.250 79 33.625 82.125 M 95.200 80.200 L 94 81.400 94 83.026 L 94 84.651 96.500 87 L 99 89.349 99 92.174 L 99 95 96.901 97.099 L 94.802 99.198 91.651 98.568 L 88.500 97.937 86.644 97.719 L 84.789 97.500 83.368 99.606 L 81.947 101.713 83.787 103.985 L 85.627 106.258 90.648 106.740 L 95.669 107.223 98.584 105.706 L 101.500 104.190 103.894 101.628 L 106.287 99.065 106.770 94.044 L 107.252 89.023 105.991 85.978 L 104.729 82.932 102.230 80.966 L 99.730 79 98.065 79 L 96.400 79 95.200 80.200 M 53 81 L 53 82.333 53.667 81.667 L 54.333 81 53.667 80.333 L 53 79.667 53 81 M 57 81 L 57 82 58.059 82 L 59.118 82 58.500 81 L 57.882 80 57.441 80 L 57 80 57 81 M 62 81 L 62 82.333 62.667 81.667 L 63.333 81 62.667 80.333 L 62 79.667 62 81 M 67 81 L 67 82.333 67.667 81.667 L 68.333 81 67.667 80.333 L 67 79.667 67 81 M 72 81 L 72 82.333 72.667 81.667 L 73.333 81 72.667 80.333 L 72 79.667 72 81 M 110 81 L 110 82.333 110.667 81.667 L 111.333 81 110.667 80.333 L 110 79.667 110 81 M 114 81 L 114 82.333 114.667 81.667 L 115.333 81 114.667 80.333 L 114 79.667 114 81 M 119 81 L 119 82.333 119.667 81.667 L 120.333 81 119.667 80.333 L 119 79.667 119 81 M 124 81 L 124 82.333 124.667 81.667 L 125.333 81 124.667 80.333 L 124 79.667 124 81 M 129 81 L 129 82.333 129.667 81.667 L 130.333 81 129.667 80.333 L 129 79.667 129 81 M 50.333 83.667 L 51 84.333 51.667 83.667 L 52.333 83 51 83 L 49.667 83 50.333 83.667 M 64.333 83.667 L 65 84.333 65.667 83.667 L 66.333 83 65 83 L 63.667 83 64.333 83.667 M 69.333 83.667 L 70 84.333 70.667 83.667 L 71.333 83 70 83 L 68.667 83 69.333 83.667 M 121.333 83.667 L 122 84.333 122.667 83.667 L 123.333 83 122 83 L 120.667 83 121.333 83.667 M 52.333 85.667 L 53 86.333 53.667 85.667 L 54.333 85 53 85 L 51.667 85 52.333 85.667 M 57.333 85.667 L 58 86.333 58.667 85.667 L 59.333 85 58 85 L 56.667 85 57.333 85.667 M 71.333 85.667 L 72 86.333 72.667 85.667 L 73.333 85 72 85 L 70.667 85 71.333 85.667 M 109 86.059 L 109 87.118 110 86.500 L 111 85.882 111 85.441 L 111 85 110 85 L 109 85 109 86.059 M 114.333 85.667 L 115 86.333 115.667 85.667 L 116.333 85 115 85 L 113.667 85 114.333 85.667 M 128.333 85.667 L 129 86.333 129.667 85.667 L 130.333 85 129 85 L 127.667 85 128.333 85.667 M 50 88 L 50 89.333 50.667 88.667 L 51.333 88 50.667 87.333 L 50 86.667 50 88 M 55 88 L 55 89.333 55.667 88.667 L 56.333 88 55.667 87.333 L 55 86.667 55 88 M 60 88 L 60 89.333 60.667 88.667 L 61.333 88 60.667 87.333 L 60 86.667 60 88 M 69 88 L 69 89.333 69.667 88.667 L 70.333 88 69.667 87.333 L 69 86.667 69 88 M 74 88 L 74 89.333 74.667 88.667 L 75.333 88 74.667 87.333 L 74 86.667 74 88 M 112 88 L 112 89.333 112.667 88.667 L 113.333 88 112.667 87.333 L 112 86.667 112 88 M 117 88 L 117 89.333 117.667 88.667 L 118.333 88 117.667 87.333 L 117 86.667 117 88 M 121 88 L 121 89 122.059 89 L 123.118 89 122.500 88 L 121.882 87 121.441 87 L 121 87 121 88 M 126 88 L 126 89.333 126.667 88.667 L 127.333 88 126.667 87.333 L 126 86.667 126 88 M 131 88 L 131 89.333 131.667 88.667 L 132.333 88 131.667 87.333 L 131 86.667 131 88 M 64.333 88.667 L 65 89.333 65.667 88.667 L 66.333 88 65 88 L 63.667 88 64.333 88.667 M 110.252 92.500 L 110.272 96.500 110.707 94.238 L 111.142 91.977 110.687 90.238 L 110.232 88.500 110.252 92.500 M 52.333 90.667 L 53 91.333 53.667 90.667 L 54.333 90 53 90 L 51.667 90 52.333 90.667 M 57.333 90.667 L 58 91.333 58.667 90.667 L 59.333 90 58 90 L 56.667 90 57.333 90.667 M 71.333 90.667 L 72 91.333 72.667 90.667 L 73.333 90 72 90 L 70.667 90 71.333 90.667 M 114.333 90.667 L 115 91.333 115.667 90.667 L 116.333 90 115 90 L 113.667 90 114.333 90.667 M 128.333 90.667 L 129 91.333 129.667 90.667 L 130.333 90 129 90 L 127.667 90 128.333 90.667 M 133.333 90.667 L 134 91.333 134.667 90.667 L 135.333 90 134 90 L 132.667 90 133.333 90.667 M 55 93 L 55 94.333 55.667 93.667 L 56.333 93 55.667 92.333 L 55 91.667 55 93 M 60 93 L 60 94.333 60.667 93.667 L 61.333 93 60.667 92.333 L 60 91.667 60 93 M 64.333 92.667 L 65 93.333 65.667 92.667 L 66.333 92 65 92 L 63.667 92 64.333 92.667 M 69 93 L 69 94.333 69.667 93.667 L 70.333 93 69.667 92.333 L 69 91.667 69 93 M 112 93 L 112 94.333 112.667 93.667 L 113.333 93 112.667 92.333 L 112 91.667 112 93 M 117 93 L 117 94.333 117.667 93.667 L 118.333 93 117.667 92.333 L 117 91.667 117 93 M 121.333 92.667 L 122 93.333 122.667 92.667 L 123.333 92 122 92 L 120.667 92 121.333 92.667 M 126 93 L 126 94.333 126.667 93.667 L 127.333 93 126.667 92.333 L 126 91.667 126 93 M 131 93 L 131 94.333 131.667 93.667 L 132.333 93 131.667 92.333 L 131 91.667 131 93 M 67 95 L 67 96.333 67.667 95.667 L 68.333 95 67.667 94.333 L 67 93.667 67 95 M 119 95 L 119 96.333 119.667 95.667 L 120.333 95 119.667 94.333 L 119 93.667 119 95 M 57.333 95.667 L 58 96.333 58.667 95.667 L 59.333 95 58 95 L 56.667 95 57.333 95.667 M 114.333 95.667 L 115 96.333 115.667 95.667 L 116.333 95 115 95 L 113.667 95 114.333 95.667 M 128.333 95.667 L 129 96.333 129.667 95.667 L 130.333 95 129 95 L 127.667 95 128.333 95.667 M 133.333 95.667 L 134 96.333 134.667 95.667 L 135.333 95 134 95 L 132.667 95 133.333 95.667 M 74 97 L 74 98.333 74.667 97.667 L 75.333 97 74.667 96.333 L 74 95.667 74 97 M 50.333 97.667 L 51 98.333 51.667 97.667 L 52.333 97 51 97 L 49.667 97 50.333 97.667 M 64.333 97.667 L 65 98.333 65.667 97.667 L 66.333 97 65 97 L 63.667 97 64.333 97.667 M 121.333 97.667 L 122 98.333 122.667 97.667 L 123.333 97 122 97 L 120.667 97 121.333 97.667 M 53 100 L 53 101.333 53.667 100.667 L 54.333 100 53.667 99.333 L 53 98.667 53 100 M 57 100 L 57 101.333 57.667 100.667 L 58.333 100 57.667 99.333 L 57 98.667 57 100 M 62 100 L 62 101.333 62.667 100.667 L 63.333 100 62.667 99.333 L 62 98.667 62 100 M 67 100 L 67 101.333 67.667 100.667 L 68.333 100 67.667 99.333 L 67 98.667 67 100 M 72 100 L 72 101.333 72.667 100.667 L 73.333 100 72.667 99.333 L 72 98.667 72 100 M 114 100 L 114 101.333 114.667 100.667 L 115.333 100 114.667 99.333 L 114 98.667 114 100 M 119 100 L 119 101.333 119.667 100.667 L 120.333 100 119.667 99.333 L 119 98.667 119 100 M 124 100 L 124 101.333 124.667 100.667 L 125.333 100 124.667 99.333 L 124 98.667 124 100 M 129 100 L 129 101.333 129.667 100.667 L 130.333 100 129.667 99.333 L 129 98.667 129 100 M 133 100 L 133 101.333 133.667 100.667 L 134.333 100 133.667 99.333 L 133 98.667 133 100 M 50.333 102.667 L 51 103.333 51.667 102.667 L 52.333 102 51 102 L 49.667 102 50.333 102.667 M 64.333 102.667 L 65 103.333 65.667 102.667 L 66.333 102 65 102 L 63.667 102 64.333 102.667 M 121.333 102.667 L 122 103.333 122.667 102.667 L 123.333 102 122 102 L 120.667 102 121.333 102.667 M 79.500 104 L 80.118 105 80.618 105 L 81.118 105 80.500 104 L 79.882 103 79.382 103 L 78.882 103 79.500 104 M 52.333 104.667 L 53 105.333 53.667 104.667 L 54.333 104 53 104 L 51.667 104 52.333 104.667 M 57.333 104.667 L 58 105.333 58.667 104.667 L 59.333 104 58 104 L 56.667 104 57.333 104.667 M 114.333 104.667 L 115 105.333 115.667 104.667 L 116.333 104 115 104 L 113.667 104 114.333 104.667 M 128.333 104.667 L 129 105.333 129.667 104.667 L 130.333 104 129 104 L 127.667 104 128.333 104.667 M 147.079 106.583 L 147.158 108.500 147.683 107.188 L 148.208 105.875 147.604 105.271 L 147 104.667 147.079 106.583 M 55 107 L 55 108.333 55.667 107.667 L 56.333 107 55.667 106.333 L 55 105.667 55 107 M 60 107 L 60 108.333 60.667 107.667 L 61.333 107 60.667 106.333 L 60 105.667 60 107 M 69 107 L 69 108.333 69.667 107.667 L 70.333 107 69.667 106.333 L 69 105.667 69 107 M 74 107 L 74 108.333 74.667 107.667 L 75.333 107 74.667 106.333 L 74 105.667 74 107 M 112 107 L 112 108.333 112.667 107.667 L 113.333 107 112.667 106.333 L 112 105.667 112 107 M 117 107 L 117 108.333 117.667 107.667 L 118.333 107 117.667 106.333 L 117 105.667 117 107 M 126 107 L 126 108.333 126.667 107.667 L 127.333 107 126.667 106.333 L 126 105.667 126 107 M 131 107 L 131 108.333 131.667 107.667 L 132.333 107 131.667 106.333 L 131 105.667 131 107 M 64.333 107.667 L 65 108.333 65.667 107.667 L 66.333 107 65 107 L 63.667 107 64.333 107.667 M 121.333 107.667 L 122 108.333 122.667 107.667 L 123.333 107 122 107 L 120.667 107 121.333 107.667 M 99.500 109 L 100.118 110 100.559 110 L 101 110 101 109 L 101 108 99.941 108 L 98.882 108 99.500 109 M 52.333 109.667 L 53 110.333 53.667 109.667 L 54.333 109 53 109 L 51.667 109 52.333 109.667 M 57.333 109.667 L 58 110.333 58.667 109.667 L 59.333 109 58 109 L 56.667 109 57.333 109.667 M 71.333 109.667 L 72 110.333 72.667 109.667 L 73.333 109 72 109 L 70.667 109 71.333 109.667 M 76.333 109.667 L 77 110.333 77.667 109.667 L 78.333 109 77 109 L 75.667 109 76.333 109.667 M 86.333 109.667 L 87 110.333 87.667 109.667 L 88.333 109 87 109 L 85.667 109 86.333 109.667 M 96.333 109.667 L 97 110.333 97.667 109.667 L 98.333 109 97 109 L 95.667 109 96.333 109.667 M 109.333 109.667 L 110 110.333 110.667 109.667 L 111.333 109 110 109 L 108.667 109 109.333 109.667 M 114.333 109.667 L 115 110.333 115.667 109.667 L 116.333 109 115 109 L 113.667 109 114.333 109.667 M 128.333 109.667 L 129 110.333 129.667 109.667 L 130.333 109 129 109 L 127.667 109 128.333 109.667 M 55 112 L 55 113.333 55.667 112.667 L 56.333 112 55.667 111.333 L 55 110.667 55 112 M 60 112 L 60 113.333 60.667 112.667 L 61.333 112 60.667 111.333 L 60 110.667 60 112 M 64.333 111.667 L 65 112.333 65.667 111.667 L 66.333 111 65 111 L 63.667 111 64.333 111.667 M 69.333 111.667 L 70 112.333 70.667 111.667 L 71.333 111 70 111 L 68.667 111 69.333 111.667 M 74 112 L 74 113.333 74.667 112.667 L 75.333 112 74.667 111.333 L 74 110.667 74 112 M 83.333 111.667 L 84 112.333 84.667 111.667 L 85.333 111 84 111 L 82.667 111 83.333 111.667 M 93 112 L 93 113.333 93.667 112.667 L 94.333 112 93.667 111.333 L 93 110.667 93 112 M 102.333 111.667 L 103 112.333 103.667 111.667 L 104.333 111 103 111 L 101.667 111 102.333 111.667 M 117 112 L 117 113.333 117.667 112.667 L 118.333 112 117.667 111.333 L 117 110.667 117 112 M 121.333 111.667 L 122 112.333 122.667 111.667 L 123.333 111 122 111 L 120.667 111 121.333 111.667 M 126 112 L 126 113.333 126.667 112.667 L 127.333 112 126.667 111.333 L 126 110.667 126 112 M 62 114 L 62 115.333 62.667 114.667 L 63.333 114 62.667 113.333 L 62 112.667 62 114 M 67 114 L 67 115.333 67.667 114.667 L 68.333 114 67.667 113.333 L 67 112.667 67 114 M 86 114 L 86 115.333 86.667 114.667 L 87.333 114 86.667 113.333 L 86 112.667 86 114 M 100 114 L 100 115.333 100.667 114.667 L 101.333 114 100.667 113.333 L 100 112.667 100 114 M 119 114 L 119 115.333 119.667 114.667 L 120.333 114 119.667 113.333 L 119 112.667 119 114 M 124 114 L 124 115.333 124.667 114.667 L 125.333 114 124.667 113.333 L 124 112.667 124 114 M 57.333 114.667 L 58 115.333 58.667 114.667 L 59.333 114 58 114 L 56.667 114 57.333 114.667 M 76.333 114.667 L 77 115.333 77.667 114.667 L 78.333 114 77 114 L 75.667 114 76.333 114.667 M 95.333 114.667 L 96 115.333 96.667 114.667 L 97.333 114 96 114 L 94.667 114 95.333 114.667 M 114.333 114.667 L 115 115.333 115.667 114.667 L 116.333 114 115 114 L 113.667 114 114.333 114.667 M 64.333 116.667 L 65 117.333 65.667 116.667 L 66.333 116 65 116 L 63.667 116 64.333 116.667 M 69.333 116.667 L 70 117.333 70.667 116.667 L 71.333 116 70 116 L 68.667 116 69.333 116.667 M 83.333 116.667 L 84 117.333 84.667 116.667 L 85.333 116 84 116 L 82.667 116 83.333 116.667 M 102.333 116.667 L 103 117.333 103.667 116.667 L 104.333 116 103 116 L 101.667 116 102.333 116.667 M 121.333 116.667 L 122 117.333 122.667 116.667 L 123.333 116 122 116 L 120.667 116 121.333 116.667 M 62 119 L 62 120.333 62.667 119.667 L 63.333 119 62.667 118.333 L 62 117.667 62 119 M 67 119 L 67 120.333 67.667 119.667 L 68.333 119 67.667 118.333 L 67 117.667 67 119 M 72 119 L 72 120.333 72.667 119.667 L 73.333 119 72.667 118.333 L 72 117.667 72 119 M 76 119 L 76 120.333 76.667 119.667 L 77.333 119 76.667 118.333 L 76 117.667 76 119 M 81 119 L 81 120.333 81.667 119.667 L 82.333 119 81.667 118.333 L 81 117.667 81 119 M 86 119 L 86 120.333 86.667 119.667 L 87.333 119 86.667 118.333 L 86 117.667 86 119 M 91 119 L 91 120.333 91.667 119.667 L 92.333 119 91.667 118.333 L 91 117.667 91 119 M 100 119 L 100 120.333 100.667 119.667 L 101.333 119 100.667 118.333 L 100 117.667 100 119 M 105 119 L 105 120.333 105.667 119.667 L 106.333 119 105.667 118.333 L 105 117.667 105 119 M 110 119 L 110 120.333 110.667 119.667 L 111.333 119 110.667 118.333 L 110 117.667 110 119 M 114 119 L 114 120.333 114.667 119.667 L 115.333 119 114.667 118.333 L 114 117.667 114 119 M 119 119 L 119 120.333 119.667 119.667 L 120.333 119 119.667 118.333 L 119 117.667 119 119 M 124 119 L 124 120.333 124.667 119.667 L 125.333 119 124.667 118.333 L 124 117.667 124 119 M 64.333 121.667 L 65 122.333 65.667 121.667 L 66.333 121 65 121 L 63.667 121 64.333 121.667 M 69.333 121.667 L 70 122.333 70.667 121.667 L 71.333 121 70 121 L 68.667 121 69.333 121.667 M 83.333 121.667 L 84 122.333 84.667 121.667 L 85.333 121 84 121 L 82.667 121 83.333 121.667 M 102.333 121.667 L 103 122.333 103.667 121.667 L 104.333 121 103 121 L 101.667 121 102.333 121.667 M 121.333 121.667 L 122 122.333 122.667 121.667 L 123.333 121 122 121 L 120.667 121 121.333 121.667 M 71.333 123.667 L 72 124.333 72.667 123.667 L 73.333 123 72 123 L 70.667 123 71.333 123.667 M 76.333 123.667 L 77 124.333 77.667 123.667 L 78.333 123 77 123 L 75.667 123 76.333 123.667 M 90.333 123.667 L 91 124.333 91.667 123.667 L 92.333 123 91 123 L 89.667 123 90.333 123.667 M 95.333 123.667 L 96 124.333 96.667 123.667 L 97.333 123 96 123 L 94.667 123 95.333 123.667 M 109.333 123.667 L 110 124.333 110.667 123.667 L 111.333 123 110 123 L 108.667 123 109.333 123.667 M 114.333 123.667 L 115 124.333 115.667 123.667 L 116.333 123 115 123 L 113.667 123 114.333 123.667 M 69 126 L 69 127.333 69.667 126.667 L 70.333 126 69.667 125.333 L 69 124.667 69 126 M 74 126 L 74 127.333 74.667 126.667 L 75.333 126 74.667 125.333 L 74 124.667 74 126 M 79 126 L 79 127.333 79.667 126.667 L 80.333 126 79.667 125.333 L 79 124.667 79 126 M 83.500 126 L 82.882 127 83.941 127 L 85 127 85 126 L 85 125 84.559 125 L 84.118 125 83.500 126 M 88 126 L 88 127.333 88.667 126.667 L 89.333 126 88.667 125.333 L 88 124.667 88 126 M 93 126 L 93 127.333 93.667 126.667 L 94.333 126 93.667 125.333 L 93 124.667 93 126 M 98 126 L 98 127.333 98.667 126.667 L 99.333 126 98.667 125.333 L 98 124.667 98 126 M 102 126 L 102 127 103.059 127 L 104.118 127 103.500 126 L 102.882 125 102.441 125 L 102 125 102 126 M 107 126 L 107 127.333 107.667 126.667 L 108.333 126 107.667 125.333 L 107 124.667 107 126 M 112 126 L 112 127.333 112.667 126.667 L 113.333 126 112.667 125.333 L 112 124.667 112 126 M 71.333 128.667 L 72 129.333 72.667 128.667 L 73.333 128 72 128 L 70.667 128 71.333 128.667 M 76.333 128.667 L 77 129.333 77.667 128.667 L 78.333 128 77 128 L 75.667 128 76.333 128.667 M 90.333 128.667 L 91 129.333 91.667 128.667 L 92.333 128 91 128 L 89.667 128 90.333 128.667 M 95.333 128.667 L 96 129.333 96.667 128.667 L 97.333 128 96 128 L 94.667 128 95.333 128.667 M 109.333 128.667 L 110 129.333 110.667 128.667 L 111.333 128 110 128 L 108.667 128 109.333 128.667 M 74 131 L 74 132.333 74.667 131.667 L 75.333 131 74.667 130.333 L 74 129.667 74 131 M 79 131 L 79 132.333 79.667 131.667 L 80.333 131 79.667 130.333 L 79 129.667 79 131 M 83.333 130.667 L 84 131.333 84.667 130.667 L 85.333 130 84 130 L 82.667 130 83.333 130.667 M 88 131 L 88 132.333 88.667 131.667 L 89.333 131 88.667 130.333 L 88 129.667 88 131 M 93 131 L 93 132.333 93.667 131.667 L 94.333 131 93.667 130.333 L 93 129.667 93 131 M 98 131 L 98 132.333 98.667 131.667 L 99.333 131 98.667 130.333 L 98 129.667 98 131 M 102.333 130.667 L 103 131.333 103.667 130.667 L 104.333 130 103 130 L 101.667 130 102.333 130.667 M 81 133 L 81 134.333 81.667 133.667 L 82.333 133 81.667 132.333 L 81 131.667 81 133 M 86 133 L 86 134.333 86.667 133.667 L 87.333 133 86.667 132.333 L 86 131.667 86 133 M 100 133 L 100 134.333 100.667 133.667 L 101.333 133 100.667 132.333 L 100 131.667 100 133 M 95.333 133.667 L 96 134.333 96.667 133.667 L 97.333 133 96 133 L 94.667 133 95.333 133.667" stroke="none" fill="#798ba2" fill-rule="evenodd"/></svg>